<svg width="1280" height="832" viewBox="0 0 1280 832" fill="none" xmlns="http://www.w3.org/2000/svg">
<rect width="1280" height="832" fill="#4D4D4D"/>
<g clip-path="url(#clip0_0_1)">
<rect width="1280" height="832" fill="#151515"/>
<line x1="288" y1="179.5" x2="1042" y2="179.5" stroke="white"/>
<line x1="288" y1="229.5" x2="1042" y2="229.5" stroke="white"/>
<line x1="288" y1="279.5" x2="1042" y2="279.5" stroke="white"/>
<line x1="288" y1="329.5" x2="1042" y2="329.5" stroke="white"/>
<line x1="288" y1="389.5" x2="1042" y2="389.5" stroke="white"/>
<line x1="288" y1="449.5" x2="1042" y2="449.5" stroke="white"/>
<line x1="288" y1="499.5" x2="1042" y2="499.5" stroke="white"/>
<line x1="288" y1="549.5" x2="1042" y2="549.5" stroke="white"/>
<line x1="288" y1="599.5" x2="1042" y2="599.5" stroke="white"/>
<line x1="288" y1="659.5" x2="1042" y2="659.5" stroke="white"/>
<line x1="391.5" y1="179" x2="391.5" y2="660" stroke="black"/>
<line x1="391.5" y1="179" x2="391.5" y2="660" stroke="white"/>
<line x1="461.5" y1="179" x2="461.5" y2="660" stroke="white"/>
<line x1="541.5" y1="179" x2="541.5" y2="660" stroke="white"/>
<line x1="621.5" y1="179" x2="621.5" y2="660" stroke="white"/>
<line x1="701.5" y1="179" x2="701.5" y2="660" stroke="white"/>
<line x1="771.5" y1="179" x2="771.5" y2="660" stroke="white"/>
<line x1="841.5" y1="179" x2="841.5" y2="660" stroke="white"/>
<line x1="911.5" y1="179" x2="911.5" y2="660" stroke="white"/>
<rect x="197" y="91" width="617" height="474" fill="url(#paint0_linear_0_1)"/>
<rect x="1157" y="629" width="416" height="520" transform="rotate(-180 1157 629)" fill="url(#paint1_linear_0_1)"/>
<rect x="1007" y="52" width="355" height="698" transform="rotate(90 1007 52)" fill="url(#paint2_linear_0_1)"/>
<rect x="230" y="665" width="330" height="819" transform="rotate(-90 230 665)" fill="url(#paint3_linear_0_1)"/>
<g filter="url(#filter0_f_0_1)">
<ellipse cx="665" cy="322" rx="261" ry="41" fill="#5AFFEB"/>
</g>
</g>
<defs>
<filter id="filter0_f_0_1" x="85" y="-38" width="1160" height="720" filterUnits="userSpaceOnUse" color-interpolation-filters="sRGB">
<feFlood flood-opacity="0" result="BackgroundImageFix"/>
<feBlend mode="normal" in="SourceGraphic" in2="BackgroundImageFix" result="shape"/>
<feGaussianBlur stdDeviation="159.5" result="effect1_foregroundBlur_0_1"/>
</filter>
<linearGradient id="paint0_linear_0_1" x1="197" y1="351.624" x2="772.218" y2="362.533" gradientUnits="userSpaceOnUse">
<stop stop-color="#151515"/>
<stop offset="0.373443" stop-color="#151515"/>
<stop offset="1" stop-color="#151515" stop-opacity="0"/>
</linearGradient>
<linearGradient id="paint1_linear_0_1" x1="1157" y1="914.916" x2="1544.92" y2="919.438" gradientUnits="userSpaceOnUse">
<stop stop-color="#151515"/>
<stop offset="0.373443" stop-color="#151515"/>
<stop offset="1" stop-color="#151515" stop-opacity="0"/>
</linearGradient>
<linearGradient id="paint2_linear_0_1" x1="1007" y1="435.788" x2="1338.06" y2="438.241" gradientUnits="userSpaceOnUse">
<stop stop-color="#151515"/>
<stop offset="0.373443" stop-color="#151515"/>
<stop offset="1" stop-color="#151515" stop-opacity="0"/>
</linearGradient>
<linearGradient id="paint3_linear_0_1" x1="230" y1="1115.32" x2="537.753" y2="1117.12" gradientUnits="userSpaceOnUse">
<stop stop-color="#151515"/>
<stop offset="0.373443" stop-color="#151515"/>
<stop offset="1" stop-color="#151515" stop-opacity="0"/>
</linearGradient>
<clipPath id="clip0_0_1">
<rect width="1280" height="832" fill="white"/>
</clipPath>
</defs>
</svg>
