<svg width="1606" height="1099" viewBox="0 0 1606 1099" fill="none" xmlns="http://www.w3.org/2000/svg">
<rect width="1606" height="1099" fill="#4D4D4D"/>
<g clip-path="url(#clip0_0_1)">
<rect width="1606" height="1099" fill="#151515"/>
<circle cx="2281.5" cy="1669.5" r="741.5" fill="url(#paint0_radial_0_1)"/>
<line x1="427" y1="375.5" x2="1181" y2="375.5" stroke="#6F6F6F"/>
<line x1="427" y1="425.5" x2="1181" y2="425.5" stroke="#6F6F6F"/>
<line x1="427" y1="485.5" x2="1181" y2="485.5" stroke="#6F6F6F"/>
<line x1="427" y1="545.5" x2="1181" y2="545.5" stroke="#6F6F6F"/>
<line x1="427" y1="595.5" x2="1181" y2="595.5" stroke="#6F6F6F"/>
<line x1="427" y1="645.5" x2="1181" y2="645.5" stroke="#6F6F6F"/>
<line x1="427" y1="695.5" x2="1181" y2="695.5" stroke="#6F6F6F"/>
<line x1="427" y1="755.5" x2="1181" y2="755.5" stroke="#6F6F6F"/>
<line x1="530.5" y1="275" x2="530.5" y2="756" stroke="black"/>
<line x1="530.5" y1="275" x2="530.5" y2="756" stroke="#6F6F6F"/>
<line x1="600.5" y1="275" x2="600.5" y2="756" stroke="#6F6F6F"/>
<line x1="680.5" y1="275" x2="680.5" y2="756" stroke="#6F6F6F"/>
<line x1="760.5" y1="275" x2="760.5" y2="756" stroke="#6F6F6F"/>
<line x1="840.5" y1="275" x2="840.5" y2="756" stroke="#6F6F6F"/>
<line x1="910.5" y1="275" x2="910.5" y2="756" stroke="#6F6F6F"/>
<line x1="980.5" y1="275" x2="980.5" y2="756" stroke="#6F6F6F"/>
<line x1="1050.5" y1="275" x2="1050.5" y2="756" stroke="#6F6F6F"/>
<rect x="218" y="298" width="730" height="650" fill="url(#paint1_linear_0_1)"/>
<rect x="1456" y="855" width="730" height="650" transform="rotate(-180 1456 855)" fill="url(#paint2_linear_0_1)"/>
<rect x="1213" y="-11" width="730" height="698" transform="rotate(90 1213 -11)" fill="url(#paint3_linear_0_1)"/>
<rect x="344" y="948" width="730" height="812" transform="rotate(-90 344 948)" fill="url(#paint4_linear_0_1)"/>
<g filter="url(#filter0_f_0_1)">
<ellipse cx="790.5" cy="485.5" rx="163.5" ry="60.5" fill="#38FFF3"/>
</g>
</g>
<defs>
<filter id="filter0_f_0_1" x="283" y="81" width="1015" height="809" filterUnits="userSpaceOnUse" color-interpolation-filters="sRGB">
<feFlood flood-opacity="0" result="BackgroundImageFix"/>
<feBlend mode="normal" in="SourceGraphic" in2="BackgroundImageFix" result="shape"/>
<feGaussianBlur stdDeviation="172" result="effect1_foregroundBlur_0_1"/>
</filter>
<radialGradient id="paint0_radial_0_1" cx="0" cy="0" r="1" gradientUnits="userSpaceOnUse" gradientTransform="translate(2281.5 1669.5) rotate(90) scale(741.5)">
<stop stop-color="#2B67FF" stop-opacity="0.39"/>
<stop offset="1" stop-color="#2B66FB" stop-opacity="0"/>
</radialGradient>
<linearGradient id="paint1_linear_0_1" x1="218" y1="655.396" x2="898.629" y2="666.532" gradientUnits="userSpaceOnUse">
<stop stop-color="#151515"/>
<stop offset="0.373443" stop-color="#151515"/>
<stop offset="1" stop-color="#151515" stop-opacity="0"/>
</linearGradient>
<linearGradient id="paint2_linear_0_1" x1="1456" y1="1212.4" x2="2136.63" y2="1223.53" gradientUnits="userSpaceOnUse">
<stop stop-color="#151515"/>
<stop offset="0.373443" stop-color="#151515"/>
<stop offset="1" stop-color="#151515" stop-opacity="0"/>
</linearGradient>
<linearGradient id="paint3_linear_0_1" x1="1213" y1="372.788" x2="1893.65" y2="383.159" gradientUnits="userSpaceOnUse">
<stop stop-color="#151515"/>
<stop offset="0.373443" stop-color="#151515"/>
<stop offset="1" stop-color="#151515" stop-opacity="0"/>
</linearGradient>
<linearGradient id="paint4_linear_0_1" x1="344" y1="1394.47" x2="1024.69" y2="1403.39" gradientUnits="userSpaceOnUse">
<stop stop-color="#151515"/>
<stop offset="0.373443" stop-color="#151515"/>
<stop offset="1" stop-color="#151515" stop-opacity="0"/>
</linearGradient>
<clipPath id="clip0_0_1">
<rect width="1606" height="1099" fill="white"/>
</clipPath>
</defs>
</svg>
