<svg width="862" height="380" viewBox="0 0 862 380" fill="none" xmlns="http://www.w3.org/2000/svg">
<rect width="862" height="380" fill="#888888"/>
<g clip-path="url(#clip0_0_1)">
<rect width="862" height="380" fill="#7B7B7B" fill-opacity="0.93"/>
<g clip-path="url(#clip1_0_1)">
<rect width="862" height="380" fill="white"/>
<rect width="1098" height="654" fill="url(#paint0_linear_0_1)"/>
<g filter="url(#filter0_f_0_1)">
<path d="M308 138C308 206.483 237.933 262 151.5 262C65.0674 262 -5 206.483 -5 138C-5 69.5167 65.0674 14 151.5 14C237.933 14 308 69.5167 308 138Z" fill="#ECFF79"/>
</g>
<g filter="url(#filter1_f_0_1)">
<path d="M681 37C681 105.483 610.933 161 524.5 161C438.067 161 368 105.483 368 37C368 -31.4833 438.067 -87 524.5 -87C610.933 -87 681 -31.4833 681 37Z" fill="#96F2FF"/>
</g>
<g filter="url(#filter2_f_0_1)">
<path d="M938 294C938 362.483 867.933 418 781.5 418C695.067 418 625 362.483 625 294C625 225.517 695.067 170 781.5 170C867.933 170 938 225.517 938 294Z" fill="#96FF9A"/>
</g>
<path d="M241.97 193V141.88H275.34V150.897H251.626V161.831H271.08V170.848H251.626V183.983H275.34V193H241.97ZM294.215 193L280.299 154.66H289.955L299.043 181.214L308.131 154.66H317.787L303.871 193H294.215ZM340.637 194.065C336.708 194.065 333.241 193.225 330.235 191.544C327.253 189.84 324.91 187.509 323.206 184.551C321.526 181.569 320.686 178.161 320.686 174.327C320.686 170.138 321.514 166.493 323.171 163.393C324.827 160.293 327.111 157.89 330.022 156.186C332.933 154.459 336.282 153.595 340.069 153.595C344.092 153.595 347.512 154.542 350.328 156.435C353.145 158.328 355.227 160.991 356.576 164.422C357.925 167.854 358.399 171.889 357.996 176.528H348.447V172.978C348.447 169.073 347.82 166.268 346.565 164.564C345.335 162.837 343.311 161.973 340.495 161.973C337.205 161.973 334.779 162.979 333.217 164.99C331.679 166.978 330.91 169.925 330.91 173.83C330.91 177.404 331.679 180.173 333.217 182.137C334.779 184.078 337.063 185.048 340.069 185.048C341.962 185.048 343.583 184.634 344.932 183.805C346.281 182.977 347.311 181.782 348.021 180.22L357.677 182.989C356.233 186.492 353.949 189.213 350.825 191.154C347.725 193.095 344.329 194.065 340.637 194.065ZM327.928 176.528V169.357H353.346V176.528H327.928ZM391.1 193V174.895C391.1 174.019 391.053 172.907 390.958 171.558C390.863 170.185 390.567 168.813 390.07 167.44C389.573 166.067 388.757 164.919 387.621 163.996C386.509 163.073 384.923 162.612 382.864 162.612C382.036 162.612 381.148 162.742 380.201 163.002C379.255 163.263 378.367 163.772 377.539 164.529C376.711 165.263 376.024 166.351 375.48 167.795C374.959 169.239 374.699 171.156 374.699 173.546L369.161 170.919C369.161 167.89 369.776 165.05 371.007 162.399C372.238 159.748 374.084 157.606 376.545 155.973C379.03 154.34 382.154 153.524 385.917 153.524C388.923 153.524 391.372 154.033 393.265 155.05C395.159 156.068 396.626 157.358 397.667 158.92C398.732 160.482 399.49 162.115 399.939 163.819C400.389 165.499 400.661 167.038 400.756 168.434C400.851 169.83 400.898 170.848 400.898 171.487V193H391.1ZM364.901 193V154.66H373.492V167.369H374.699V193H364.901ZM433.114 193C430.463 193.497 427.86 193.71 425.304 193.639C422.771 193.592 420.499 193.154 418.488 192.325C416.5 191.473 414.985 190.113 413.944 188.243C412.997 186.492 412.5 184.717 412.453 182.918C412.405 181.096 412.382 179.037 412.382 176.741V144.01H422.038V176.173C422.038 177.664 422.049 179.013 422.073 180.22C422.12 181.403 422.369 182.35 422.819 183.06C423.671 184.409 425.031 185.143 426.901 185.261C428.771 185.379 430.842 185.285 433.114 184.977V193ZM405.85 162.115V154.66H433.114V162.115H405.85ZM475.183 194.065C471.397 194.065 467.977 193.402 464.924 192.077C461.895 190.728 459.398 188.811 457.433 186.326C455.493 183.817 454.262 180.835 453.741 177.38L463.823 175.889C464.533 178.824 466.001 181.084 468.225 182.669C470.45 184.255 472.982 185.048 475.822 185.048C477.408 185.048 478.946 184.799 480.437 184.302C481.928 183.805 483.147 183.072 484.094 182.101C485.064 181.131 485.549 179.936 485.549 178.516C485.549 177.995 485.467 177.498 485.301 177.025C485.159 176.528 484.91 176.066 484.555 175.64C484.2 175.214 483.692 174.812 483.029 174.433C482.39 174.055 481.573 173.712 480.579 173.404L467.302 169.499C466.308 169.215 465.149 168.813 463.823 168.292C462.522 167.771 461.256 167.026 460.025 166.055C458.794 165.085 457.765 163.807 456.936 162.221C456.132 160.612 455.729 158.589 455.729 156.151C455.729 152.719 456.593 149.867 458.321 147.595C460.049 145.323 462.356 143.631 465.243 142.519C468.131 141.407 471.326 140.862 474.828 140.886C478.355 140.933 481.502 141.537 484.271 142.696C487.04 143.856 489.36 145.548 491.229 147.773C493.099 149.974 494.448 152.672 495.276 155.867L484.839 157.642C484.461 155.985 483.763 154.589 482.745 153.453C481.727 152.317 480.508 151.453 479.088 150.861C477.692 150.27 476.225 149.95 474.686 149.903C473.172 149.856 471.74 150.069 470.391 150.542C469.066 150.992 467.977 151.654 467.125 152.53C466.297 153.406 465.882 154.447 465.882 155.654C465.882 156.766 466.226 157.677 466.912 158.387C467.598 159.074 468.462 159.63 469.503 160.056C470.545 160.482 471.61 160.837 472.698 161.121L481.573 163.535C482.899 163.89 484.366 164.363 485.975 164.955C487.585 165.523 489.123 166.328 490.59 167.369C492.081 168.387 493.3 169.736 494.247 171.416C495.217 173.096 495.702 175.226 495.702 177.806C495.702 180.551 495.123 182.953 493.963 185.012C492.827 187.048 491.289 188.74 489.348 190.089C487.407 191.414 485.206 192.408 482.745 193.071C480.307 193.734 477.787 194.065 475.183 194.065ZM507.711 210.04L515.095 189.734L515.237 195.698L498.552 154.66H508.563L519.781 183.699H517.509L528.656 154.66H538.312L516.657 210.04H507.711ZM569.432 193V174.895C569.432 174.019 569.385 172.907 569.29 171.558C569.195 170.185 568.899 168.813 568.402 167.44C567.905 166.067 567.089 164.919 565.953 163.996C564.841 163.073 563.255 162.612 561.196 162.612C560.368 162.612 559.48 162.742 558.533 163.002C557.587 163.263 556.699 163.772 555.871 164.529C555.043 165.263 554.356 166.351 553.812 167.795C553.291 169.239 553.031 171.156 553.031 173.546L547.493 170.919C547.493 167.89 548.108 165.05 549.339 162.399C550.57 159.748 552.416 157.606 554.877 155.973C557.362 154.34 560.486 153.524 564.249 153.524C567.255 153.524 569.704 154.033 571.597 155.05C573.491 156.068 574.958 157.358 575.999 158.92C577.064 160.482 577.822 162.115 578.271 163.819C578.721 165.499 578.993 167.038 579.088 168.434C579.183 169.83 579.23 170.848 579.23 171.487V193H569.432ZM543.233 193V154.66H551.824V167.369H553.031V193H543.233ZM604.646 194.065C600.67 194.065 597.262 193.178 594.422 191.402C591.582 189.627 589.405 187.213 587.89 184.16C586.376 181.107 585.618 177.664 585.618 173.83C585.618 169.949 586.399 166.481 587.961 163.428C589.547 160.375 591.772 157.973 594.635 156.222C597.499 154.471 600.883 153.595 604.788 153.595C609.309 153.595 613.095 154.743 616.148 157.038C619.225 159.31 621.189 162.423 622.041 166.375L612.385 168.931C611.817 166.943 610.823 165.393 609.403 164.28C608.007 163.168 606.421 162.612 604.646 162.612C602.611 162.612 600.942 163.109 599.641 164.103C598.339 165.073 597.381 166.41 596.765 168.114C596.15 169.795 595.842 171.7 595.842 173.83C595.842 177.167 596.576 179.877 598.043 181.959C599.534 184.018 601.735 185.048 604.646 185.048C606.824 185.048 608.48 184.551 609.616 183.557C610.752 182.563 611.604 181.143 612.172 179.297L622.041 181.356C620.953 185.427 618.894 188.562 615.864 190.763C612.835 192.965 609.096 194.065 604.646 194.065Z" fill="url(#paint1_linear_0_1)"/>
<path d="M212.58 238V227.2H216.847C216.952 227.2 217.077 227.205 217.222 227.215C217.367 227.22 217.507 227.235 217.642 227.26C218.227 227.35 218.717 227.55 219.112 227.86C219.512 228.17 219.812 228.562 220.012 229.037C220.212 229.507 220.312 230.03 220.312 230.605C220.312 231.175 220.21 231.697 220.005 232.172C219.805 232.642 219.505 233.035 219.105 233.35C218.71 233.66 218.222 233.86 217.642 233.95C217.507 233.97 217.367 233.985 217.222 233.995C217.077 234.005 216.952 234.01 216.847 234.01H213.915V238H212.58ZM213.915 232.742H216.802C216.897 232.742 217.005 232.737 217.125 232.727C217.25 232.717 217.367 232.7 217.477 232.675C217.822 232.595 218.102 232.45 218.317 232.24C218.537 232.025 218.697 231.775 218.797 231.49C218.897 231.2 218.947 230.905 218.947 230.605C218.947 230.305 218.897 230.012 218.797 229.727C218.697 229.437 218.537 229.185 218.317 228.97C218.102 228.755 217.822 228.61 217.477 228.535C217.367 228.505 217.25 228.487 217.125 228.482C217.005 228.472 216.897 228.467 216.802 228.467H213.915V232.742ZM221.958 238V226.975H223.293V238H221.958ZM227.846 238.225C227.241 238.225 226.734 238.115 226.324 237.895C225.919 237.67 225.611 237.375 225.401 237.01C225.196 236.645 225.094 236.245 225.094 235.81C225.094 235.385 225.174 235.017 225.334 234.707C225.499 234.392 225.729 234.132 226.024 233.927C226.319 233.717 226.671 233.552 227.081 233.432C227.466 233.327 227.896 233.237 228.371 233.162C228.851 233.082 229.336 233.01 229.826 232.945C230.316 232.88 230.774 232.817 231.199 232.757L230.719 233.035C230.734 232.315 230.589 231.782 230.284 231.437C229.984 231.092 229.464 230.92 228.724 230.92C228.234 230.92 227.804 231.032 227.434 231.257C227.069 231.477 226.811 231.837 226.661 232.337L225.394 231.955C225.589 231.245 225.966 230.687 226.526 230.282C227.086 229.877 227.824 229.675 228.739 229.675C229.474 229.675 230.104 229.807 230.629 230.072C231.159 230.332 231.539 230.727 231.769 231.257C231.884 231.507 231.956 231.78 231.986 232.075C232.016 232.365 232.031 232.67 232.031 232.99V238H230.846V236.057L231.124 236.237C230.819 236.892 230.391 237.387 229.841 237.722C229.296 238.058 228.631 238.225 227.846 238.225ZM228.049 237.107C228.529 237.107 228.944 237.022 229.294 236.852C229.649 236.677 229.934 236.45 230.149 236.17C230.364 235.885 230.504 235.575 230.569 235.24C230.644 234.99 230.684 234.712 230.689 234.407C230.699 234.097 230.704 233.86 230.704 233.695L231.169 233.897C230.734 233.957 230.306 234.015 229.886 234.07C229.466 234.125 229.069 234.185 228.694 234.25C228.319 234.31 227.981 234.382 227.681 234.467C227.461 234.537 227.254 234.627 227.059 234.737C226.869 234.847 226.714 234.99 226.594 235.165C226.479 235.335 226.421 235.547 226.421 235.802C226.421 236.022 226.476 236.232 226.586 236.432C226.701 236.632 226.876 236.795 227.111 236.92C227.351 237.045 227.664 237.107 228.049 237.107ZM238.504 238C238.024 238.095 237.549 238.133 237.079 238.113C236.614 238.098 236.199 238.005 235.834 237.835C235.469 237.66 235.191 237.39 235.001 237.025C234.841 236.705 234.754 236.382 234.739 236.057C234.729 235.727 234.724 235.355 234.724 234.94V227.65H236.059V234.88C236.059 235.21 236.061 235.492 236.066 235.727C236.076 235.962 236.129 236.165 236.224 236.335C236.404 236.655 236.689 236.842 237.079 236.898C237.474 236.952 237.949 236.937 238.504 236.852V238ZM233.081 231.002V229.9H238.504V231.002H233.081ZM240.921 238V229.457C240.921 229.247 240.931 229.035 240.951 228.82C240.971 228.6 241.016 228.387 241.086 228.182C241.156 227.972 241.271 227.78 241.431 227.605C241.616 227.4 241.818 227.255 242.038 227.17C242.258 227.08 242.481 227.025 242.706 227.005C242.936 226.985 243.153 226.975 243.358 226.975H244.386V228.085H243.433C243.038 228.085 242.743 228.182 242.548 228.377C242.353 228.567 242.256 228.857 242.256 229.247V238H240.921ZM239.548 231.002V229.9H244.386V231.002H239.548ZM248.74 238.225C247.935 238.225 247.24 238.043 246.655 237.677C246.075 237.312 245.627 236.807 245.312 236.162C244.997 235.517 244.84 234.777 244.84 233.942C244.84 233.092 245 232.347 245.32 231.707C245.64 231.067 246.092 230.57 246.677 230.215C247.262 229.855 247.95 229.675 248.74 229.675C249.55 229.675 250.247 229.857 250.832 230.222C251.417 230.582 251.865 231.085 252.175 231.73C252.49 232.37 252.647 233.107 252.647 233.942C252.647 234.787 252.49 235.532 252.175 236.177C251.86 236.817 251.41 237.32 250.825 237.685C250.24 238.045 249.545 238.225 248.74 238.225ZM248.74 236.957C249.58 236.957 250.205 236.677 250.615 236.117C251.025 235.557 251.23 234.832 251.23 233.942C251.23 233.027 251.022 232.3 250.607 231.76C250.192 231.215 249.57 230.942 248.74 230.942C248.175 230.942 247.71 231.07 247.345 231.325C246.98 231.58 246.707 231.932 246.527 232.382C246.347 232.832 246.257 233.352 246.257 233.942C246.257 234.852 246.467 235.582 246.887 236.132C247.307 236.682 247.925 236.957 248.74 236.957ZM254.299 238V229.9H255.491V231.857L255.296 231.602C255.391 231.352 255.514 231.122 255.664 230.912C255.819 230.702 255.991 230.53 256.181 230.395C256.391 230.225 256.629 230.095 256.894 230.005C257.159 229.915 257.429 229.862 257.704 229.847C257.979 229.827 258.236 229.845 258.476 229.9V231.152C258.196 231.077 257.889 231.057 257.554 231.092C257.219 231.127 256.909 231.25 256.624 231.46C256.364 231.645 256.161 231.87 256.016 232.135C255.876 232.4 255.779 232.687 255.724 232.997C255.669 233.302 255.641 233.615 255.641 233.935V238H254.299ZM269.577 238L269.584 232.817C269.584 232.212 269.422 231.74 269.097 231.4C268.777 231.055 268.359 230.882 267.844 230.882C267.544 230.882 267.259 230.952 266.989 231.092C266.719 231.227 266.499 231.442 266.329 231.737C266.159 232.027 266.074 232.4 266.074 232.855L265.369 232.57C265.359 231.995 265.477 231.492 265.722 231.062C265.972 230.627 266.312 230.29 266.742 230.05C267.172 229.81 267.657 229.69 268.197 229.69C269.042 229.69 269.707 229.947 270.192 230.463C270.677 230.972 270.919 231.66 270.919 232.525L270.912 238H269.577ZM259.887 238V229.9H261.079V232.067H261.229V238H259.887ZM264.739 238L264.747 232.87C264.747 232.25 264.587 231.765 264.267 231.415C263.947 231.06 263.522 230.882 262.992 230.882C262.467 230.882 262.042 231.062 261.717 231.422C261.392 231.782 261.229 232.26 261.229 232.855L260.524 232.435C260.524 231.91 260.649 231.44 260.899 231.025C261.149 230.61 261.489 230.285 261.919 230.05C262.349 229.81 262.837 229.69 263.382 229.69C263.927 229.69 264.402 229.805 264.807 230.035C265.212 230.265 265.524 230.595 265.744 231.025C265.964 231.45 266.074 231.957 266.074 232.547L266.067 238H264.739ZM280.316 238.225C279.241 238.225 278.328 237.987 277.578 237.512C276.828 237.037 276.256 236.377 275.861 235.532C275.471 234.687 275.276 233.71 275.276 232.6C275.276 231.49 275.471 230.512 275.861 229.667C276.256 228.822 276.828 228.162 277.578 227.687C278.328 227.212 279.241 226.975 280.316 226.975C281.566 226.975 282.593 227.292 283.398 227.927C284.208 228.562 284.766 229.417 285.071 230.492L283.713 230.852C283.493 230.047 283.101 229.412 282.536 228.947C281.971 228.482 281.231 228.25 280.316 228.25C279.511 228.25 278.841 228.432 278.306 228.797C277.771 229.162 277.368 229.672 277.098 230.327C276.828 230.977 276.691 231.735 276.686 232.6C276.681 233.46 276.813 234.217 277.083 234.872C277.353 235.522 277.758 236.032 278.298 236.402C278.838 236.767 279.511 236.95 280.316 236.95C281.231 236.95 281.971 236.717 282.536 236.252C283.101 235.782 283.493 235.147 283.713 234.347L285.071 234.707C284.766 235.777 284.208 236.632 283.398 237.272C282.593 237.907 281.566 238.225 280.316 238.225ZM286.716 238V229.9H287.908V231.857L287.713 231.602C287.808 231.352 287.931 231.122 288.081 230.912C288.236 230.702 288.408 230.53 288.598 230.395C288.808 230.225 289.046 230.095 289.311 230.005C289.576 229.915 289.846 229.862 290.121 229.847C290.396 229.827 290.653 229.845 290.893 229.9V231.152C290.613 231.077 290.306 231.057 289.971 231.092C289.636 231.127 289.326 231.25 289.041 231.46C288.781 231.645 288.578 231.87 288.433 232.135C288.293 232.4 288.196 232.687 288.141 232.997C288.086 233.302 288.058 233.615 288.058 233.935V238H286.716ZM295.675 238.225C294.88 238.225 294.185 238.05 293.59 237.7C293 237.345 292.54 236.852 292.21 236.222C291.88 235.587 291.715 234.847 291.715 234.002C291.715 233.117 291.877 232.352 292.202 231.707C292.527 231.057 292.98 230.557 293.56 230.207C294.145 229.852 294.83 229.675 295.615 229.675C296.43 229.675 297.122 229.862 297.692 230.237C298.267 230.612 298.697 231.147 298.982 231.842C299.272 232.537 299.397 233.365 299.357 234.325H298.007V233.845C297.992 232.85 297.79 232.107 297.4 231.617C297.01 231.122 296.43 230.875 295.66 230.875C294.835 230.875 294.207 231.14 293.777 231.67C293.347 232.2 293.132 232.96 293.132 233.95C293.132 234.905 293.347 235.645 293.777 236.17C294.207 236.695 294.82 236.957 295.615 236.957C296.15 236.957 296.615 236.835 297.01 236.59C297.405 236.345 297.715 235.992 297.94 235.532L299.222 235.975C298.907 236.69 298.432 237.245 297.797 237.64C297.167 238.03 296.46 238.225 295.675 238.225ZM292.682 234.325V233.252H298.667V234.325H292.682ZM303.183 238.225C302.578 238.225 302.071 238.115 301.661 237.895C301.256 237.67 300.948 237.375 300.738 237.01C300.533 236.645 300.431 236.245 300.431 235.81C300.431 235.385 300.511 235.017 300.671 234.707C300.836 234.392 301.066 234.132 301.361 233.927C301.656 233.717 302.008 233.552 302.418 233.432C302.803 233.327 303.233 233.237 303.708 233.162C304.188 233.082 304.673 233.01 305.163 232.945C305.653 232.88 306.111 232.817 306.536 232.757L306.056 233.035C306.071 232.315 305.926 231.782 305.621 231.437C305.321 231.092 304.801 230.92 304.061 230.92C303.571 230.92 303.141 231.032 302.771 231.257C302.406 231.477 302.148 231.837 301.998 232.337L300.731 231.955C300.926 231.245 301.303 230.687 301.863 230.282C302.423 229.877 303.161 229.675 304.076 229.675C304.811 229.675 305.441 229.807 305.966 230.072C306.496 230.332 306.876 230.727 307.106 231.257C307.221 231.507 307.293 231.78 307.323 232.075C307.353 232.365 307.368 232.67 307.368 232.99V238H306.183V236.057L306.461 236.237C306.156 236.892 305.728 237.387 305.178 237.722C304.633 238.058 303.968 238.225 303.183 238.225ZM303.386 237.107C303.866 237.107 304.281 237.022 304.631 236.852C304.986 236.677 305.271 236.45 305.486 236.17C305.701 235.885 305.841 235.575 305.906 235.24C305.981 234.99 306.021 234.712 306.026 234.407C306.036 234.097 306.041 233.86 306.041 233.695L306.506 233.897C306.071 233.957 305.643 234.015 305.223 234.07C304.803 234.125 304.406 234.185 304.031 234.25C303.656 234.31 303.318 234.382 303.018 234.467C302.798 234.537 302.591 234.627 302.396 234.737C302.206 234.847 302.051 234.99 301.931 235.165C301.816 235.335 301.758 235.547 301.758 235.802C301.758 236.022 301.813 236.232 301.923 236.432C302.038 236.632 302.213 236.795 302.448 236.92C302.688 237.045 303.001 237.107 303.386 237.107ZM313.841 238C313.361 238.095 312.886 238.133 312.416 238.113C311.951 238.098 311.536 238.005 311.171 237.835C310.806 237.66 310.528 237.39 310.338 237.025C310.178 236.705 310.091 236.382 310.076 236.057C310.066 235.727 310.061 235.355 310.061 234.94V227.65H311.396V234.88C311.396 235.21 311.398 235.492 311.403 235.727C311.413 235.962 311.466 236.165 311.561 236.335C311.741 236.655 312.026 236.842 312.416 236.898C312.811 236.952 313.286 236.937 313.841 236.852V238ZM308.418 231.002V229.9H313.841V231.002H308.418ZM318.658 238.225C317.863 238.225 317.168 238.05 316.573 237.7C315.983 237.345 315.523 236.852 315.193 236.222C314.863 235.587 314.698 234.847 314.698 234.002C314.698 233.117 314.861 232.352 315.186 231.707C315.511 231.057 315.963 230.557 316.543 230.207C317.128 229.852 317.813 229.675 318.598 229.675C319.413 229.675 320.106 229.862 320.676 230.237C321.251 230.612 321.681 231.147 321.966 231.842C322.256 232.537 322.381 233.365 322.341 234.325H320.991V233.845C320.976 232.85 320.773 232.107 320.383 231.617C319.993 231.122 319.413 230.875 318.643 230.875C317.818 230.875 317.191 231.14 316.761 231.67C316.331 232.2 316.116 232.96 316.116 233.95C316.116 234.905 316.331 235.645 316.761 236.17C317.191 236.695 317.803 236.957 318.598 236.957C319.133 236.957 319.598 236.835 319.993 236.59C320.388 236.345 320.698 235.992 320.923 235.532L322.206 235.975C321.891 236.69 321.416 237.245 320.781 237.64C320.151 238.03 319.443 238.225 318.658 238.225ZM315.666 234.325V233.252H321.651V234.325H315.666ZM327.19 238.225C326.435 238.225 325.788 238.038 325.248 237.662C324.708 237.282 324.29 236.77 323.995 236.125C323.705 235.48 323.56 234.752 323.56 233.942C323.56 233.132 323.705 232.405 323.995 231.76C324.29 231.115 324.708 230.607 325.248 230.237C325.788 229.862 326.433 229.675 327.183 229.675C327.948 229.675 328.59 229.86 329.11 230.23C329.63 230.6 330.023 231.107 330.288 231.752C330.558 232.397 330.693 233.127 330.693 233.942C330.693 234.747 330.558 235.475 330.288 236.125C330.023 236.77 329.63 237.282 329.11 237.662C328.59 238.038 327.95 238.225 327.19 238.225ZM327.355 237.002C327.9 237.002 328.348 236.872 328.698 236.612C329.048 236.347 329.305 235.985 329.47 235.525C329.64 235.06 329.725 234.532 329.725 233.942C329.725 233.342 329.64 232.815 329.47 232.36C329.305 231.9 329.05 231.542 328.705 231.287C328.36 231.027 327.923 230.897 327.393 230.897C326.843 230.897 326.388 231.032 326.028 231.302C325.673 231.572 325.408 231.937 325.233 232.397C325.063 232.857 324.978 233.372 324.978 233.942C324.978 234.517 325.065 235.037 325.24 235.502C325.415 235.962 325.678 236.327 326.028 236.597C326.383 236.867 326.825 237.002 327.355 237.002ZM329.725 238V232.037H329.575V227.2H330.918V238H329.725ZM340.545 238C340.065 238.095 339.59 238.133 339.12 238.113C338.655 238.098 338.24 238.005 337.875 237.835C337.51 237.66 337.232 237.39 337.042 237.025C336.882 236.705 336.795 236.382 336.78 236.057C336.77 235.727 336.765 235.355 336.765 234.94V227.65H338.1V234.88C338.1 235.21 338.102 235.492 338.107 235.727C338.117 235.962 338.17 236.165 338.265 236.335C338.445 236.655 338.73 236.842 339.12 236.898C339.515 236.952 339.99 236.937 340.545 236.852V238ZM335.122 231.002V229.9H340.545V231.002H335.122ZM345.302 238.225C344.497 238.225 343.802 238.043 343.217 237.677C342.637 237.312 342.19 236.807 341.875 236.162C341.56 235.517 341.402 234.777 341.402 233.942C341.402 233.092 341.562 232.347 341.882 231.707C342.202 231.067 342.655 230.57 343.24 230.215C343.825 229.855 344.512 229.675 345.302 229.675C346.112 229.675 346.81 229.857 347.395 230.222C347.98 230.582 348.427 231.085 348.737 231.73C349.052 232.37 349.21 233.107 349.21 233.942C349.21 234.787 349.052 235.532 348.737 236.177C348.422 236.817 347.972 237.32 347.387 237.685C346.802 238.045 346.107 238.225 345.302 238.225ZM345.302 236.957C346.142 236.957 346.767 236.677 347.177 236.117C347.587 235.557 347.792 234.832 347.792 233.942C347.792 233.027 347.585 232.3 347.17 231.76C346.755 231.215 346.132 230.942 345.302 230.942C344.737 230.942 344.272 231.07 343.907 231.325C343.542 231.58 343.27 231.932 343.09 232.382C342.91 232.832 342.82 233.352 342.82 233.942C342.82 234.852 343.03 235.582 343.45 236.132C343.87 236.682 344.487 236.957 345.302 236.957ZM354.014 238V227.2H355.349V238H354.014ZM367.282 238L367.289 232.817C367.289 232.212 367.127 231.74 366.802 231.4C366.482 231.055 366.064 230.882 365.549 230.882C365.249 230.882 364.964 230.952 364.694 231.092C364.424 231.227 364.204 231.442 364.034 231.737C363.864 232.027 363.779 232.4 363.779 232.855L363.074 232.57C363.064 231.995 363.182 231.492 363.427 231.062C363.677 230.627 364.017 230.29 364.447 230.05C364.877 229.81 365.362 229.69 365.902 229.69C366.747 229.69 367.412 229.947 367.897 230.463C368.382 230.972 368.624 231.66 368.624 232.525L368.617 238H367.282ZM357.592 238V229.9H358.784V232.067H358.934V238H357.592ZM362.444 238L362.452 232.87C362.452 232.25 362.292 231.765 361.972 231.415C361.652 231.06 361.227 230.882 360.697 230.882C360.172 230.882 359.747 231.062 359.422 231.422C359.097 231.782 358.934 232.26 358.934 232.855L358.229 232.435C358.229 231.91 358.354 231.44 358.604 231.025C358.854 230.61 359.194 230.285 359.624 230.05C360.054 229.81 360.542 229.69 361.087 229.69C361.632 229.69 362.107 229.805 362.512 230.035C362.917 230.265 363.229 230.595 363.449 231.025C363.669 231.45 363.779 231.957 363.779 232.547L363.772 238H362.444ZM374.298 238.225C373.538 238.225 372.898 238.038 372.378 237.662C371.858 237.282 371.463 236.77 371.193 236.125C370.928 235.475 370.795 234.747 370.795 233.942C370.795 233.127 370.928 232.397 371.193 231.752C371.463 231.107 371.858 230.6 372.378 230.23C372.903 229.86 373.545 229.675 374.305 229.675C375.055 229.675 375.7 229.862 376.24 230.237C376.785 230.607 377.203 231.115 377.493 231.76C377.783 232.405 377.928 233.132 377.928 233.942C377.928 234.752 377.783 235.48 377.493 236.125C377.203 236.77 376.785 237.282 376.24 237.662C375.7 238.038 375.053 238.225 374.298 238.225ZM370.57 241.6V229.9H371.763V235.862H371.913V241.6H370.57ZM374.133 237.002C374.668 237.002 375.11 236.867 375.46 236.597C375.81 236.327 376.073 235.962 376.248 235.502C376.423 235.037 376.51 234.517 376.51 233.942C376.51 233.372 376.423 232.857 376.248 232.397C376.078 231.937 375.813 231.572 375.453 231.302C375.098 231.032 374.645 230.897 374.095 230.897C373.57 230.897 373.135 231.027 372.79 231.287C372.445 231.542 372.188 231.9 372.018 232.36C371.848 232.815 371.763 233.342 371.763 233.942C371.763 234.532 371.845 235.06 372.01 235.525C372.18 235.985 372.44 236.347 372.79 236.612C373.14 236.872 373.588 237.002 374.133 237.002ZM379.572 238V229.9H380.764V231.857L380.569 231.602C380.664 231.352 380.787 231.122 380.937 230.912C381.092 230.702 381.264 230.53 381.454 230.395C381.664 230.225 381.902 230.095 382.167 230.005C382.432 229.915 382.702 229.862 382.977 229.847C383.252 229.827 383.509 229.845 383.749 229.9V231.152C383.469 231.077 383.162 231.057 382.827 231.092C382.492 231.127 382.182 231.25 381.897 231.46C381.637 231.645 381.434 231.87 381.289 232.135C381.149 232.4 381.052 232.687 380.997 232.997C380.942 233.302 380.914 233.615 380.914 233.935V238H379.572ZM388.471 238.225C387.666 238.225 386.971 238.043 386.386 237.677C385.806 237.312 385.359 236.807 385.044 236.162C384.729 235.517 384.571 234.777 384.571 233.942C384.571 233.092 384.731 232.347 385.051 231.707C385.371 231.067 385.824 230.57 386.409 230.215C386.994 229.855 387.681 229.675 388.471 229.675C389.281 229.675 389.979 229.857 390.564 230.222C391.149 230.582 391.596 231.085 391.906 231.73C392.221 232.37 392.379 233.107 392.379 233.942C392.379 234.787 392.221 235.532 391.906 236.177C391.591 236.817 391.141 237.32 390.556 237.685C389.971 238.045 389.276 238.225 388.471 238.225ZM388.471 236.957C389.311 236.957 389.936 236.677 390.346 236.117C390.756 235.557 390.961 234.832 390.961 233.942C390.961 233.027 390.754 232.3 390.339 231.76C389.924 231.215 389.301 230.942 388.471 230.942C387.906 230.942 387.441 231.07 387.076 231.325C386.711 231.58 386.439 231.932 386.259 232.382C386.079 232.832 385.989 233.352 385.989 233.942C385.989 234.852 386.199 235.582 386.619 236.132C387.039 236.682 387.656 236.957 388.471 236.957ZM395.927 238L392.987 229.9H394.337L396.61 236.297L398.875 229.9H400.232L397.292 238H395.927ZM404.806 238.225C404.011 238.225 403.316 238.05 402.721 237.7C402.131 237.345 401.671 236.852 401.341 236.222C401.011 235.587 400.846 234.847 400.846 234.002C400.846 233.117 401.008 232.352 401.333 231.707C401.658 231.057 402.111 230.557 402.691 230.207C403.276 229.852 403.961 229.675 404.746 229.675C405.561 229.675 406.253 229.862 406.823 230.237C407.398 230.612 407.828 231.147 408.113 231.842C408.403 232.537 408.528 233.365 408.488 234.325H407.138V233.845C407.123 232.85 406.921 232.107 406.531 231.617C406.141 231.122 405.561 230.875 404.791 230.875C403.966 230.875 403.338 231.14 402.908 231.67C402.478 232.2 402.263 232.96 402.263 233.95C402.263 234.905 402.478 235.645 402.908 236.17C403.338 236.695 403.951 236.957 404.746 236.957C405.281 236.957 405.746 236.835 406.141 236.59C406.536 236.345 406.846 235.992 407.071 235.532L408.353 235.975C408.038 236.69 407.563 237.245 406.928 237.64C406.298 238.03 405.591 238.225 404.806 238.225ZM401.813 234.325V233.252H407.798V234.325H401.813ZM417.683 238C417.203 238.095 416.728 238.133 416.258 238.113C415.793 238.098 415.378 238.005 415.013 237.835C414.648 237.66 414.371 237.39 414.181 237.025C414.021 236.705 413.933 236.382 413.918 236.057C413.908 235.727 413.903 235.355 413.903 234.94V227.65H415.238V234.88C415.238 235.21 415.241 235.492 415.246 235.727C415.256 235.962 415.308 236.165 415.403 236.335C415.583 236.655 415.868 236.842 416.258 236.898C416.653 236.952 417.128 236.937 417.683 236.852V238ZM412.261 231.002V229.9H417.683V231.002H412.261ZM425.095 238V233.942C425.095 233.557 425.06 233.187 424.99 232.832C424.925 232.477 424.808 232.16 424.638 231.88C424.473 231.595 424.248 231.37 423.963 231.205C423.683 231.04 423.328 230.957 422.898 230.957C422.563 230.957 422.258 231.015 421.983 231.13C421.713 231.24 421.48 231.41 421.285 231.64C421.09 231.87 420.938 232.16 420.828 232.51C420.723 232.855 420.67 233.262 420.67 233.732L419.793 233.462C419.793 232.677 419.933 232.005 420.213 231.445C420.498 230.88 420.895 230.447 421.405 230.147C421.92 229.842 422.525 229.69 423.22 229.69C423.745 229.69 424.193 229.772 424.563 229.937C424.933 230.102 425.24 230.322 425.485 230.597C425.73 230.867 425.923 231.172 426.063 231.512C426.203 231.847 426.3 232.19 426.355 232.54C426.415 232.885 426.445 233.212 426.445 233.522V238H425.095ZM419.32 238V227.2H420.52V233.162H420.67V238H419.32ZM431.905 238.225C431.11 238.225 430.415 238.05 429.82 237.7C429.23 237.345 428.77 236.852 428.44 236.222C428.11 235.587 427.945 234.847 427.945 234.002C427.945 233.117 428.108 232.352 428.433 231.707C428.758 231.057 429.21 230.557 429.79 230.207C430.375 229.852 431.06 229.675 431.845 229.675C432.66 229.675 433.353 229.862 433.923 230.237C434.498 230.612 434.928 231.147 435.213 231.842C435.503 232.537 435.628 233.365 435.588 234.325H434.238V233.845C434.223 232.85 434.02 232.107 433.63 231.617C433.24 231.122 432.66 230.875 431.89 230.875C431.065 230.875 430.438 231.14 430.008 231.67C429.578 232.2 429.363 232.96 429.363 233.95C429.363 234.905 429.578 235.645 430.008 236.17C430.438 236.695 431.05 236.957 431.845 236.957C432.38 236.957 432.845 236.835 433.24 236.59C433.635 236.345 433.945 235.992 434.17 235.532L435.453 235.975C435.138 236.69 434.663 237.245 434.028 237.64C433.398 238.03 432.69 238.225 431.905 238.225ZM428.913 234.325V233.252H434.898V234.325H428.913ZM443.77 238.225C442.975 238.225 442.28 238.05 441.685 237.7C441.095 237.345 440.635 236.852 440.305 236.222C439.975 235.587 439.81 234.847 439.81 234.002C439.81 233.117 439.973 232.352 440.298 231.707C440.623 231.057 441.075 230.557 441.655 230.207C442.24 229.852 442.925 229.675 443.71 229.675C444.525 229.675 445.218 229.862 445.788 230.237C446.363 230.612 446.793 231.147 447.078 231.842C447.368 232.537 447.493 233.365 447.453 234.325H446.103V233.845C446.088 232.85 445.885 232.107 445.495 231.617C445.105 231.122 444.525 230.875 443.755 230.875C442.93 230.875 442.303 231.14 441.873 231.67C441.443 232.2 441.228 232.96 441.228 233.95C441.228 234.905 441.443 235.645 441.873 236.17C442.303 236.695 442.915 236.957 443.71 236.957C444.245 236.957 444.71 236.835 445.105 236.59C445.5 236.345 445.81 235.992 446.035 235.532L447.318 235.975C447.003 236.69 446.528 237.245 445.893 237.64C445.263 238.03 444.555 238.225 443.77 238.225ZM440.778 234.325V233.252H446.763V234.325H440.778ZM451.02 238L448.08 229.9H449.43L451.702 236.297L453.967 229.9H455.325L452.385 238H451.02ZM459.898 238.225C459.103 238.225 458.408 238.05 457.813 237.7C457.223 237.345 456.763 236.852 456.433 236.222C456.103 235.587 455.938 234.847 455.938 234.002C455.938 233.117 456.101 232.352 456.426 231.707C456.751 231.057 457.203 230.557 457.783 230.207C458.368 229.852 459.053 229.675 459.838 229.675C460.653 229.675 461.346 229.862 461.916 230.237C462.491 230.612 462.921 231.147 463.206 231.842C463.496 232.537 463.621 233.365 463.581 234.325H462.231V233.845C462.216 232.85 462.013 232.107 461.623 231.617C461.233 231.122 460.653 230.875 459.883 230.875C459.058 230.875 458.431 231.14 458.001 231.67C457.571 232.2 457.356 232.96 457.356 233.95C457.356 234.905 457.571 235.645 458.001 236.17C458.431 236.695 459.043 236.957 459.838 236.957C460.373 236.957 460.838 236.835 461.233 236.59C461.628 236.345 461.938 235.992 462.163 235.532L463.446 235.975C463.131 236.69 462.656 237.245 462.021 237.64C461.391 238.03 460.683 238.225 459.898 238.225ZM456.906 234.325V233.252H462.891V234.325H456.906ZM470.798 238V233.942C470.798 233.557 470.763 233.187 470.693 232.832C470.628 232.477 470.511 232.16 470.341 231.88C470.176 231.595 469.951 231.37 469.666 231.205C469.386 231.04 469.031 230.957 468.601 230.957C468.266 230.957 467.961 231.015 467.686 231.13C467.416 231.24 467.183 231.41 466.988 231.64C466.793 231.87 466.641 232.16 466.531 232.51C466.426 232.855 466.373 233.262 466.373 233.732L465.496 233.462C465.496 232.677 465.636 232.005 465.916 231.445C466.201 230.88 466.598 230.447 467.108 230.147C467.623 229.842 468.228 229.69 468.923 229.69C469.448 229.69 469.896 229.772 470.266 229.937C470.636 230.102 470.943 230.322 471.188 230.597C471.433 230.867 471.626 231.172 471.766 231.512C471.906 231.847 472.003 232.19 472.058 232.54C472.118 232.885 472.148 233.212 472.148 233.522V238H470.798ZM465.023 238V229.9H466.223V232.067H466.373V238H465.023ZM478.621 238C478.141 238.095 477.666 238.133 477.196 238.113C476.731 238.098 476.316 238.005 475.951 237.835C475.586 237.66 475.308 237.39 475.118 237.025C474.958 236.705 474.871 236.382 474.856 236.057C474.846 235.727 474.841 235.355 474.841 234.94V227.65H476.176V234.88C476.176 235.21 476.178 235.492 476.183 235.727C476.193 235.962 476.246 236.165 476.341 236.335C476.521 236.655 476.806 236.842 477.196 236.898C477.591 236.952 478.066 236.937 478.621 236.852V238ZM473.198 231.002V229.9H478.621V231.002H473.198ZM492.951 238L492.958 232.817C492.958 232.212 492.796 231.74 492.471 231.4C492.151 231.055 491.733 230.882 491.218 230.882C490.918 230.882 490.633 230.952 490.363 231.092C490.093 231.227 489.873 231.442 489.703 231.737C489.533 232.027 489.448 232.4 489.448 232.855L488.743 232.57C488.733 231.995 488.851 231.492 489.096 231.062C489.346 230.627 489.686 230.29 490.116 230.05C490.546 229.81 491.031 229.69 491.571 229.69C492.416 229.69 493.081 229.947 493.566 230.463C494.051 230.972 494.293 231.66 494.293 232.525L494.286 238H492.951ZM483.261 238V229.9H484.453V232.067H484.603V238H483.261ZM488.113 238L488.121 232.87C488.121 232.25 487.961 231.765 487.641 231.415C487.321 231.06 486.896 230.882 486.366 230.882C485.841 230.882 485.416 231.062 485.091 231.422C484.766 231.782 484.603 232.26 484.603 232.855L483.898 232.435C483.898 231.91 484.023 231.44 484.273 231.025C484.523 230.61 484.863 230.285 485.293 230.05C485.723 229.81 486.211 229.69 486.756 229.69C487.301 229.69 487.776 229.805 488.181 230.035C488.586 230.265 488.898 230.595 489.118 231.025C489.338 231.45 489.448 231.957 489.448 232.547L489.441 238H488.113ZM498.549 238.225C497.944 238.225 497.437 238.115 497.027 237.895C496.622 237.67 496.314 237.375 496.104 237.01C495.899 236.645 495.797 236.245 495.797 235.81C495.797 235.385 495.877 235.017 496.037 234.707C496.202 234.392 496.432 234.132 496.727 233.927C497.022 233.717 497.374 233.552 497.784 233.432C498.169 233.327 498.599 233.237 499.074 233.162C499.554 233.082 500.039 233.01 500.529 232.945C501.019 232.88 501.477 232.817 501.902 232.757L501.422 233.035C501.437 232.315 501.292 231.782 500.987 231.437C500.687 231.092 500.167 230.92 499.427 230.92C498.937 230.92 498.507 231.032 498.137 231.257C497.772 231.477 497.514 231.837 497.364 232.337L496.097 231.955C496.292 231.245 496.669 230.687 497.229 230.282C497.789 229.877 498.527 229.675 499.442 229.675C500.177 229.675 500.807 229.807 501.332 230.072C501.862 230.332 502.242 230.727 502.472 231.257C502.587 231.507 502.659 231.78 502.689 232.075C502.719 232.365 502.734 232.67 502.734 232.99V238H501.549V236.057L501.827 236.237C501.522 236.892 501.094 237.387 500.544 237.722C499.999 238.058 499.334 238.225 498.549 238.225ZM498.752 237.107C499.232 237.107 499.647 237.022 499.997 236.852C500.352 236.677 500.637 236.45 500.852 236.17C501.067 235.885 501.207 235.575 501.272 235.24C501.347 234.99 501.387 234.712 501.392 234.407C501.402 234.097 501.407 233.86 501.407 233.695L501.872 233.897C501.437 233.957 501.009 234.015 500.589 234.07C500.169 234.125 499.772 234.185 499.397 234.25C499.022 234.31 498.684 234.382 498.384 234.467C498.164 234.537 497.957 234.627 497.762 234.737C497.572 234.847 497.417 234.99 497.297 235.165C497.182 235.335 497.124 235.547 497.124 235.802C497.124 236.022 497.179 236.232 497.289 236.432C497.404 236.632 497.579 236.795 497.814 236.92C498.054 237.045 498.367 237.107 498.752 237.107ZM510.452 238V233.942C510.452 233.557 510.417 233.187 510.347 232.832C510.282 232.477 510.164 232.16 509.994 231.88C509.829 231.595 509.604 231.37 509.319 231.205C509.039 231.04 508.684 230.957 508.254 230.957C507.919 230.957 507.614 231.015 507.339 231.13C507.069 231.24 506.837 231.41 506.642 231.64C506.447 231.87 506.294 232.16 506.184 232.51C506.079 232.855 506.027 233.262 506.027 233.732L505.149 233.462C505.149 232.677 505.289 232.005 505.569 231.445C505.854 230.88 506.252 230.447 506.762 230.147C507.277 229.842 507.882 229.69 508.577 229.69C509.102 229.69 509.549 229.772 509.919 229.937C510.289 230.102 510.597 230.322 510.842 230.597C511.087 230.867 511.279 231.172 511.419 231.512C511.559 231.847 511.657 232.19 511.712 232.54C511.772 232.885 511.802 233.212 511.802 233.522V238H510.452ZM504.677 238V229.9H505.877V232.067H506.027V238H504.677ZM516.054 238.225C515.449 238.225 514.942 238.115 514.532 237.895C514.127 237.67 513.819 237.375 513.609 237.01C513.404 236.645 513.302 236.245 513.302 235.81C513.302 235.385 513.382 235.017 513.542 234.707C513.707 234.392 513.937 234.132 514.232 233.927C514.527 233.717 514.879 233.552 515.289 233.432C515.674 233.327 516.104 233.237 516.579 233.162C517.059 233.082 517.544 233.01 518.034 232.945C518.524 232.88 518.982 232.817 519.407 232.757L518.927 233.035C518.942 232.315 518.797 231.782 518.492 231.437C518.192 231.092 517.672 230.92 516.932 230.92C516.442 230.92 516.012 231.032 515.642 231.257C515.277 231.477 515.019 231.837 514.869 232.337L513.602 231.955C513.797 231.245 514.174 230.687 514.734 230.282C515.294 229.877 516.032 229.675 516.947 229.675C517.682 229.675 518.312 229.807 518.837 230.072C519.367 230.332 519.747 230.727 519.977 231.257C520.092 231.507 520.164 231.78 520.194 232.075C520.224 232.365 520.239 232.67 520.239 232.99V238H519.054V236.057L519.332 236.237C519.027 236.892 518.599 237.387 518.049 237.722C517.504 238.058 516.839 238.225 516.054 238.225ZM516.257 237.107C516.737 237.107 517.152 237.022 517.502 236.852C517.857 236.677 518.142 236.45 518.357 236.17C518.572 235.885 518.712 235.575 518.777 235.24C518.852 234.99 518.892 234.712 518.897 234.407C518.907 234.097 518.912 233.86 518.912 233.695L519.377 233.897C518.942 233.957 518.514 234.015 518.094 234.07C517.674 234.125 517.277 234.185 516.902 234.25C516.527 234.31 516.189 234.382 515.889 234.467C515.669 234.537 515.462 234.627 515.267 234.737C515.077 234.847 514.922 234.99 514.802 235.165C514.687 235.335 514.629 235.547 514.629 235.802C514.629 236.022 514.684 236.232 514.794 236.432C514.909 236.632 515.084 236.795 515.319 236.92C515.559 237.045 515.872 237.107 516.257 237.107ZM525.467 241.825C525.042 241.825 524.627 241.76 524.222 241.63C523.817 241.5 523.444 241.303 523.104 241.038C522.769 240.778 522.489 240.448 522.264 240.048L523.487 239.403C523.687 239.798 523.969 240.085 524.334 240.265C524.704 240.445 525.084 240.535 525.474 240.535C525.989 240.535 526.417 240.44 526.757 240.25C527.097 240.065 527.347 239.788 527.507 239.418C527.672 239.048 527.752 238.588 527.747 238.038V235.825H527.904V229.9H529.089V238.053C529.089 238.273 529.082 238.485 529.067 238.69C529.057 238.895 529.032 239.098 528.992 239.298C528.887 239.873 528.679 240.345 528.369 240.715C528.059 241.09 527.659 241.368 527.169 241.548C526.679 241.733 526.112 241.825 525.467 241.825ZM525.369 238.225C524.614 238.225 523.967 238.038 523.427 237.662C522.887 237.282 522.469 236.77 522.174 236.125C521.884 235.48 521.739 234.752 521.739 233.942C521.739 233.132 521.884 232.405 522.174 231.76C522.469 231.115 522.887 230.607 523.427 230.237C523.967 229.862 524.612 229.675 525.362 229.675C526.127 229.675 526.769 229.86 527.289 230.23C527.809 230.6 528.202 231.107 528.467 231.752C528.737 232.397 528.872 233.127 528.872 233.942C528.872 234.747 528.737 235.475 528.467 236.125C528.202 236.77 527.809 237.282 527.289 237.662C526.769 238.038 526.129 238.225 525.369 238.225ZM525.534 237.002C526.079 237.002 526.527 236.872 526.877 236.612C527.227 236.347 527.484 235.985 527.649 235.525C527.819 235.06 527.904 234.532 527.904 233.942C527.904 233.342 527.819 232.815 527.649 232.36C527.484 231.9 527.229 231.542 526.884 231.287C526.539 231.027 526.102 230.897 525.572 230.897C525.022 230.897 524.567 231.032 524.207 231.302C523.852 231.572 523.587 231.937 523.412 232.397C523.242 232.857 523.157 233.372 523.157 233.942C523.157 234.517 523.244 235.037 523.419 235.502C523.594 235.962 523.857 236.327 524.207 236.597C524.562 236.867 525.004 237.002 525.534 237.002ZM534.693 238.225C533.898 238.225 533.203 238.05 532.608 237.7C532.018 237.345 531.558 236.852 531.228 236.222C530.898 235.587 530.733 234.847 530.733 234.002C530.733 233.117 530.896 232.352 531.221 231.707C531.546 231.057 531.998 230.557 532.578 230.207C533.163 229.852 533.848 229.675 534.633 229.675C535.448 229.675 536.141 229.862 536.711 230.237C537.286 230.612 537.716 231.147 538.001 231.842C538.291 232.537 538.416 233.365 538.376 234.325H537.026V233.845C537.011 232.85 536.808 232.107 536.418 231.617C536.028 231.122 535.448 230.875 534.678 230.875C533.853 230.875 533.226 231.14 532.796 231.67C532.366 232.2 532.151 232.96 532.151 233.95C532.151 234.905 532.366 235.645 532.796 236.17C533.226 236.695 533.838 236.957 534.633 236.957C535.168 236.957 535.633 236.835 536.028 236.59C536.423 236.345 536.733 235.992 536.958 235.532L538.241 235.975C537.926 236.69 537.451 237.245 536.816 237.64C536.186 238.03 535.478 238.225 534.693 238.225ZM531.701 234.325V233.252H537.686V234.325H531.701ZM549.508 238L549.516 232.817C549.516 232.212 549.353 231.74 549.028 231.4C548.708 231.055 548.291 230.882 547.776 230.882C547.476 230.882 547.191 230.952 546.921 231.092C546.651 231.227 546.431 231.442 546.261 231.737C546.091 232.027 546.006 232.4 546.006 232.855L545.301 232.57C545.291 231.995 545.408 231.492 545.653 231.062C545.903 230.627 546.243 230.29 546.673 230.05C547.103 229.81 547.588 229.69 548.128 229.69C548.973 229.69 549.638 229.947 550.123 230.463C550.608 230.972 550.851 231.66 550.851 232.525L550.843 238H549.508ZM539.818 238V229.9H541.011V232.067H541.161V238H539.818ZM544.671 238L544.678 232.87C544.678 232.25 544.518 231.765 544.198 231.415C543.878 231.06 543.453 230.882 542.923 230.882C542.398 230.882 541.973 231.062 541.648 231.422C541.323 231.782 541.161 232.26 541.161 232.855L540.456 232.435C540.456 231.91 540.581 231.44 540.831 231.025C541.081 230.61 541.421 230.285 541.851 230.05C542.281 229.81 542.768 229.69 543.313 229.69C543.858 229.69 544.333 229.805 544.738 230.035C545.143 230.265 545.456 230.595 545.676 231.025C545.896 231.45 546.006 231.957 546.006 232.547L545.998 238H544.671ZM556.241 238.225C555.446 238.225 554.751 238.05 554.156 237.7C553.566 237.345 553.106 236.852 552.776 236.222C552.446 235.587 552.281 234.847 552.281 234.002C552.281 233.117 552.444 232.352 552.769 231.707C553.094 231.057 553.546 230.557 554.126 230.207C554.711 229.852 555.396 229.675 556.181 229.675C556.996 229.675 557.689 229.862 558.259 230.237C558.834 230.612 559.264 231.147 559.549 231.842C559.839 232.537 559.964 233.365 559.924 234.325H558.574V233.845C558.559 232.85 558.356 232.107 557.966 231.617C557.576 231.122 556.996 230.875 556.226 230.875C555.401 230.875 554.774 231.14 554.344 231.67C553.914 232.2 553.699 232.96 553.699 233.95C553.699 234.905 553.914 235.645 554.344 236.17C554.774 236.695 555.386 236.957 556.181 236.957C556.716 236.957 557.181 236.835 557.576 236.59C557.971 236.345 558.281 235.992 558.506 235.532L559.789 235.975C559.474 236.69 558.999 237.245 558.364 237.64C557.734 238.03 557.026 238.225 556.241 238.225ZM553.249 234.325V233.252H559.234V234.325H553.249ZM567.141 238V233.942C567.141 233.557 567.106 233.187 567.036 232.832C566.971 232.477 566.854 232.16 566.684 231.88C566.519 231.595 566.294 231.37 566.009 231.205C565.729 231.04 565.374 230.957 564.944 230.957C564.609 230.957 564.304 231.015 564.029 231.13C563.759 231.24 563.526 231.41 563.331 231.64C563.136 231.87 562.984 232.16 562.874 232.51C562.769 232.855 562.716 233.262 562.716 233.732L561.839 233.462C561.839 232.677 561.979 232.005 562.259 231.445C562.544 230.88 562.941 230.447 563.451 230.147C563.966 229.842 564.571 229.69 565.266 229.69C565.791 229.69 566.239 229.772 566.609 229.937C566.979 230.102 567.286 230.322 567.531 230.597C567.776 230.867 567.969 231.172 568.109 231.512C568.249 231.847 568.346 232.19 568.401 232.54C568.461 232.885 568.491 233.212 568.491 233.522V238H567.141ZM561.366 238V229.9H562.566V232.067H562.716V238H561.366ZM574.964 238C574.484 238.095 574.009 238.133 573.539 238.113C573.074 238.098 572.659 238.005 572.294 237.835C571.929 237.66 571.651 237.39 571.461 237.025C571.301 236.705 571.214 236.382 571.199 236.057C571.189 235.727 571.184 235.355 571.184 234.94V227.65H572.519V234.88C572.519 235.21 572.521 235.492 572.526 235.727C572.536 235.962 572.589 236.165 572.684 236.335C572.864 236.655 573.149 236.842 573.539 236.898C573.934 236.952 574.409 236.937 574.964 236.852V238ZM569.541 231.002V229.9H574.964V231.002H569.541ZM584.134 238C583.654 238.095 583.179 238.133 582.709 238.113C582.244 238.098 581.829 238.005 581.464 237.835C581.099 237.66 580.821 237.39 580.631 237.025C580.471 236.705 580.384 236.382 580.369 236.057C580.359 235.727 580.354 235.355 580.354 234.94V227.65H581.689V234.88C581.689 235.21 581.691 235.492 581.696 235.727C581.706 235.962 581.759 236.165 581.854 236.335C582.034 236.655 582.319 236.842 582.709 236.898C583.104 236.952 583.579 236.937 584.134 236.852V238ZM578.711 231.002V229.9H584.134V231.002H578.711ZM588.951 238.225C588.156 238.225 587.461 238.05 586.866 237.7C586.276 237.345 585.816 236.852 585.486 236.222C585.156 235.587 584.991 234.847 584.991 234.002C584.991 233.117 585.154 232.352 585.479 231.707C585.804 231.057 586.256 230.557 586.836 230.207C587.421 229.852 588.106 229.675 588.891 229.675C589.706 229.675 590.399 229.862 590.969 230.237C591.544 230.612 591.974 231.147 592.259 231.842C592.549 232.537 592.674 233.365 592.634 234.325H591.284V233.845C591.269 232.85 591.066 232.107 590.676 231.617C590.286 231.122 589.706 230.875 588.936 230.875C588.111 230.875 587.484 231.14 587.054 231.67C586.624 232.2 586.409 232.96 586.409 233.95C586.409 234.905 586.624 235.645 587.054 236.17C587.484 236.695 588.096 236.957 588.891 236.957C589.426 236.957 589.891 236.835 590.286 236.59C590.681 236.345 590.991 235.992 591.216 235.532L592.499 235.975C592.184 236.69 591.709 237.245 591.074 237.64C590.444 238.03 589.736 238.225 588.951 238.225ZM585.959 234.325V233.252H591.944V234.325H585.959ZM597.716 238.225C596.896 238.225 596.198 238.043 595.623 237.677C595.053 237.307 594.618 236.8 594.318 236.155C594.018 235.51 593.863 234.775 593.853 233.95C593.863 233.105 594.021 232.362 594.326 231.722C594.636 231.077 595.078 230.575 595.653 230.215C596.228 229.855 596.921 229.675 597.731 229.675C598.586 229.675 599.321 229.885 599.936 230.305C600.556 230.725 600.971 231.3 601.181 232.03L599.861 232.427C599.691 231.957 599.413 231.592 599.028 231.332C598.648 231.072 598.211 230.942 597.716 230.942C597.161 230.942 596.703 231.072 596.343 231.332C595.983 231.587 595.716 231.942 595.541 232.397C595.366 232.847 595.276 233.365 595.271 233.95C595.281 234.85 595.488 235.577 595.893 236.132C596.303 236.682 596.911 236.957 597.716 236.957C598.246 236.957 598.686 236.837 599.036 236.597C599.386 236.352 599.651 236 599.831 235.54L601.181 235.892C600.901 236.647 600.463 237.225 599.868 237.625C599.273 238.025 598.556 238.225 597.716 238.225ZM608.479 238V233.942C608.479 233.557 608.444 233.187 608.374 232.832C608.309 232.477 608.192 232.16 608.022 231.88C607.857 231.595 607.632 231.37 607.347 231.205C607.067 231.04 606.712 230.957 606.282 230.957C605.947 230.957 605.642 231.015 605.367 231.13C605.097 231.24 604.864 231.41 604.669 231.64C604.474 231.87 604.322 232.16 604.212 232.51C604.107 232.855 604.054 233.262 604.054 233.732L603.177 233.462C603.177 232.677 603.317 232.005 603.597 231.445C603.882 230.88 604.279 230.447 604.789 230.147C605.304 229.842 605.909 229.69 606.604 229.69C607.129 229.69 607.577 229.772 607.947 229.937C608.317 230.102 608.624 230.322 608.869 230.597C609.114 230.867 609.307 231.172 609.447 231.512C609.587 231.847 609.684 232.19 609.739 232.54C609.799 232.885 609.829 233.212 609.829 233.522V238H608.479ZM602.704 238V227.2H603.904V233.162H604.054V238H602.704ZM617.547 238V233.942C617.547 233.557 617.512 233.187 617.442 232.832C617.377 232.477 617.259 232.16 617.089 231.88C616.924 231.595 616.699 231.37 616.414 231.205C616.134 231.04 615.779 230.957 615.349 230.957C615.014 230.957 614.709 231.015 614.434 231.13C614.164 231.24 613.932 231.41 613.737 231.64C613.542 231.87 613.389 232.16 613.279 232.51C613.174 232.855 613.122 233.262 613.122 233.732L612.244 233.462C612.244 232.677 612.384 232.005 612.664 231.445C612.949 230.88 613.347 230.447 613.857 230.147C614.372 229.842 614.977 229.69 615.672 229.69C616.197 229.69 616.644 229.772 617.014 229.937C617.384 230.102 617.692 230.322 617.937 230.597C618.182 230.867 618.374 231.172 618.514 231.512C618.654 231.847 618.752 232.19 618.807 232.54C618.867 232.885 618.897 233.212 618.897 233.522V238H617.547ZM611.772 238V229.9H612.972V232.067H613.122V238H611.772ZM620.996 228.467V227.087H622.331V228.467H620.996ZM620.996 238V229.9H622.331V238H620.996ZM627.762 238.225C627.007 238.225 626.359 238.038 625.819 237.662C625.279 237.282 624.862 236.77 624.567 236.125C624.277 235.48 624.132 234.752 624.132 233.942C624.132 233.132 624.277 232.405 624.567 231.76C624.862 231.115 625.279 230.607 625.819 230.237C626.359 229.862 627.004 229.675 627.754 229.675C628.519 229.675 629.162 229.86 629.682 230.23C630.202 230.6 630.594 231.107 630.859 231.752C631.129 232.397 631.264 233.127 631.264 233.942C631.264 234.747 631.129 235.475 630.859 236.125C630.594 236.77 630.202 237.282 629.682 237.662C629.162 238.038 628.522 238.225 627.762 238.225ZM627.927 237.002C628.472 237.002 628.919 236.872 629.269 236.612C629.619 236.347 629.877 235.985 630.042 235.525C630.212 235.06 630.297 234.532 630.297 233.942C630.297 233.342 630.212 232.815 630.042 232.36C629.877 231.9 629.622 231.542 629.277 231.287C628.932 231.027 628.494 230.897 627.964 230.897C627.414 230.897 626.959 231.032 626.599 231.302C626.244 231.572 625.979 231.937 625.804 232.397C625.634 232.857 625.549 233.372 625.549 233.942C625.549 234.517 625.637 235.037 625.812 235.502C625.987 235.962 626.249 236.327 626.599 236.597C626.954 236.867 627.397 237.002 627.927 237.002ZM630.147 241.6V235.862H630.297V229.9H631.489V241.6H630.147ZM636.666 238.21C636.146 238.21 635.698 238.128 635.323 237.962C634.953 237.797 634.646 237.577 634.401 237.302C634.156 237.027 633.963 236.722 633.823 236.387C633.683 236.052 633.583 235.71 633.523 235.36C633.468 235.01 633.441 234.682 633.441 234.377V229.9H634.791V233.957C634.791 234.337 634.826 234.705 634.896 235.06C634.966 235.415 635.083 235.735 635.248 236.02C635.418 236.305 635.643 236.53 635.923 236.695C636.208 236.86 636.563 236.942 636.988 236.942C637.323 236.942 637.628 236.885 637.903 236.77C638.178 236.655 638.413 236.485 638.608 236.26C638.803 236.03 638.953 235.74 639.058 235.39C639.163 235.04 639.216 234.632 639.216 234.167L640.093 234.437C640.093 235.217 639.951 235.89 639.666 236.455C639.386 237.02 638.988 237.455 638.473 237.76C637.963 238.06 637.361 238.21 636.666 238.21ZM639.366 238V235.832H639.216V229.9H640.558V238H639.366ZM646.168 238.225C645.373 238.225 644.678 238.05 644.083 237.7C643.493 237.345 643.033 236.852 642.703 236.222C642.373 235.587 642.208 234.847 642.208 234.002C642.208 233.117 642.37 232.352 642.695 231.707C643.02 231.057 643.473 230.557 644.053 230.207C644.638 229.852 645.323 229.675 646.108 229.675C646.923 229.675 647.615 229.862 648.185 230.237C648.76 230.612 649.19 231.147 649.475 231.842C649.765 232.537 649.89 233.365 649.85 234.325H648.5V233.845C648.485 232.85 648.283 232.107 647.893 231.617C647.503 231.122 646.923 230.875 646.153 230.875C645.328 230.875 644.7 231.14 644.27 231.67C643.84 232.2 643.625 232.96 643.625 233.95C643.625 234.905 643.84 235.645 644.27 236.17C644.7 236.695 645.313 236.957 646.108 236.957C646.643 236.957 647.108 236.835 647.503 236.59C647.898 236.345 648.208 235.992 648.433 235.532L649.715 235.975C649.4 236.69 648.925 237.245 648.29 237.64C647.66 238.03 646.953 238.225 646.168 238.225ZM643.175 234.325V233.252H649.16V234.325H643.175ZM286.726 248.467V247.087H288.061V248.467H286.726ZM286.726 258V249.9H288.061V258H286.726ZM296.079 258V253.942C296.079 253.557 296.044 253.187 295.974 252.832C295.909 252.477 295.792 252.16 295.622 251.88C295.457 251.595 295.232 251.37 294.947 251.205C294.667 251.04 294.312 250.957 293.882 250.957C293.547 250.957 293.242 251.015 292.967 251.13C292.697 251.24 292.464 251.41 292.269 251.64C292.074 251.87 291.922 252.16 291.812 252.51C291.707 252.855 291.654 253.262 291.654 253.732L290.777 253.462C290.777 252.677 290.917 252.005 291.197 251.445C291.482 250.88 291.879 250.447 292.389 250.147C292.904 249.842 293.509 249.69 294.204 249.69C294.729 249.69 295.177 249.772 295.547 249.937C295.917 250.102 296.224 250.322 296.469 250.597C296.714 250.867 296.907 251.172 297.047 251.512C297.187 251.847 297.284 252.19 297.339 252.54C297.399 252.885 297.429 253.212 297.429 253.522V258H296.079ZM290.304 258V249.9H291.504V252.067H291.654V258H290.304ZM305.795 258.225C304.975 258.225 304.277 258.043 303.702 257.677C303.132 257.307 302.697 256.8 302.397 256.155C302.097 255.51 301.942 254.775 301.932 253.95C301.942 253.105 302.1 252.362 302.405 251.722C302.715 251.077 303.157 250.575 303.732 250.215C304.307 249.855 305 249.675 305.81 249.675C306.665 249.675 307.4 249.885 308.015 250.305C308.635 250.725 309.05 251.3 309.26 252.03L307.94 252.427C307.77 251.957 307.492 251.592 307.107 251.332C306.727 251.072 306.29 250.942 305.795 250.942C305.24 250.942 304.782 251.072 304.422 251.332C304.062 251.587 303.795 251.942 303.62 252.397C303.445 252.847 303.355 253.365 303.35 253.95C303.36 254.85 303.567 255.577 303.972 256.132C304.382 256.682 304.99 256.957 305.795 256.957C306.325 256.957 306.765 256.837 307.115 256.597C307.465 256.352 307.73 256 307.91 255.54L309.26 255.892C308.98 256.647 308.542 257.225 307.947 257.625C307.352 258.025 306.635 258.225 305.795 258.225ZM314.021 258.225C313.216 258.225 312.521 258.043 311.936 257.677C311.356 257.312 310.908 256.807 310.593 256.162C310.278 255.517 310.121 254.777 310.121 253.942C310.121 253.092 310.281 252.347 310.601 251.707C310.921 251.067 311.373 250.57 311.958 250.215C312.543 249.855 313.231 249.675 314.021 249.675C314.831 249.675 315.528 249.857 316.113 250.222C316.698 250.582 317.146 251.085 317.456 251.73C317.771 252.37 317.928 253.107 317.928 253.942C317.928 254.787 317.771 255.532 317.456 256.177C317.141 256.817 316.691 257.32 316.106 257.685C315.521 258.045 314.826 258.225 314.021 258.225ZM314.021 256.957C314.861 256.957 315.486 256.677 315.896 256.117C316.306 255.557 316.511 254.832 316.511 253.942C316.511 253.027 316.303 252.3 315.888 251.76C315.473 251.215 314.851 250.942 314.021 250.942C313.456 250.942 312.991 251.07 312.626 251.325C312.261 251.58 311.988 251.932 311.808 252.382C311.628 252.832 311.538 253.352 311.538 253.942C311.538 254.852 311.748 255.582 312.168 256.132C312.588 256.682 313.206 256.957 314.021 256.957ZM319.729 258V246.975H321.064V258H319.729ZM323.465 258V246.975H324.8V258H323.465ZM330.56 258.225C329.765 258.225 329.07 258.05 328.475 257.7C327.885 257.345 327.425 256.852 327.095 256.222C326.765 255.587 326.6 254.847 326.6 254.002C326.6 253.117 326.763 252.352 327.088 251.707C327.413 251.057 327.865 250.557 328.445 250.207C329.03 249.852 329.715 249.675 330.5 249.675C331.315 249.675 332.008 249.862 332.578 250.237C333.153 250.612 333.583 251.147 333.868 251.842C334.158 252.537 334.283 253.365 334.243 254.325H332.893V253.845C332.878 252.85 332.675 252.107 332.285 251.617C331.895 251.122 331.315 250.875 330.545 250.875C329.72 250.875 329.093 251.14 328.663 251.67C328.233 252.2 328.018 252.96 328.018 253.95C328.018 254.905 328.233 255.645 328.663 256.17C329.093 256.695 329.705 256.957 330.5 256.957C331.035 256.957 331.5 256.835 331.895 256.59C332.29 256.345 332.6 255.992 332.825 255.532L334.108 255.975C333.793 256.69 333.318 257.245 332.683 257.64C332.053 258.03 331.345 258.225 330.56 258.225ZM327.568 254.325V253.252H333.553V254.325H327.568ZM339.19 261.825C338.765 261.825 338.35 261.76 337.945 261.63C337.54 261.5 337.167 261.303 336.827 261.038C336.492 260.778 336.212 260.448 335.987 260.048L337.21 259.403C337.41 259.798 337.692 260.085 338.057 260.265C338.427 260.445 338.807 260.535 339.197 260.535C339.712 260.535 340.14 260.44 340.48 260.25C340.82 260.065 341.07 259.788 341.23 259.418C341.395 259.048 341.475 258.588 341.47 258.038V255.825H341.627V249.9H342.812V258.053C342.812 258.273 342.805 258.485 342.79 258.69C342.78 258.895 342.755 259.098 342.715 259.298C342.61 259.873 342.402 260.345 342.092 260.715C341.782 261.09 341.382 261.368 340.892 261.548C340.402 261.733 339.835 261.825 339.19 261.825ZM339.092 258.225C338.337 258.225 337.69 258.038 337.15 257.662C336.61 257.282 336.192 256.77 335.897 256.125C335.607 255.48 335.462 254.752 335.462 253.942C335.462 253.132 335.607 252.405 335.897 251.76C336.192 251.115 336.61 250.607 337.15 250.237C337.69 249.862 338.335 249.675 339.085 249.675C339.85 249.675 340.492 249.86 341.012 250.23C341.532 250.6 341.925 251.107 342.19 251.752C342.46 252.397 342.595 253.127 342.595 253.942C342.595 254.747 342.46 255.475 342.19 256.125C341.925 256.77 341.532 257.282 341.012 257.662C340.492 258.038 339.852 258.225 339.092 258.225ZM339.257 257.002C339.802 257.002 340.25 256.872 340.6 256.612C340.95 256.347 341.207 255.985 341.372 255.525C341.542 255.06 341.627 254.532 341.627 253.942C341.627 253.342 341.542 252.815 341.372 252.36C341.207 251.9 340.952 251.542 340.607 251.287C340.262 251.027 339.825 250.897 339.295 250.897C338.745 250.897 338.29 251.032 337.93 251.302C337.575 251.572 337.31 251.937 337.135 252.397C336.965 252.857 336.88 253.372 336.88 253.942C336.88 254.517 336.967 255.037 337.142 255.502C337.317 255.962 337.58 256.327 337.93 256.597C338.285 256.867 338.727 257.002 339.257 257.002ZM348.416 258.225C347.621 258.225 346.926 258.05 346.331 257.7C345.741 257.345 345.281 256.852 344.951 256.222C344.621 255.587 344.456 254.847 344.456 254.002C344.456 253.117 344.619 252.352 344.944 251.707C345.269 251.057 345.721 250.557 346.301 250.207C346.886 249.852 347.571 249.675 348.356 249.675C349.171 249.675 349.864 249.862 350.434 250.237C351.009 250.612 351.439 251.147 351.724 251.842C352.014 252.537 352.139 253.365 352.099 254.325H350.749V253.845C350.734 252.85 350.531 252.107 350.141 251.617C349.751 251.122 349.171 250.875 348.401 250.875C347.576 250.875 346.949 251.14 346.519 251.67C346.089 252.2 345.874 252.96 345.874 253.95C345.874 254.905 346.089 255.645 346.519 256.17C346.949 256.695 347.561 256.957 348.356 256.957C348.891 256.957 349.356 256.835 349.751 256.59C350.146 256.345 350.456 255.992 350.681 255.532L351.964 255.975C351.649 256.69 351.174 257.245 350.539 257.64C349.909 258.03 349.201 258.225 348.416 258.225ZM345.424 254.325V253.252H351.409V254.325H345.424ZM359.832 258.218C358.867 258.218 358.074 258.007 357.454 257.587C356.839 257.162 356.462 256.57 356.322 255.81L357.687 255.592C357.797 256.032 358.049 256.382 358.444 256.642C358.839 256.897 359.329 257.025 359.914 257.025C360.469 257.025 360.904 256.91 361.219 256.68C361.534 256.45 361.692 256.137 361.692 255.742C361.692 255.512 361.639 255.327 361.534 255.187C361.429 255.042 361.212 254.907 360.882 254.782C360.557 254.657 360.064 254.507 359.404 254.332C358.689 254.142 358.127 253.945 357.717 253.74C357.307 253.535 357.014 253.297 356.839 253.027C356.664 252.757 356.577 252.43 356.577 252.045C356.577 251.57 356.707 251.155 356.967 250.8C357.227 250.44 357.589 250.162 358.054 249.967C358.524 249.772 359.069 249.675 359.689 249.675C360.304 249.675 360.854 249.772 361.339 249.967C361.824 250.162 362.214 250.44 362.509 250.8C362.809 251.155 362.987 251.57 363.042 252.045L361.677 252.292C361.612 251.857 361.402 251.515 361.047 251.265C360.697 251.015 360.244 250.882 359.689 250.867C359.164 250.847 358.737 250.94 358.407 251.145C358.082 251.35 357.919 251.627 357.919 251.977C357.919 252.172 357.979 252.34 358.099 252.48C358.224 252.62 358.452 252.752 358.782 252.877C359.117 253.002 359.602 253.145 360.237 253.305C360.952 253.485 361.514 253.682 361.924 253.897C362.339 254.107 362.634 254.357 362.809 254.647C362.984 254.932 363.072 255.285 363.072 255.705C363.072 256.485 362.784 257.1 362.209 257.55C361.634 257.995 360.842 258.218 359.832 258.218ZM368.176 258.225C367.371 258.225 366.676 258.043 366.091 257.677C365.511 257.312 365.063 256.807 364.748 256.162C364.433 255.517 364.276 254.777 364.276 253.942C364.276 253.092 364.436 252.347 364.756 251.707C365.076 251.067 365.528 250.57 366.113 250.215C366.698 249.855 367.386 249.675 368.176 249.675C368.986 249.675 369.683 249.857 370.268 250.222C370.853 250.582 371.301 251.085 371.611 251.73C371.926 252.37 372.083 253.107 372.083 253.942C372.083 254.787 371.926 255.532 371.611 256.177C371.296 256.817 370.846 257.32 370.261 257.685C369.676 258.045 368.981 258.225 368.176 258.225ZM368.176 256.957C369.016 256.957 369.641 256.677 370.051 256.117C370.461 255.557 370.666 254.832 370.666 253.942C370.666 253.027 370.458 252.3 370.043 251.76C369.628 251.215 369.006 250.942 368.176 250.942C367.611 250.942 367.146 251.07 366.781 251.325C366.416 251.58 366.143 251.932 365.963 252.382C365.783 252.832 365.693 253.352 365.693 253.942C365.693 254.852 365.903 255.582 366.323 256.132C366.743 256.682 367.361 256.957 368.176 256.957ZM381.26 258C380.78 258.095 380.305 258.133 379.835 258.113C379.37 258.098 378.955 258.005 378.59 257.835C378.225 257.66 377.948 257.39 377.758 257.025C377.598 256.705 377.51 256.382 377.495 256.057C377.485 255.727 377.48 255.355 377.48 254.94V247.65H378.815V254.88C378.815 255.21 378.818 255.492 378.823 255.727C378.833 255.962 378.885 256.165 378.98 256.335C379.16 256.655 379.445 256.842 379.835 256.898C380.23 256.952 380.705 256.937 381.26 256.852V258ZM375.838 251.002V249.9H381.26V251.002H375.838ZM388.672 258V253.942C388.672 253.557 388.637 253.187 388.567 252.832C388.502 252.477 388.384 252.16 388.214 251.88C388.049 251.595 387.824 251.37 387.539 251.205C387.259 251.04 386.904 250.957 386.474 250.957C386.139 250.957 385.834 251.015 385.559 251.13C385.289 251.24 385.057 251.41 384.862 251.64C384.667 251.87 384.514 252.16 384.404 252.51C384.299 252.855 384.247 253.262 384.247 253.732L383.369 253.462C383.369 252.677 383.509 252.005 383.789 251.445C384.074 250.88 384.472 250.447 384.982 250.147C385.497 249.842 386.102 249.69 386.797 249.69C387.322 249.69 387.769 249.772 388.139 249.937C388.509 250.102 388.817 250.322 389.062 250.597C389.307 250.867 389.499 251.172 389.639 251.512C389.779 251.847 389.877 252.19 389.932 252.54C389.992 252.885 390.022 253.212 390.022 253.522V258H388.672ZM382.897 258V247.2H384.097V253.162H384.247V258H382.897ZM394.274 258.225C393.669 258.225 393.162 258.115 392.752 257.895C392.347 257.67 392.039 257.375 391.829 257.01C391.624 256.645 391.522 256.245 391.522 255.81C391.522 255.385 391.602 255.017 391.762 254.707C391.927 254.392 392.157 254.132 392.452 253.927C392.747 253.717 393.099 253.552 393.509 253.432C393.894 253.327 394.324 253.237 394.799 253.162C395.279 253.082 395.764 253.01 396.254 252.945C396.744 252.88 397.202 252.817 397.627 252.757L397.147 253.035C397.162 252.315 397.017 251.782 396.712 251.437C396.412 251.092 395.892 250.92 395.152 250.92C394.662 250.92 394.232 251.032 393.862 251.257C393.497 251.477 393.239 251.837 393.089 252.337L391.822 251.955C392.017 251.245 392.394 250.687 392.954 250.282C393.514 249.877 394.252 249.675 395.167 249.675C395.902 249.675 396.532 249.807 397.057 250.072C397.587 250.332 397.967 250.727 398.197 251.257C398.312 251.507 398.384 251.78 398.414 252.075C398.444 252.365 398.459 252.67 398.459 252.99V258H397.274V256.057L397.552 256.237C397.247 256.892 396.819 257.387 396.269 257.722C395.724 258.058 395.059 258.225 394.274 258.225ZM394.477 257.107C394.957 257.107 395.372 257.022 395.722 256.852C396.077 256.677 396.362 256.45 396.577 256.17C396.792 255.885 396.932 255.575 396.997 255.24C397.072 254.99 397.112 254.712 397.117 254.407C397.127 254.097 397.132 253.86 397.132 253.695L397.597 253.897C397.162 253.957 396.734 254.015 396.314 254.07C395.894 254.125 395.497 254.185 395.122 254.25C394.747 254.31 394.409 254.382 394.109 254.467C393.889 254.537 393.682 254.627 393.487 254.737C393.297 254.847 393.142 254.99 393.022 255.165C392.907 255.335 392.849 255.547 392.849 255.802C392.849 256.022 392.904 256.232 393.014 256.432C393.129 256.632 393.304 256.795 393.539 256.92C393.779 257.045 394.092 257.107 394.477 257.107ZM404.932 258C404.452 258.095 403.977 258.133 403.507 258.113C403.042 258.098 402.627 258.005 402.262 257.835C401.897 257.66 401.619 257.39 401.429 257.025C401.269 256.705 401.182 256.382 401.167 256.057C401.157 255.727 401.152 255.355 401.152 254.94V247.65H402.487V254.88C402.487 255.21 402.489 255.492 402.494 255.727C402.504 255.962 402.557 256.165 402.652 256.335C402.832 256.655 403.117 256.842 403.507 256.898C403.902 256.952 404.377 256.937 404.932 256.852V258ZM399.509 251.002V249.9H404.932V251.002H399.509ZM409.729 248.467V247.087H411.064V248.467H409.729ZM409.729 258V249.9H411.064V258H409.729ZM417.837 258C417.357 258.095 416.882 258.133 416.412 258.113C415.947 258.098 415.532 258.005 415.167 257.835C414.802 257.66 414.525 257.39 414.335 257.025C414.175 256.705 414.087 256.382 414.072 256.057C414.062 255.727 414.057 255.355 414.057 254.94V247.65H415.392V254.88C415.392 255.21 415.395 255.492 415.4 255.727C415.41 255.962 415.462 256.165 415.557 256.335C415.737 256.655 416.022 256.842 416.412 256.898C416.807 256.952 417.282 256.937 417.837 256.852V258ZM412.415 251.002V249.9H417.837V251.002H412.415ZM424.21 258L421.735 249.892L423.062 249.9L424.87 255.825L426.692 249.9H427.87L429.685 255.825L431.5 249.9H432.82L430.345 258H429.235L427.277 251.842L425.32 258H424.21ZM434.324 248.467V247.087H435.659V248.467H434.324ZM434.324 258V249.9H435.659V258H434.324ZM438.059 258V246.975H439.394V258H438.059ZM441.795 258V246.975H443.13V258H441.795ZM448.533 248.467V247.087H449.868V248.467H448.533ZM448.533 258V249.9H449.868V258H448.533ZM461.801 258L461.808 252.817C461.808 252.212 461.646 251.74 461.321 251.4C461.001 251.055 460.583 250.882 460.068 250.882C459.768 250.882 459.483 250.952 459.213 251.092C458.943 251.227 458.723 251.442 458.553 251.737C458.383 252.027 458.298 252.4 458.298 252.855L457.593 252.57C457.583 251.995 457.701 251.492 457.946 251.062C458.196 250.627 458.536 250.29 458.966 250.05C459.396 249.81 459.881 249.69 460.421 249.69C461.266 249.69 461.931 249.947 462.416 250.463C462.901 250.972 463.143 251.66 463.143 252.525L463.136 258H461.801ZM452.111 258V249.9H453.303V252.067H453.453V258H452.111ZM456.963 258L456.971 252.87C456.971 252.25 456.811 251.765 456.491 251.415C456.171 251.06 455.746 250.882 455.216 250.882C454.691 250.882 454.266 251.062 453.941 251.422C453.616 251.782 453.453 252.26 453.453 252.855L452.748 252.435C452.748 251.91 452.873 251.44 453.123 251.025C453.373 250.61 453.713 250.285 454.143 250.05C454.573 249.81 455.061 249.69 455.606 249.69C456.151 249.69 456.626 249.805 457.031 250.035C457.436 250.265 457.748 250.595 457.968 251.025C458.188 251.45 458.298 251.957 458.298 252.547L458.291 258H456.963ZM468.817 258.225C468.057 258.225 467.417 258.038 466.897 257.662C466.377 257.282 465.982 256.77 465.712 256.125C465.447 255.475 465.314 254.747 465.314 253.942C465.314 253.127 465.447 252.397 465.712 251.752C465.982 251.107 466.377 250.6 466.897 250.23C467.422 249.86 468.064 249.675 468.824 249.675C469.574 249.675 470.219 249.862 470.759 250.237C471.304 250.607 471.722 251.115 472.012 251.76C472.302 252.405 472.447 253.132 472.447 253.942C472.447 254.752 472.302 255.48 472.012 256.125C471.722 256.77 471.304 257.282 470.759 257.662C470.219 258.038 469.572 258.225 468.817 258.225ZM465.089 261.6V249.9H466.282V255.862H466.432V261.6H465.089ZM468.652 257.002C469.187 257.002 469.629 256.867 469.979 256.597C470.329 256.327 470.592 255.962 470.767 255.502C470.942 255.037 471.029 254.517 471.029 253.942C471.029 253.372 470.942 252.857 470.767 252.397C470.597 251.937 470.332 251.572 469.972 251.302C469.617 251.032 469.164 250.897 468.614 250.897C468.089 250.897 467.654 251.027 467.309 251.287C466.964 251.542 466.707 251.9 466.537 252.36C466.367 252.815 466.282 253.342 466.282 253.942C466.282 254.532 466.364 255.06 466.529 255.525C466.699 255.985 466.959 256.347 467.309 256.612C467.659 256.872 468.107 257.002 468.652 257.002ZM474.091 258V249.9H475.284V251.857L475.089 251.602C475.184 251.352 475.306 251.122 475.456 250.912C475.611 250.702 475.784 250.53 475.974 250.395C476.184 250.225 476.421 250.095 476.686 250.005C476.951 249.915 477.221 249.862 477.496 249.847C477.771 249.827 478.029 249.845 478.269 249.9V251.152C477.989 251.077 477.681 251.057 477.346 251.092C477.011 251.127 476.701 251.25 476.416 251.46C476.156 251.645 475.954 251.87 475.809 252.135C475.669 252.4 475.571 252.687 475.516 252.997C475.461 253.302 475.434 253.615 475.434 253.935V258H474.091ZM482.99 258.225C482.185 258.225 481.49 258.043 480.905 257.677C480.325 257.312 479.878 256.807 479.563 256.162C479.248 255.517 479.09 254.777 479.09 253.942C479.09 253.092 479.25 252.347 479.57 251.707C479.89 251.067 480.343 250.57 480.928 250.215C481.513 249.855 482.2 249.675 482.99 249.675C483.8 249.675 484.498 249.857 485.083 250.222C485.668 250.582 486.115 251.085 486.425 251.73C486.74 252.37 486.898 253.107 486.898 253.942C486.898 254.787 486.74 255.532 486.425 256.177C486.11 256.817 485.66 257.32 485.075 257.685C484.49 258.045 483.795 258.225 482.99 258.225ZM482.99 256.957C483.83 256.957 484.455 256.677 484.865 256.117C485.275 255.557 485.48 254.832 485.48 253.942C485.48 253.027 485.273 252.3 484.858 251.76C484.443 251.215 483.82 250.942 482.99 250.942C482.425 250.942 481.96 251.07 481.595 251.325C481.23 251.58 480.958 251.932 480.778 252.382C480.598 252.832 480.508 253.352 480.508 253.942C480.508 254.852 480.718 255.582 481.138 256.132C481.558 256.682 482.175 256.957 482.99 256.957ZM490.446 258L487.506 249.9H488.856L491.129 256.297L493.394 249.9H494.751L491.811 258H490.446ZM499.325 258.225C498.53 258.225 497.835 258.05 497.24 257.7C496.65 257.345 496.19 256.852 495.86 256.222C495.53 255.587 495.365 254.847 495.365 254.002C495.365 253.117 495.527 252.352 495.852 251.707C496.177 251.057 496.63 250.557 497.21 250.207C497.795 249.852 498.48 249.675 499.265 249.675C500.08 249.675 500.772 249.862 501.342 250.237C501.917 250.612 502.347 251.147 502.632 251.842C502.922 252.537 503.047 253.365 503.007 254.325H501.657V253.845C501.642 252.85 501.44 252.107 501.05 251.617C500.66 251.122 500.08 250.875 499.31 250.875C498.485 250.875 497.857 251.14 497.427 251.67C496.997 252.2 496.782 252.96 496.782 253.95C496.782 254.905 496.997 255.645 497.427 256.17C497.857 256.695 498.47 256.957 499.265 256.957C499.8 256.957 500.265 256.835 500.66 256.59C501.055 256.345 501.365 255.992 501.59 255.532L502.872 255.975C502.557 256.69 502.082 257.245 501.447 257.64C500.817 258.03 500.11 258.225 499.325 258.225ZM496.332 254.325V253.252H502.317V254.325H496.332ZM511.19 258.225C510.395 258.225 509.7 258.05 509.105 257.7C508.515 257.345 508.055 256.852 507.725 256.222C507.395 255.587 507.23 254.847 507.23 254.002C507.23 253.117 507.392 252.352 507.717 251.707C508.042 251.057 508.495 250.557 509.075 250.207C509.66 249.852 510.345 249.675 511.13 249.675C511.945 249.675 512.637 249.862 513.207 250.237C513.782 250.612 514.212 251.147 514.497 251.842C514.787 252.537 514.912 253.365 514.872 254.325H513.522V253.845C513.507 252.85 513.305 252.107 512.915 251.617C512.525 251.122 511.945 250.875 511.175 250.875C510.35 250.875 509.722 251.14 509.292 251.67C508.862 252.2 508.647 252.96 508.647 253.95C508.647 254.905 508.862 255.645 509.292 256.17C509.722 256.695 510.335 256.957 511.13 256.957C511.665 256.957 512.13 256.835 512.525 256.59C512.92 256.345 513.23 255.992 513.455 255.532L514.737 255.975C514.422 256.69 513.947 257.245 513.312 257.64C512.682 258.03 511.975 258.225 511.19 258.225ZM508.197 254.325V253.252H514.182V254.325H508.197ZM515.349 258L518.447 253.905L515.417 249.9H517.007L519.227 252.87L521.424 249.9H523.014L519.984 253.905L523.089 258H521.492L519.227 254.94L516.947 258H515.349ZM528.011 258.225C527.251 258.225 526.611 258.038 526.091 257.662C525.571 257.282 525.176 256.77 524.906 256.125C524.641 255.475 524.509 254.747 524.509 253.942C524.509 253.127 524.641 252.397 524.906 251.752C525.176 251.107 525.571 250.6 526.091 250.23C526.616 249.86 527.259 249.675 528.019 249.675C528.769 249.675 529.414 249.862 529.954 250.237C530.499 250.607 530.916 251.115 531.206 251.76C531.496 252.405 531.641 253.132 531.641 253.942C531.641 254.752 531.496 255.48 531.206 256.125C530.916 256.77 530.499 257.282 529.954 257.662C529.414 258.038 528.766 258.225 528.011 258.225ZM524.284 261.6V249.9H525.476V255.862H525.626V261.6H524.284ZM527.846 257.002C528.381 257.002 528.824 256.867 529.174 256.597C529.524 256.327 529.786 255.962 529.961 255.502C530.136 255.037 530.224 254.517 530.224 253.942C530.224 253.372 530.136 252.857 529.961 252.397C529.791 251.937 529.526 251.572 529.166 251.302C528.811 251.032 528.359 250.897 527.809 250.897C527.284 250.897 526.849 251.027 526.504 251.287C526.159 251.542 525.901 251.9 525.731 252.36C525.561 252.815 525.476 253.342 525.476 253.942C525.476 254.532 525.559 255.06 525.724 255.525C525.894 255.985 526.154 256.347 526.504 256.612C526.854 256.872 527.301 257.002 527.846 257.002ZM536.795 258.225C536 258.225 535.305 258.05 534.71 257.7C534.12 257.345 533.66 256.852 533.33 256.222C533 255.587 532.835 254.847 532.835 254.002C532.835 253.117 532.998 252.352 533.323 251.707C533.648 251.057 534.1 250.557 534.68 250.207C535.265 249.852 535.95 249.675 536.735 249.675C537.55 249.675 538.243 249.862 538.813 250.237C539.388 250.612 539.818 251.147 540.103 251.842C540.393 252.537 540.518 253.365 540.478 254.325H539.128V253.845C539.113 252.85 538.91 252.107 538.52 251.617C538.13 251.122 537.55 250.875 536.78 250.875C535.955 250.875 535.328 251.14 534.898 251.67C534.468 252.2 534.253 252.96 534.253 253.95C534.253 254.905 534.468 255.645 534.898 256.17C535.328 256.695 535.94 256.957 536.735 256.957C537.27 256.957 537.735 256.835 538.13 256.59C538.525 256.345 538.835 255.992 539.06 255.532L540.343 255.975C540.028 256.69 539.553 257.245 538.918 257.64C538.288 258.03 537.58 258.225 536.795 258.225ZM533.803 254.325V253.252H539.788V254.325H533.803ZM542.148 258V249.9H543.34V251.857L543.145 251.602C543.24 251.352 543.363 251.122 543.513 250.912C543.668 250.702 543.84 250.53 544.03 250.395C544.24 250.225 544.478 250.095 544.743 250.005C545.008 249.915 545.278 249.862 545.553 249.847C545.828 249.827 546.085 249.845 546.325 249.9V251.152C546.045 251.077 545.738 251.057 545.403 251.092C545.068 251.127 544.758 251.25 544.473 251.46C544.213 251.645 544.01 251.87 543.865 252.135C543.725 252.4 543.628 252.687 543.573 252.997C543.518 253.302 543.49 253.615 543.49 253.935V258H542.148ZM547.893 248.467V247.087H549.228V248.467H547.893ZM547.893 258V249.9H549.228V258H547.893ZM557.246 258V253.942C557.246 253.557 557.211 253.187 557.141 252.832C557.076 252.477 556.959 252.16 556.789 251.88C556.624 251.595 556.399 251.37 556.114 251.205C555.834 251.04 555.479 250.957 555.049 250.957C554.714 250.957 554.409 251.015 554.134 251.13C553.864 251.24 553.631 251.41 553.436 251.64C553.241 251.87 553.089 252.16 552.979 252.51C552.874 252.855 552.821 253.262 552.821 253.732L551.944 253.462C551.944 252.677 552.084 252.005 552.364 251.445C552.649 250.88 553.046 250.447 553.556 250.147C554.071 249.842 554.676 249.69 555.371 249.69C555.896 249.69 556.344 249.772 556.714 249.937C557.084 250.102 557.391 250.322 557.636 250.597C557.881 250.867 558.074 251.172 558.214 251.512C558.354 251.847 558.451 252.19 558.506 252.54C558.566 252.885 558.596 253.212 558.596 253.522V258H557.246ZM551.471 258V249.9H552.671V252.067H552.821V258H551.471ZM563.885 258.225C563.065 258.225 562.368 258.043 561.793 257.677C561.223 257.307 560.788 256.8 560.488 256.155C560.188 255.51 560.033 254.775 560.023 253.95C560.033 253.105 560.19 252.362 560.495 251.722C560.805 251.077 561.248 250.575 561.823 250.215C562.398 249.855 563.09 249.675 563.9 249.675C564.755 249.675 565.49 249.885 566.105 250.305C566.725 250.725 567.14 251.3 567.35 252.03L566.03 252.427C565.86 251.957 565.583 251.592 565.198 251.332C564.818 251.072 564.38 250.942 563.885 250.942C563.33 250.942 562.873 251.072 562.513 251.332C562.153 251.587 561.885 251.942 561.71 252.397C561.535 252.847 561.445 253.365 561.44 253.95C561.45 254.85 561.658 255.577 562.063 256.132C562.473 256.682 563.08 256.957 563.885 256.957C564.415 256.957 564.855 256.837 565.205 256.597C565.555 256.352 565.82 256 566 255.54L567.35 255.892C567.07 256.647 566.633 257.225 566.038 257.625C565.443 258.025 564.725 258.225 563.885 258.225ZM572.171 258.225C571.376 258.225 570.681 258.05 570.086 257.7C569.496 257.345 569.036 256.852 568.706 256.222C568.376 255.587 568.211 254.847 568.211 254.002C568.211 253.117 568.374 252.352 568.699 251.707C569.024 251.057 569.476 250.557 570.056 250.207C570.641 249.852 571.326 249.675 572.111 249.675C572.926 249.675 573.619 249.862 574.189 250.237C574.764 250.612 575.194 251.147 575.479 251.842C575.769 252.537 575.894 253.365 575.854 254.325H574.504V253.845C574.489 252.85 574.286 252.107 573.896 251.617C573.506 251.122 572.926 250.875 572.156 250.875C571.331 250.875 570.704 251.14 570.274 251.67C569.844 252.2 569.629 252.96 569.629 253.95C569.629 254.905 569.844 255.645 570.274 256.17C570.704 256.695 571.316 256.957 572.111 256.957C572.646 256.957 573.111 256.835 573.506 256.59C573.901 256.345 574.211 255.992 574.436 255.532L575.719 255.975C575.404 256.69 574.929 257.245 574.294 257.64C573.664 258.03 572.956 258.225 572.171 258.225ZM569.179 254.325V253.252H575.164V254.325H569.179Z" fill="#E7E6E6"/>
<path d="M452 78.5C452 151.678 260.178 428.5 187 428.5C113.822 428.5 483.5 348.178 483.5 275C483.5 201.822 246.322 -54 319.5 -54C392.678 -54 452 5.32226 452 78.5Z" fill="#D9D9D9" fill-opacity="0.08"/>
</g>
</g>
<defs>
<filter id="filter0_f_0_1" x="-392" y="-373" width="1087" height="1022" filterUnits="userSpaceOnUse" color-interpolation-filters="sRGB">
<feFlood flood-opacity="0" result="BackgroundImageFix"/>
<feBlend mode="normal" in="SourceGraphic" in2="BackgroundImageFix" result="shape"/>
<feGaussianBlur stdDeviation="193.5" result="effect1_foregroundBlur_0_1"/>
</filter>
<filter id="filter1_f_0_1" x="-19" y="-474" width="1087" height="1022" filterUnits="userSpaceOnUse" color-interpolation-filters="sRGB">
<feFlood flood-opacity="0" result="BackgroundImageFix"/>
<feBlend mode="normal" in="SourceGraphic" in2="BackgroundImageFix" result="shape"/>
<feGaussianBlur stdDeviation="193.5" result="effect1_foregroundBlur_0_1"/>
</filter>
<filter id="filter2_f_0_1" x="238" y="-217" width="1087" height="1022" filterUnits="userSpaceOnUse" color-interpolation-filters="sRGB">
<feFlood flood-opacity="0" result="BackgroundImageFix"/>
<feBlend mode="normal" in="SourceGraphic" in2="BackgroundImageFix" result="shape"/>
<feGaussianBlur stdDeviation="193.5" result="effect1_foregroundBlur_0_1"/>
</filter>
<linearGradient id="paint0_linear_0_1" x1="549" y1="0" x2="549" y2="654" gradientUnits="userSpaceOnUse">
<stop stop-color="#A8A0A0"/>
<stop offset="0.0001" stop-color="#151515"/>
<stop offset="1" stop-color="#2C2C2C"/>
</linearGradient>
<linearGradient id="paint1_linear_0_1" x1="431" y1="117" x2="431" y2="205" gradientUnits="userSpaceOnUse">
<stop stop-color="white"/>
<stop offset="1" stop-color="#E3E3E3"/>
</linearGradient>
<clipPath id="clip0_0_1">
<rect width="862" height="380" fill="white"/>
</clipPath>
<clipPath id="clip1_0_1">
<rect width="862" height="380" fill="white"/>
</clipPath>
</defs>
</svg>
