<svg width="862" height="380" viewBox="0 0 862 380" fill="none" xmlns="http://www.w3.org/2000/svg">
<g clip-path="url(#clip0_11_21)">
<rect width="862" height="380" fill="#F2F2F2"/>
<g filter="url(#filter0_f_11_21)">
<ellipse cx="70.5" cy="132" rx="144.5" ry="121" fill="#ADFFBA"/>
</g>
<g filter="url(#filter1_f_11_21)">
<ellipse cx="717.5" cy="301" rx="144.5" ry="121" fill="#79FFB7"/>
</g>
<path d="M161.038 145V121.24H165.014V145H161.038ZM182.282 145V136.42C182.282 135.859 182.244 135.237 182.167 134.555C182.09 133.873 181.908 133.219 181.622 132.592C181.347 131.954 180.929 131.431 180.368 131.024C179.818 130.617 179.07 130.414 178.124 130.414C177.618 130.414 177.118 130.496 176.623 130.661C176.128 130.826 175.677 131.112 175.27 131.519C174.874 131.915 174.555 132.465 174.313 133.169C174.071 133.862 173.95 134.753 173.95 135.842L171.59 134.836C171.59 133.318 171.882 131.943 172.465 130.711C173.059 129.479 173.928 128.5 175.072 127.774C176.216 127.037 177.624 126.668 179.296 126.668C180.616 126.668 181.705 126.888 182.563 127.328C183.421 127.768 184.103 128.329 184.609 129.011C185.115 129.693 185.489 130.419 185.731 131.189C185.973 131.959 186.127 132.691 186.193 133.384C186.27 134.066 186.308 134.621 186.308 135.05V145H182.282ZM169.924 145V127.18H173.471V132.707H173.95V145H169.924ZM201.059 145C199.882 145.22 198.727 145.314 197.594 145.281C196.472 145.259 195.465 145.055 194.574 144.67C193.683 144.274 193.007 143.652 192.545 142.805C192.138 142.035 191.923 141.249 191.901 140.446C191.879 139.643 191.868 138.735 191.868 137.723V122.23H195.828V137.492C195.828 138.207 195.834 138.834 195.845 139.373C195.867 139.912 195.982 140.352 196.191 140.693C196.587 141.353 197.22 141.722 198.089 141.799C198.958 141.876 199.948 141.832 201.059 141.667V145ZM188.634 130.298V127.18H201.059V130.298H188.634ZM204.891 145V127.18H208.405V131.519L207.976 130.958C208.196 130.364 208.488 129.825 208.851 129.341C209.225 128.846 209.67 128.439 210.187 128.12C210.627 127.823 211.111 127.592 211.639 127.427C212.178 127.251 212.728 127.147 213.289 127.114C213.85 127.07 214.395 127.092 214.923 127.18V130.892C214.395 130.738 213.784 130.689 213.091 130.744C212.409 130.799 211.793 130.991 211.243 131.321C210.693 131.618 210.242 131.998 209.89 132.46C209.549 132.922 209.296 133.45 209.131 134.044C208.966 134.627 208.884 135.259 208.884 135.941V145H204.891ZM225.619 145.495C223.837 145.495 222.281 145.094 220.95 144.29C219.619 143.487 218.585 142.382 217.848 140.974C217.122 139.555 216.759 137.927 216.759 136.09C216.759 134.22 217.133 132.581 217.881 131.173C218.629 129.765 219.668 128.665 220.999 127.873C222.33 127.081 223.87 126.685 225.619 126.685C227.412 126.685 228.974 127.086 230.305 127.889C231.636 128.692 232.67 129.803 233.407 131.222C234.144 132.63 234.513 134.253 234.513 136.09C234.513 137.938 234.139 139.571 233.391 140.99C232.654 142.398 231.62 143.504 230.289 144.307C228.958 145.099 227.401 145.495 225.619 145.495ZM225.619 141.766C227.203 141.766 228.38 141.238 229.15 140.182C229.92 139.126 230.305 137.762 230.305 136.09C230.305 134.363 229.915 132.988 229.134 131.965C228.353 130.931 227.181 130.414 225.619 130.414C224.552 130.414 223.672 130.656 222.979 131.14C222.297 131.613 221.791 132.278 221.461 133.136C221.131 133.983 220.966 134.968 220.966 136.09C220.966 137.817 221.357 139.197 222.138 140.231C222.93 141.254 224.09 141.766 225.619 141.766ZM245.293 145.495C243.654 145.495 242.224 145.083 241.003 144.257C239.782 143.432 238.836 142.31 238.165 140.891C237.494 139.472 237.158 137.872 237.158 136.09C237.158 134.286 237.494 132.68 238.165 131.272C238.847 129.853 239.809 128.736 241.052 127.922C242.295 127.097 243.758 126.685 245.441 126.685C247.135 126.685 248.554 127.097 249.698 127.922C250.853 128.736 251.728 129.853 252.322 131.272C252.916 132.691 253.213 134.297 253.213 136.09C253.213 137.861 252.916 139.461 252.322 140.891C251.728 142.31 250.842 143.432 249.665 144.257C248.488 145.083 247.031 145.495 245.293 145.495ZM245.903 141.931C246.97 141.931 247.828 141.689 248.477 141.205C249.137 140.71 249.616 140.022 249.913 139.142C250.221 138.262 250.375 137.245 250.375 136.09C250.375 134.924 250.221 133.906 249.913 133.037C249.616 132.157 249.148 131.475 248.51 130.991C247.872 130.496 247.047 130.249 246.035 130.249C244.968 130.249 244.088 130.513 243.395 131.041C242.702 131.558 242.191 132.262 241.861 133.153C241.531 134.033 241.366 135.012 241.366 136.09C241.366 137.179 241.525 138.169 241.844 139.06C242.174 139.94 242.675 140.638 243.346 141.155C244.017 141.672 244.869 141.931 245.903 141.931ZM250.375 145V132.493H249.88V121.24H253.889V145H250.375ZM265.198 145.512C263.878 145.512 262.789 145.292 261.931 144.851C261.073 144.411 260.391 143.85 259.885 143.168C259.379 142.486 259.005 141.76 258.763 140.99C258.521 140.22 258.362 139.494 258.285 138.812C258.219 138.119 258.186 137.558 258.186 137.129V127.18H262.212V135.76C262.212 136.31 262.25 136.931 262.327 137.624C262.404 138.306 262.58 138.966 262.855 139.604C263.141 140.231 263.559 140.748 264.109 141.155C264.67 141.562 265.424 141.766 266.37 141.766C266.876 141.766 267.376 141.683 267.871 141.518C268.366 141.353 268.812 141.073 269.208 140.677C269.615 140.27 269.939 139.714 270.181 139.01C270.423 138.306 270.544 137.415 270.544 136.337L272.904 137.344C272.904 138.862 272.607 140.237 272.013 141.469C271.43 142.701 270.566 143.685 269.422 144.422C268.278 145.149 266.87 145.512 265.198 145.512ZM271.023 145V139.472H270.544V127.18H274.537V145H271.023ZM286.911 145.495C285.074 145.495 283.507 145.088 282.209 144.274C280.911 143.449 279.915 142.327 279.222 140.908C278.54 139.489 278.194 137.883 278.183 136.09C278.194 134.264 278.551 132.647 279.255 131.239C279.97 129.82 280.982 128.709 282.291 127.906C283.6 127.092 285.157 126.685 286.961 126.685C288.985 126.685 290.695 127.196 292.092 128.219C293.5 129.231 294.419 130.617 294.848 132.377L290.888 133.45C290.58 132.493 290.068 131.75 289.353 131.222C288.638 130.683 287.824 130.414 286.911 130.414C285.877 130.414 285.025 130.661 284.354 131.156C283.683 131.64 283.188 132.311 282.869 133.169C282.55 134.027 282.39 135.001 282.39 136.09C282.39 137.784 282.77 139.153 283.529 140.198C284.288 141.243 285.415 141.766 286.911 141.766C287.967 141.766 288.798 141.524 289.403 141.04C290.019 140.556 290.481 139.857 290.789 138.944L294.848 139.852C294.298 141.667 293.335 143.064 291.96 144.043C290.585 145.011 288.902 145.495 286.911 145.495ZM298.001 124.474V120.827H301.977V124.474H298.001ZM298.001 145V127.18H301.977V145H298.001ZM319.245 145V136.42C319.245 135.859 319.207 135.237 319.13 134.555C319.053 133.873 318.871 133.219 318.585 132.592C318.31 131.954 317.892 131.431 317.331 131.024C316.781 130.617 316.033 130.414 315.087 130.414C314.581 130.414 314.081 130.496 313.586 130.661C313.091 130.826 312.64 131.112 312.233 131.519C311.837 131.915 311.518 132.465 311.276 133.169C311.034 133.862 310.913 134.753 310.913 135.842L308.553 134.836C308.553 133.318 308.845 131.943 309.428 130.711C310.022 129.479 310.891 128.5 312.035 127.774C313.179 127.037 314.587 126.668 316.259 126.668C317.579 126.668 318.668 126.888 319.526 127.328C320.384 127.768 321.066 128.329 321.572 129.011C322.078 129.693 322.452 130.419 322.694 131.189C322.936 131.959 323.09 132.691 323.156 133.384C323.233 134.066 323.271 134.621 323.271 135.05V145H319.245ZM306.887 145V127.18H310.434V132.707H310.913V145H306.887ZM335.068 153.415C334.078 153.415 333.127 153.261 332.214 152.953C331.312 152.645 330.498 152.2 329.772 151.617C329.046 151.045 328.452 150.352 327.99 149.538L331.653 147.723C331.994 148.372 332.472 148.85 333.088 149.158C333.715 149.477 334.381 149.637 335.085 149.637C335.91 149.637 336.647 149.488 337.296 149.191C337.945 148.905 338.445 148.476 338.797 147.904C339.16 147.343 339.331 146.639 339.309 145.792V140.726H339.804V127.18H343.285V145.858C343.285 146.309 343.263 146.738 343.219 147.145C343.186 147.563 343.126 147.97 343.038 148.366C342.774 149.521 342.268 150.467 341.52 151.204C340.772 151.952 339.842 152.508 338.731 152.871C337.631 153.234 336.41 153.415 335.068 153.415ZM334.722 145.495C333.083 145.495 331.653 145.083 330.432 144.257C329.211 143.432 328.265 142.31 327.594 140.891C326.923 139.472 326.587 137.872 326.587 136.09C326.587 134.286 326.923 132.68 327.594 131.272C328.276 129.853 329.238 128.736 330.481 127.922C331.724 127.097 333.187 126.685 334.87 126.685C336.564 126.685 337.983 127.097 339.127 127.922C340.282 128.736 341.157 129.853 341.751 131.272C342.345 132.691 342.642 134.297 342.642 136.09C342.642 137.861 342.345 139.461 341.751 140.891C341.157 142.31 340.271 143.432 339.094 144.257C337.917 145.083 336.46 145.495 334.722 145.495ZM335.332 141.931C336.399 141.931 337.257 141.689 337.906 141.205C338.566 140.71 339.045 140.022 339.342 139.142C339.65 138.262 339.804 137.245 339.804 136.09C339.804 134.924 339.65 133.906 339.342 133.037C339.045 132.157 338.577 131.475 337.939 130.991C337.301 130.496 336.476 130.249 335.464 130.249C334.397 130.249 333.517 130.513 332.824 131.041C332.131 131.558 331.62 132.262 331.29 133.153C330.96 134.033 330.795 135.012 330.795 136.09C330.795 137.179 330.954 138.169 331.273 139.06C331.603 139.94 332.104 140.638 332.775 141.155C333.446 141.672 334.298 141.931 335.332 141.931Z" fill="black"/>
<path d="M161.889 210V173.28H177.062C177.419 173.28 177.878 173.297 178.439 173.331C179 173.348 179.518 173.399 179.994 173.484C182.119 173.807 183.87 174.512 185.247 175.6C186.641 176.688 187.67 178.065 188.333 179.731C189.013 181.38 189.353 183.216 189.353 185.239C189.353 187.245 189.013 189.081 188.333 190.747C187.653 192.396 186.616 193.765 185.222 194.853C183.845 195.941 182.102 196.646 179.994 196.969C179.518 197.037 178.991 197.088 178.413 197.123C177.852 197.156 177.402 197.173 177.062 197.173H168.035V210H161.889ZM168.035 191.436H176.807C177.147 191.436 177.529 191.419 177.954 191.385C178.379 191.351 178.77 191.283 179.127 191.181C180.147 190.926 180.946 190.475 181.524 189.829C182.119 189.183 182.536 188.452 182.774 187.636C183.029 186.82 183.156 186.021 183.156 185.239C183.156 184.457 183.029 183.658 182.774 182.842C182.536 182.009 182.119 181.27 181.524 180.624C180.946 179.978 180.147 179.527 179.127 179.272C178.77 179.17 178.379 179.111 177.954 179.094C177.529 179.06 177.147 179.043 176.807 179.043H168.035V191.436ZM194.462 210V182.46H199.893V189.166L199.23 188.299C199.57 187.381 200.021 186.548 200.582 185.8C201.16 185.035 201.848 184.406 202.647 183.913C203.327 183.454 204.075 183.097 204.891 182.842C205.724 182.57 206.574 182.409 207.441 182.358C208.308 182.29 209.15 182.324 209.966 182.46V188.197C209.15 187.959 208.206 187.883 207.135 187.968C206.081 188.053 205.129 188.35 204.279 188.86C203.429 189.319 202.732 189.906 202.188 190.62C201.661 191.334 201.27 192.15 201.015 193.068C200.76 193.969 200.633 194.946 200.633 196V210H194.462ZM226.497 210.765C223.743 210.765 221.338 210.145 219.281 208.903C217.224 207.662 215.626 205.954 214.487 203.778C213.365 201.585 212.804 199.069 212.804 196.23C212.804 193.34 213.382 190.807 214.538 188.631C215.694 186.455 217.3 184.755 219.357 183.531C221.414 182.307 223.794 181.695 226.497 181.695C229.268 181.695 231.682 182.315 233.739 183.556C235.796 184.797 237.394 186.514 238.533 188.707C239.672 190.883 240.242 193.391 240.242 196.23C240.242 199.086 239.664 201.61 238.508 203.803C237.369 205.979 235.771 207.688 233.714 208.929C231.657 210.153 229.251 210.765 226.497 210.765ZM226.497 205.002C228.945 205.002 230.764 204.186 231.954 202.554C233.144 200.922 233.739 198.814 233.739 196.23C233.739 193.561 233.136 191.436 231.929 189.855C230.722 188.257 228.911 187.458 226.497 187.458C224.848 187.458 223.488 187.832 222.417 188.58C221.363 189.311 220.581 190.339 220.071 191.665C219.561 192.974 219.306 194.496 219.306 196.23C219.306 198.899 219.91 201.032 221.117 202.63C222.341 204.211 224.134 205.002 226.497 205.002ZM256.07 210V173.28H271.243C271.6 173.28 272.059 173.297 272.62 173.331C273.181 173.348 273.699 173.399 274.175 173.484C276.3 173.807 278.051 174.512 279.428 175.6C280.822 176.688 281.851 178.065 282.514 179.731C283.194 181.38 283.534 183.216 283.534 185.239C283.534 187.245 283.194 189.081 282.514 190.747C281.834 192.396 280.797 193.765 279.403 194.853C278.026 195.941 276.283 196.646 274.175 196.969C273.699 197.037 273.172 197.088 272.594 197.123C272.033 197.156 271.583 197.173 271.243 197.173H262.216V210H256.07ZM262.216 191.436H270.988C271.328 191.436 271.71 191.419 272.135 191.385C272.56 191.351 272.951 191.283 273.308 191.181C274.328 190.926 275.127 190.475 275.705 189.829C276.3 189.183 276.717 188.452 276.955 187.636C277.21 186.82 277.337 186.021 277.337 185.239C277.337 184.457 277.21 183.658 276.955 182.842C276.717 182.009 276.3 181.27 275.705 180.624C275.127 179.978 274.328 179.527 273.308 179.272C272.951 179.17 272.56 179.111 272.135 179.094C271.71 179.06 271.328 179.043 270.988 179.043H262.216V191.436ZM289.152 210V172.515H295.298V210H289.152ZM310.637 210.765C308.648 210.765 306.965 210.391 305.588 209.643C304.211 208.878 303.166 207.866 302.452 206.608C301.755 205.35 301.406 203.965 301.406 202.452C301.406 201.126 301.627 199.936 302.069 198.882C302.511 197.811 303.191 196.893 304.109 196.128C305.027 195.346 306.217 194.708 307.679 194.215C308.784 193.858 310.076 193.535 311.555 193.246C313.051 192.957 314.666 192.694 316.4 192.456C318.151 192.201 319.979 191.929 321.883 191.64L319.69 192.889C319.707 190.985 319.282 189.583 318.415 188.682C317.548 187.781 316.086 187.33 314.029 187.33C312.788 187.33 311.589 187.619 310.433 188.197C309.277 188.775 308.47 189.77 308.011 191.181L302.401 189.421C303.081 187.092 304.373 185.222 306.277 183.811C308.198 182.4 310.782 181.695 314.029 181.695C316.477 181.695 318.627 182.094 320.48 182.893C322.35 183.692 323.736 185.001 324.637 186.82C325.13 187.789 325.427 188.784 325.529 189.804C325.631 190.807 325.682 191.903 325.682 193.093V210H320.302V204.033L321.194 205.002C319.953 206.991 318.5 208.453 316.834 209.388C315.185 210.306 313.119 210.765 310.637 210.765ZM311.861 205.869C313.255 205.869 314.445 205.622 315.431 205.129C316.417 204.636 317.199 204.033 317.777 203.319C318.372 202.605 318.772 201.933 318.976 201.304C319.299 200.522 319.477 199.63 319.511 198.627C319.562 197.607 319.588 196.782 319.588 196.153L321.475 196.714C319.622 197.003 318.032 197.258 316.706 197.479C315.38 197.7 314.241 197.913 313.289 198.117C312.337 198.304 311.496 198.516 310.765 198.754C310.051 199.009 309.447 199.307 308.954 199.647C308.461 199.987 308.079 200.378 307.807 200.82C307.552 201.262 307.424 201.78 307.424 202.375C307.424 203.055 307.594 203.659 307.934 204.186C308.274 204.696 308.767 205.104 309.413 205.41C310.076 205.716 310.892 205.869 311.861 205.869ZM351.369 210V196.74C351.369 195.873 351.31 194.912 351.191 193.858C351.072 192.804 350.791 191.793 350.349 190.824C349.924 189.838 349.278 189.03 348.411 188.401C347.561 187.772 346.405 187.458 344.943 187.458C344.161 187.458 343.388 187.585 342.623 187.84C341.858 188.095 341.161 188.537 340.532 189.166C339.92 189.778 339.427 190.628 339.053 191.716C338.679 192.787 338.492 194.164 338.492 195.847L334.845 194.292C334.845 191.946 335.296 189.821 336.197 187.917C337.115 186.013 338.458 184.5 340.226 183.378C341.994 182.239 344.17 181.669 346.754 181.669C348.794 181.669 350.477 182.009 351.803 182.689C353.129 183.369 354.183 184.236 354.965 185.29C355.747 186.344 356.325 187.466 356.699 188.656C357.073 189.846 357.311 190.977 357.413 192.048C357.532 193.102 357.591 193.96 357.591 194.623V210H351.369ZM332.27 210V182.46H337.752V191.002H338.492V210H332.27ZM376.318 210.765C373.53 210.765 371.082 210.162 368.974 208.954C366.866 207.747 365.217 206.073 364.027 203.931C362.854 201.789 362.268 199.324 362.268 196.536C362.268 193.527 362.846 190.917 364.002 188.707C365.158 186.48 366.764 184.755 368.821 183.531C370.878 182.307 373.258 181.695 375.961 181.695C378.817 181.695 381.24 182.366 383.229 183.709C385.235 185.035 386.722 186.914 387.691 189.345C388.66 191.776 389.026 194.64 388.788 197.938H382.693V195.694C382.676 192.702 382.149 190.518 381.112 189.141C380.075 187.764 378.443 187.075 376.216 187.075C373.7 187.075 371.83 187.857 370.606 189.421C369.382 190.968 368.77 193.238 368.77 196.23C368.77 199.018 369.382 201.177 370.606 202.707C371.83 204.237 373.615 205.002 375.961 205.002C377.474 205.002 378.775 204.67 379.863 204.007C380.968 203.327 381.818 202.35 382.413 201.075L388.482 202.911C387.428 205.393 385.796 207.322 383.586 208.699C381.393 210.076 378.97 210.765 376.318 210.765ZM366.832 197.938V193.297H385.779V197.938H366.832ZM410.619 210C408.8 210.34 407.015 210.485 405.264 210.434C403.53 210.4 401.974 210.085 400.597 209.49C399.22 208.878 398.175 207.917 397.461 206.608C396.832 205.418 396.5 204.203 396.466 202.962C396.432 201.721 396.415 200.318 396.415 198.754V174.81H402.535V198.397C402.535 199.502 402.544 200.471 402.561 201.304C402.595 202.137 402.773 202.817 403.096 203.344C403.708 204.364 404.686 204.934 406.029 205.053C407.372 205.172 408.902 205.104 410.619 204.849V210ZM391.417 187.279V182.46H410.619V187.279H391.417ZM426.751 210V173.28H441.923C442.28 173.28 442.739 173.297 443.3 173.331C443.861 173.348 444.38 173.399 444.856 173.484C446.981 173.807 448.732 174.512 450.109 175.6C451.503 176.688 452.531 178.065 453.194 179.731C453.874 181.38 454.214 183.216 454.214 185.239C454.214 187.245 453.874 189.081 453.194 190.747C452.514 192.396 451.477 193.765 450.083 194.853C448.706 195.941 446.964 196.646 444.856 196.969C444.38 197.037 443.853 197.088 443.275 197.123C442.714 197.156 442.263 197.173 441.923 197.173H432.896V210H426.751ZM432.896 191.436H441.668C442.008 191.436 442.391 191.419 442.816 191.385C443.241 191.351 443.632 191.283 443.989 191.181C445.009 190.926 445.808 190.475 446.386 189.829C446.981 189.183 447.397 188.452 447.635 187.636C447.89 186.82 448.018 186.021 448.018 185.239C448.018 184.457 447.89 183.658 447.635 182.842C447.397 182.009 446.981 181.27 446.386 180.624C445.808 179.978 445.009 179.527 443.989 179.272C443.632 179.17 443.241 179.111 442.816 179.094C442.391 179.06 442.008 179.043 441.668 179.043H432.896V191.436ZM471.395 210.765C468.607 210.765 466.159 210.162 464.051 208.954C461.943 207.747 460.294 206.073 459.104 203.931C457.931 201.789 457.345 199.324 457.345 196.536C457.345 193.527 457.923 190.917 459.079 188.707C460.235 186.48 461.841 184.755 463.898 183.531C465.955 182.307 468.335 181.695 471.038 181.695C473.894 181.695 476.317 182.366 478.306 183.709C480.312 185.035 481.799 186.914 482.768 189.345C483.737 191.776 484.103 194.64 483.865 197.938H477.77V195.694C477.753 192.702 477.226 190.518 476.189 189.141C475.152 187.764 473.52 187.075 471.293 187.075C468.777 187.075 466.907 187.857 465.683 189.421C464.459 190.968 463.847 193.238 463.847 196.23C463.847 199.018 464.459 201.177 465.683 202.707C466.907 204.237 468.692 205.002 471.038 205.002C472.551 205.002 473.852 204.67 474.94 204.007C476.045 203.327 476.895 202.35 477.49 201.075L483.559 202.911C482.505 205.393 480.873 207.322 478.663 208.699C476.47 210.076 474.047 210.765 471.395 210.765ZM461.909 197.938V193.297H480.856V197.938H461.909ZM489.554 210V182.46H494.986V189.166L494.323 188.299C494.663 187.381 495.113 186.548 495.674 185.8C496.252 185.035 496.941 184.406 497.74 183.913C498.42 183.454 499.168 183.097 499.984 182.842C500.817 182.57 501.667 182.409 502.534 182.358C503.401 182.29 504.242 182.324 505.058 182.46V188.197C504.242 187.959 503.299 187.883 502.228 187.968C501.174 188.053 500.222 188.35 499.372 188.86C498.522 189.319 497.825 189.906 497.281 190.62C496.754 191.334 496.363 192.15 496.108 193.068C495.853 193.969 495.725 194.946 495.725 196V210H489.554ZM519.562 210.765C516.162 210.765 513.399 210 511.274 208.47C509.149 206.94 507.857 204.789 507.398 202.018L513.671 201.049C513.994 202.409 514.708 203.48 515.813 204.262C516.918 205.044 518.312 205.435 519.995 205.435C521.474 205.435 522.613 205.146 523.412 204.568C524.228 203.973 524.636 203.166 524.636 202.146C524.636 201.517 524.483 201.015 524.177 200.641C523.888 200.25 523.242 199.876 522.239 199.519C521.236 199.162 519.698 198.712 517.624 198.168C515.312 197.556 513.476 196.901 512.116 196.204C510.756 195.49 509.778 194.649 509.183 193.68C508.588 192.711 508.291 191.538 508.291 190.161C508.291 188.444 508.741 186.948 509.642 185.673C510.543 184.398 511.801 183.42 513.416 182.74C515.031 182.043 516.935 181.695 519.128 181.695C521.27 181.695 523.166 182.026 524.815 182.689C526.481 183.352 527.824 184.296 528.844 185.52C529.864 186.744 530.493 188.18 530.731 189.829L524.458 190.951C524.305 189.778 523.769 188.852 522.851 188.172C521.95 187.492 520.743 187.109 519.23 187.024C517.785 186.939 516.621 187.16 515.737 187.687C514.853 188.197 514.411 188.92 514.411 189.855C514.411 190.382 514.589 190.832 514.946 191.206C515.303 191.58 516.017 191.954 517.088 192.328C518.176 192.702 519.791 193.161 521.933 193.705C524.126 194.266 525.877 194.912 527.186 195.643C528.512 196.357 529.464 197.216 530.042 198.219C530.637 199.222 530.935 200.437 530.935 201.865C530.935 204.636 529.923 206.812 527.9 208.393C525.894 209.975 523.115 210.765 519.562 210.765ZM548.684 210.765C545.93 210.765 543.524 210.145 541.467 208.903C539.41 207.662 537.812 205.954 536.673 203.778C535.551 201.585 534.99 199.069 534.99 196.23C534.99 193.34 535.568 190.807 536.724 188.631C537.88 186.455 539.487 184.755 541.544 183.531C543.601 182.307 545.981 181.695 548.684 181.695C551.455 181.695 553.869 182.315 555.926 183.556C557.983 184.797 559.581 186.514 560.72 188.707C561.859 190.883 562.428 193.391 562.428 196.23C562.428 199.086 561.85 201.61 560.694 203.803C559.555 205.979 557.957 207.688 555.9 208.929C553.843 210.153 551.438 210.765 548.684 210.765ZM548.684 205.002C551.132 205.002 552.951 204.186 554.141 202.554C555.331 200.922 555.926 198.814 555.926 196.23C555.926 193.561 555.322 191.436 554.115 189.855C552.908 188.257 551.098 187.458 548.684 187.458C547.035 187.458 545.675 187.832 544.604 188.58C543.55 189.311 542.768 190.339 542.258 191.665C541.748 192.974 541.493 194.496 541.493 196.23C541.493 198.899 542.096 201.032 543.303 202.63C544.527 204.211 546.321 205.002 548.684 205.002ZM587.095 210V196.74C587.095 195.873 587.036 194.912 586.917 193.858C586.798 192.804 586.517 191.793 586.075 190.824C585.65 189.838 585.004 189.03 584.137 188.401C583.287 187.772 582.131 187.458 580.669 187.458C579.887 187.458 579.114 187.585 578.349 187.84C577.584 188.095 576.887 188.537 576.258 189.166C575.646 189.778 575.153 190.628 574.779 191.716C574.405 192.787 574.218 194.164 574.218 195.847L570.571 194.292C570.571 191.946 571.022 189.821 571.923 187.917C572.841 186.013 574.184 184.5 575.952 183.378C577.72 182.239 579.896 181.669 582.48 181.669C584.52 181.669 586.203 182.009 587.529 182.689C588.855 183.369 589.909 184.236 590.691 185.29C591.473 186.344 592.051 187.466 592.425 188.656C592.799 189.846 593.037 190.977 593.139 192.048C593.258 193.102 593.317 193.96 593.317 194.623V210H587.095ZM567.996 210V182.46H573.478V191.002H574.218V210H567.996ZM607.631 210L619.208 173.28H628.21L639.787 210H633.463L622.957 177.054H624.334L613.955 210H607.631ZM614.083 202.044V196.306H633.361V202.044H614.083ZM657.632 210.765C654.946 210.765 652.693 210.128 650.874 208.852C649.055 207.577 647.687 205.843 646.769 203.65C645.851 201.44 645.392 198.967 645.392 196.23C645.392 193.459 645.851 190.977 646.769 188.784C647.687 186.591 649.03 184.865 650.798 183.607C652.583 182.332 654.784 181.695 657.402 181.695C660.003 181.695 662.256 182.332 664.16 183.607C666.081 184.865 667.568 186.591 668.622 188.784C669.676 190.96 670.203 193.442 670.203 196.23C670.203 198.984 669.685 201.457 668.648 203.65C667.611 205.843 666.149 207.577 664.262 208.852C662.375 210.128 660.165 210.765 657.632 210.765ZM644.346 222.24V182.46H649.778V201.789H650.543V222.24H644.346ZM656.688 205.257C658.286 205.257 659.604 204.857 660.641 204.058C661.678 203.259 662.443 202.18 662.936 200.82C663.446 199.443 663.701 197.913 663.701 196.23C663.701 194.564 663.446 193.051 662.936 191.691C662.426 190.314 661.635 189.226 660.564 188.427C659.493 187.611 658.133 187.203 656.484 187.203C654.92 187.203 653.645 187.585 652.659 188.35C651.673 189.098 650.942 190.152 650.466 191.512C650.007 192.855 649.778 194.428 649.778 196.23C649.778 198.015 650.007 199.587 650.466 200.947C650.942 202.307 651.682 203.37 652.685 204.135C653.705 204.883 655.039 205.257 656.688 205.257ZM689.058 210.765C686.372 210.765 684.12 210.128 682.301 208.852C680.482 207.577 679.113 205.843 678.195 203.65C677.277 201.44 676.818 198.967 676.818 196.23C676.818 193.459 677.277 190.977 678.195 188.784C679.113 186.591 680.456 184.865 682.224 183.607C684.009 182.332 686.211 181.695 688.829 181.695C691.43 181.695 693.682 182.332 695.586 183.607C697.507 184.865 698.995 186.591 700.049 188.784C701.103 190.96 701.63 193.442 701.63 196.23C701.63 198.984 701.111 201.457 700.074 203.65C699.037 205.843 697.575 207.577 695.688 208.852C693.801 210.128 691.591 210.765 689.058 210.765ZM675.773 222.24V182.46H681.204V201.789H681.969V222.24H675.773ZM688.115 205.257C689.713 205.257 691.03 204.857 692.067 204.058C693.104 203.259 693.869 202.18 694.362 200.82C694.872 199.443 695.127 197.913 695.127 196.23C695.127 194.564 694.872 193.051 694.362 191.691C693.852 190.314 693.062 189.226 691.991 188.427C690.92 187.611 689.56 187.203 687.911 187.203C686.347 187.203 685.072 187.585 684.086 188.35C683.1 189.098 682.369 190.152 681.893 191.512C681.434 192.855 681.204 194.428 681.204 196.23C681.204 198.015 681.434 199.587 681.893 200.947C682.369 202.307 683.108 203.37 684.111 204.135C685.131 204.883 686.466 205.257 688.115 205.257Z" fill="black"/>
<path d="M159.05 249V238.2H163.513C163.618 238.2 163.753 238.205 163.918 238.215C164.083 238.22 164.235 238.235 164.375 238.26C165 238.355 165.515 238.562 165.92 238.882C166.33 239.202 166.633 239.607 166.828 240.097C167.028 240.582 167.128 241.122 167.128 241.717C167.128 242.307 167.028 242.847 166.828 243.337C166.628 243.822 166.323 244.225 165.913 244.545C165.508 244.865 164.995 245.072 164.375 245.167C164.235 245.187 164.08 245.202 163.91 245.213C163.745 245.222 163.613 245.227 163.513 245.227H160.858V249H159.05ZM160.858 243.54H163.438C163.538 243.54 163.65 243.535 163.775 243.525C163.9 243.515 164.015 243.495 164.12 243.465C164.42 243.39 164.655 243.257 164.825 243.067C165 242.877 165.123 242.662 165.193 242.422C165.268 242.182 165.305 241.947 165.305 241.717C165.305 241.487 165.268 241.252 165.193 241.012C165.123 240.767 165 240.55 164.825 240.36C164.655 240.17 164.42 240.037 164.12 239.962C164.015 239.932 163.9 239.915 163.775 239.91C163.65 239.9 163.538 239.895 163.438 239.895H160.858V243.54ZM168.78 249V237.975H170.588V249H168.78ZM175.099 249.225C174.514 249.225 174.019 249.115 173.614 248.895C173.209 248.67 172.902 248.372 172.692 248.002C172.487 247.632 172.384 247.225 172.384 246.78C172.384 246.39 172.449 246.04 172.579 245.73C172.709 245.415 172.909 245.145 173.179 244.92C173.449 244.69 173.799 244.502 174.229 244.357C174.554 244.252 174.934 244.157 175.369 244.072C175.809 243.987 176.284 243.91 176.794 243.84C177.309 243.765 177.847 243.685 178.407 243.6L177.762 243.967C177.767 243.407 177.642 242.995 177.387 242.73C177.132 242.465 176.702 242.332 176.097 242.332C175.732 242.332 175.379 242.417 175.039 242.587C174.699 242.757 174.462 243.05 174.327 243.465L172.677 242.947C172.877 242.262 173.257 241.712 173.817 241.297C174.382 240.882 175.142 240.675 176.097 240.675C176.817 240.675 177.449 240.792 177.994 241.027C178.544 241.262 178.952 241.647 179.217 242.182C179.362 242.467 179.449 242.76 179.479 243.06C179.509 243.355 179.524 243.677 179.524 244.027V249H177.942V247.245L178.204 247.53C177.839 248.115 177.412 248.545 176.922 248.82C176.437 249.09 175.829 249.225 175.099 249.225ZM175.459 247.785C175.869 247.785 176.219 247.712 176.509 247.567C176.799 247.422 177.029 247.245 177.199 247.035C177.374 246.825 177.492 246.627 177.552 246.442C177.647 246.212 177.699 245.95 177.709 245.655C177.724 245.355 177.732 245.112 177.732 244.927L178.287 245.092C177.742 245.177 177.274 245.252 176.884 245.317C176.494 245.382 176.159 245.445 175.879 245.505C175.599 245.56 175.352 245.622 175.137 245.692C174.927 245.767 174.749 245.855 174.604 245.955C174.459 246.055 174.347 246.17 174.267 246.3C174.192 246.43 174.154 246.582 174.154 246.757C174.154 246.957 174.204 247.135 174.304 247.29C174.404 247.44 174.549 247.56 174.739 247.65C174.934 247.74 175.174 247.785 175.459 247.785ZM186.224 249C185.689 249.1 185.164 249.143 184.649 249.128C184.139 249.118 183.682 249.025 183.277 248.85C182.872 248.67 182.564 248.387 182.354 248.002C182.169 247.652 182.072 247.295 182.062 246.93C182.052 246.565 182.047 246.152 182.047 245.692V238.65H183.847V245.587C183.847 245.912 183.849 246.197 183.854 246.442C183.864 246.687 183.917 246.887 184.012 247.042C184.192 247.342 184.479 247.51 184.874 247.545C185.269 247.58 185.719 247.56 186.224 247.485V249ZM180.577 242.317V240.9H186.224V242.317H180.577ZM188.671 249V240.772C188.671 240.567 188.679 240.342 188.694 240.097C188.709 239.847 188.751 239.6 188.821 239.355C188.891 239.11 189.019 238.887 189.204 238.687C189.434 238.432 189.681 238.257 189.946 238.162C190.216 238.062 190.481 238.007 190.741 237.997C191.001 237.982 191.229 237.975 191.424 237.975H192.436V239.445H191.499C191.154 239.445 190.896 239.532 190.726 239.707C190.561 239.877 190.479 240.102 190.479 240.382V249H188.671ZM187.366 242.317V240.9H192.436V242.317H187.366ZM196.919 249.225C196.109 249.225 195.402 249.043 194.797 248.677C194.192 248.312 193.722 247.81 193.387 247.17C193.057 246.525 192.892 245.785 192.892 244.95C192.892 244.1 193.062 243.355 193.402 242.715C193.742 242.075 194.214 241.575 194.819 241.215C195.424 240.855 196.124 240.675 196.919 240.675C197.734 240.675 198.444 240.857 199.049 241.222C199.654 241.587 200.124 242.092 200.459 242.737C200.794 243.377 200.962 244.115 200.962 244.95C200.962 245.79 200.792 246.532 200.452 247.177C200.117 247.817 199.647 248.32 199.042 248.685C198.437 249.045 197.729 249.225 196.919 249.225ZM196.919 247.53C197.639 247.53 198.174 247.29 198.524 246.81C198.874 246.33 199.049 245.71 199.049 244.95C199.049 244.165 198.872 243.54 198.517 243.075C198.162 242.605 197.629 242.37 196.919 242.37C196.434 242.37 196.034 242.48 195.719 242.7C195.409 242.915 195.179 243.217 195.029 243.607C194.879 243.992 194.804 244.44 194.804 244.95C194.804 245.735 194.982 246.362 195.337 246.832C195.697 247.297 196.224 247.53 196.919 247.53ZM202.614 249V240.9H204.212V242.872L204.017 242.617C204.117 242.347 204.249 242.102 204.414 241.882C204.584 241.657 204.787 241.472 205.022 241.327C205.222 241.192 205.442 241.087 205.682 241.012C205.927 240.932 206.177 240.885 206.432 240.87C206.687 240.85 206.934 240.86 207.174 240.9V242.587C206.934 242.517 206.657 242.495 206.342 242.52C206.032 242.545 205.752 242.632 205.502 242.782C205.252 242.917 205.047 243.09 204.887 243.3C204.732 243.51 204.617 243.75 204.542 244.02C204.467 244.285 204.429 244.572 204.429 244.882V249H202.614ZM218.333 249V244.08C218.333 243.525 218.196 243.092 217.921 242.782C217.646 242.467 217.273 242.31 216.803 242.31C216.513 242.31 216.253 242.377 216.023 242.512C215.793 242.642 215.611 242.837 215.476 243.097C215.341 243.352 215.273 243.657 215.273 244.012L214.471 243.54C214.466 242.98 214.591 242.487 214.846 242.062C215.106 241.632 215.456 241.297 215.896 241.057C216.336 240.817 216.826 240.698 217.366 240.698C218.261 240.698 218.946 240.967 219.421 241.507C219.901 242.042 220.141 242.747 220.141 243.622V249H218.333ZM208.591 249V240.9H210.188V243.412H210.413V249H208.591ZM213.473 249V244.102C213.473 243.537 213.336 243.097 213.061 242.782C212.786 242.467 212.411 242.31 211.936 242.31C211.476 242.31 211.106 242.467 210.826 242.782C210.551 243.097 210.413 243.507 210.413 244.012L209.603 243.472C209.603 242.947 209.733 242.475 209.993 242.055C210.253 241.635 210.603 241.305 211.043 241.065C211.488 240.82 211.986 240.698 212.536 240.698C213.141 240.698 213.646 240.827 214.051 241.087C214.461 241.342 214.766 241.692 214.966 242.137C215.171 242.577 215.273 243.075 215.273 243.63V249H213.473ZM225.1 249V238.2H229.382C230.112 238.2 230.71 238.347 231.175 238.642C231.645 238.932 231.992 239.305 232.217 239.76C232.447 240.215 232.562 240.685 232.562 241.17C232.562 241.765 232.42 242.27 232.135 242.685C231.855 243.1 231.472 243.38 230.987 243.525V243.15C231.667 243.305 232.182 243.627 232.532 244.117C232.887 244.607 233.065 245.165 233.065 245.79C233.065 246.43 232.942 246.99 232.697 247.47C232.452 247.95 232.087 248.325 231.602 248.595C231.122 248.865 230.527 249 229.817 249H225.1ZM226.93 247.297H229.592C229.907 247.297 230.19 247.235 230.44 247.11C230.69 246.98 230.885 246.8 231.025 246.57C231.17 246.335 231.242 246.057 231.242 245.737C231.242 245.447 231.18 245.187 231.055 244.957C230.93 244.727 230.747 244.545 230.507 244.41C230.267 244.27 229.98 244.2 229.645 244.2H226.93V247.297ZM226.93 242.512H229.36C229.62 242.512 229.852 242.462 230.057 242.362C230.262 242.262 230.425 242.115 230.545 241.92C230.665 241.725 230.725 241.485 230.725 241.2C230.725 240.825 230.605 240.512 230.365 240.262C230.125 240.012 229.79 239.887 229.36 239.887H226.93V242.512ZM237.6 249.233C237 249.233 236.505 249.133 236.115 248.932C235.725 248.732 235.415 248.477 235.185 248.167C234.955 247.857 234.785 247.527 234.675 247.177C234.565 246.827 234.493 246.497 234.458 246.187C234.428 245.872 234.413 245.617 234.413 245.422V240.9H236.243V244.8C236.243 245.05 236.26 245.332 236.295 245.647C236.33 245.957 236.41 246.257 236.535 246.547C236.665 246.832 236.855 247.067 237.105 247.252C237.36 247.437 237.703 247.53 238.133 247.53C238.363 247.53 238.59 247.492 238.815 247.417C239.04 247.342 239.243 247.215 239.423 247.035C239.608 246.85 239.755 246.597 239.865 246.277C239.975 245.957 240.03 245.552 240.03 245.062L241.103 245.52C241.103 246.21 240.968 246.835 240.698 247.395C240.433 247.955 240.04 248.402 239.52 248.737C239 249.068 238.36 249.233 237.6 249.233ZM240.248 249V246.487H240.03V240.9H241.845V249H240.248ZM244.102 239.67V238.012H245.91V239.67H244.102ZM244.102 249V240.9H245.91V249H244.102ZM248.306 249V237.975H250.114V249H248.306ZM255.608 249.225C254.863 249.225 254.213 249.038 253.658 248.662C253.103 248.287 252.673 247.777 252.368 247.132C252.063 246.487 251.911 245.76 251.911 244.95C251.911 244.13 252.063 243.4 252.368 242.76C252.678 242.115 253.116 241.607 253.681 241.237C254.246 240.862 254.911 240.675 255.676 240.675C256.446 240.675 257.091 240.862 257.611 241.237C258.136 241.607 258.533 242.115 258.803 242.76C259.073 243.405 259.208 244.135 259.208 244.95C259.208 245.755 259.073 246.482 258.803 247.132C258.533 247.777 258.131 248.287 257.596 248.662C257.061 249.038 256.398 249.225 255.608 249.225ZM255.886 247.605C256.371 247.605 256.761 247.495 257.056 247.275C257.356 247.05 257.573 246.737 257.708 246.337C257.848 245.937 257.918 245.475 257.918 244.95C257.918 244.42 257.848 243.957 257.708 243.562C257.573 243.162 257.361 242.852 257.071 242.632C256.781 242.407 256.406 242.295 255.946 242.295C255.461 242.295 255.061 242.415 254.746 242.655C254.431 242.89 254.198 243.21 254.048 243.615C253.898 244.015 253.823 244.46 253.823 244.95C253.823 245.445 253.896 245.895 254.041 246.3C254.191 246.7 254.418 247.017 254.723 247.252C255.028 247.487 255.416 247.605 255.886 247.605ZM257.918 249V243.315H257.693V238.2H259.516V249H257.918ZM267.216 249V239.895H263.721V238.2H272.519V239.895H269.024V249H267.216ZM276.094 249.225C275.284 249.225 274.577 249.043 273.972 248.677C273.367 248.312 272.897 247.81 272.562 247.17C272.232 246.525 272.067 245.785 272.067 244.95C272.067 244.1 272.237 243.355 272.577 242.715C272.917 242.075 273.389 241.575 273.994 241.215C274.599 240.855 275.299 240.675 276.094 240.675C276.909 240.675 277.619 240.857 278.224 241.222C278.829 241.587 279.299 242.092 279.634 242.737C279.969 243.377 280.137 244.115 280.137 244.95C280.137 245.79 279.967 246.532 279.627 247.177C279.292 247.817 278.822 248.32 278.217 248.685C277.612 249.045 276.904 249.225 276.094 249.225ZM276.094 247.53C276.814 247.53 277.349 247.29 277.699 246.81C278.049 246.33 278.224 245.71 278.224 244.95C278.224 244.165 278.047 243.54 277.692 243.075C277.337 242.605 276.804 242.37 276.094 242.37C275.609 242.37 275.209 242.48 274.894 242.7C274.584 242.915 274.354 243.217 274.204 243.607C274.054 243.992 273.979 244.44 273.979 244.95C273.979 245.735 274.157 246.362 274.512 246.832C274.872 247.297 275.399 247.53 276.094 247.53ZM284.942 249V238.2H286.75V249H284.942ZM292.244 249.225C291.499 249.225 290.849 249.038 290.294 248.662C289.739 248.287 289.309 247.777 289.004 247.132C288.699 246.487 288.546 245.76 288.546 244.95C288.546 244.13 288.699 243.4 289.004 242.76C289.314 242.115 289.751 241.607 290.316 241.237C290.881 240.862 291.546 240.675 292.311 240.675C293.081 240.675 293.726 240.862 294.246 241.237C294.771 241.607 295.169 242.115 295.439 242.76C295.709 243.405 295.844 244.135 295.844 244.95C295.844 245.755 295.709 246.482 295.439 247.132C295.169 247.777 294.766 248.287 294.231 248.662C293.696 249.038 293.034 249.225 292.244 249.225ZM292.521 247.605C293.006 247.605 293.396 247.495 293.691 247.275C293.991 247.05 294.209 246.737 294.344 246.337C294.484 245.937 294.554 245.475 294.554 244.95C294.554 244.42 294.484 243.957 294.344 243.562C294.209 243.162 293.996 242.852 293.706 242.632C293.416 242.407 293.041 242.295 292.581 242.295C292.096 242.295 291.696 242.415 291.381 242.655C291.066 242.89 290.834 243.21 290.684 243.615C290.534 244.015 290.459 244.46 290.459 244.95C290.459 245.445 290.531 245.895 290.676 246.3C290.826 246.7 291.054 247.017 291.359 247.252C291.664 247.487 292.051 247.605 292.521 247.605ZM294.554 249V243.315H294.329V238.2H296.151V249H294.554ZM301.937 249.225C301.117 249.225 300.397 249.048 299.777 248.692C299.157 248.337 298.672 247.845 298.322 247.215C297.977 246.585 297.804 245.86 297.804 245.04C297.804 244.155 297.974 243.387 298.314 242.737C298.654 242.082 299.127 241.575 299.732 241.215C300.337 240.855 301.037 240.675 301.832 240.675C302.672 240.675 303.384 240.872 303.969 241.267C304.559 241.657 304.997 242.21 305.282 242.925C305.567 243.64 305.674 244.482 305.604 245.452H303.812V244.792C303.807 243.912 303.652 243.27 303.347 242.865C303.042 242.46 302.562 242.257 301.907 242.257C301.167 242.257 300.617 242.487 300.257 242.947C299.897 243.402 299.717 244.07 299.717 244.95C299.717 245.77 299.897 246.405 300.257 246.855C300.617 247.305 301.142 247.53 301.832 247.53C302.277 247.53 302.659 247.432 302.979 247.237C303.304 247.037 303.554 246.75 303.729 246.375L305.514 246.915C305.204 247.645 304.724 248.212 304.074 248.617C303.429 249.022 302.717 249.225 301.937 249.225ZM299.147 245.452V244.087H304.719V245.452H299.147ZM312.66 249V245.1C312.66 244.845 312.643 244.562 312.608 244.252C312.573 243.942 312.49 243.645 312.36 243.36C312.235 243.07 312.045 242.832 311.79 242.647C311.54 242.462 311.2 242.37 310.77 242.37C310.54 242.37 310.313 242.407 310.088 242.482C309.863 242.557 309.658 242.687 309.473 242.872C309.293 243.052 309.148 243.302 309.038 243.622C308.928 243.937 308.873 244.342 308.873 244.837L307.8 244.38C307.8 243.69 307.933 243.065 308.198 242.505C308.468 241.945 308.863 241.5 309.383 241.17C309.903 240.835 310.543 240.667 311.303 240.667C311.903 240.667 312.398 240.767 312.788 240.967C313.178 241.167 313.488 241.422 313.718 241.732C313.948 242.042 314.118 242.372 314.228 242.722C314.338 243.072 314.408 243.405 314.438 243.72C314.473 244.03 314.49 244.282 314.49 244.477V249H312.66ZM307.043 249V240.9H308.655V243.412H308.873V249H307.043ZM321.195 249C320.66 249.1 320.135 249.143 319.62 249.128C319.11 249.118 318.652 249.025 318.247 248.85C317.842 248.67 317.535 248.387 317.325 248.002C317.14 247.652 317.042 247.295 317.032 246.93C317.022 246.565 317.017 246.152 317.017 245.692V238.65H318.817V245.587C318.817 245.912 318.82 246.197 318.825 246.442C318.835 246.687 318.887 246.887 318.982 247.042C319.162 247.342 319.45 247.51 319.845 247.545C320.24 247.58 320.69 247.56 321.195 247.485V249ZM315.547 242.317V240.9H321.195V242.317H315.547ZM323.087 239.67V238.012H324.894V239.67H323.087ZM323.087 249V240.9H324.894V249H323.087ZM327.846 249V240.772C327.846 240.567 327.853 240.342 327.868 240.097C327.883 239.847 327.926 239.6 327.996 239.355C328.066 239.11 328.193 238.887 328.378 238.687C328.608 238.432 328.856 238.257 329.121 238.162C329.391 238.062 329.656 238.007 329.916 237.997C330.176 237.982 330.403 237.975 330.598 237.975H331.611V239.445H330.673C330.328 239.445 330.071 239.532 329.901 239.707C329.736 239.877 329.653 240.102 329.653 240.382V249H327.846ZM326.541 242.317V240.9H331.611V242.317H326.541ZM333.875 252.6L335.435 248.317L335.465 249.578L331.932 240.9H333.815L336.32 247.32H335.84L338.277 240.9H340.085L335.57 252.6H333.875ZM348.954 249C348.419 249.1 347.894 249.143 347.379 249.128C346.869 249.118 346.411 249.025 346.006 248.85C345.601 248.67 345.294 248.387 345.084 248.002C344.899 247.652 344.801 247.295 344.791 246.93C344.781 246.565 344.776 246.152 344.776 245.692V238.65H346.576V245.587C346.576 245.912 346.579 246.197 346.584 246.442C346.594 246.687 346.646 246.887 346.741 247.042C346.921 247.342 347.209 247.51 347.604 247.545C347.999 247.58 348.449 247.56 348.954 247.485V249ZM343.306 242.317V240.9H348.954V242.317H343.306ZM356.298 249V245.1C356.298 244.845 356.281 244.562 356.246 244.252C356.211 243.942 356.128 243.645 355.998 243.36C355.873 243.07 355.683 242.832 355.428 242.647C355.178 242.462 354.838 242.37 354.408 242.37C354.178 242.37 353.951 242.407 353.726 242.482C353.501 242.557 353.296 242.687 353.111 242.872C352.931 243.052 352.786 243.302 352.676 243.622C352.566 243.937 352.511 244.342 352.511 244.837L351.438 244.38C351.438 243.69 351.571 243.065 351.836 242.505C352.106 241.945 352.501 241.5 353.021 241.17C353.541 240.835 354.181 240.667 354.941 240.667C355.541 240.667 356.036 240.767 356.426 240.967C356.816 241.167 357.126 241.422 357.356 241.732C357.586 242.042 357.756 242.372 357.866 242.722C357.976 243.072 358.046 243.405 358.076 243.72C358.111 244.03 358.128 244.282 358.128 244.477V249H356.298ZM350.681 249V238.2H352.293V243.885H352.511V249H350.681ZM363.768 249.225C362.948 249.225 362.228 249.048 361.608 248.692C360.988 248.337 360.503 247.845 360.153 247.215C359.808 246.585 359.635 245.86 359.635 245.04C359.635 244.155 359.805 243.387 360.145 242.737C360.485 242.082 360.958 241.575 361.563 241.215C362.168 240.855 362.868 240.675 363.663 240.675C364.503 240.675 365.215 240.872 365.8 241.267C366.39 241.657 366.828 242.21 367.113 242.925C367.398 243.64 367.505 244.482 367.435 245.452H365.643V244.792C365.638 243.912 365.483 243.27 365.178 242.865C364.873 242.46 364.393 242.257 363.738 242.257C362.998 242.257 362.448 242.487 362.088 242.947C361.728 243.402 361.548 244.07 361.548 244.95C361.548 245.77 361.728 246.405 362.088 246.855C362.448 247.305 362.973 247.53 363.663 247.53C364.108 247.53 364.49 247.432 364.81 247.237C365.135 247.037 365.385 246.75 365.56 246.375L367.345 246.915C367.035 247.645 366.555 248.212 365.905 248.617C365.26 249.022 364.548 249.225 363.768 249.225ZM360.978 245.452V244.087H366.55V245.452H360.978ZM376.004 249.225C375.214 249.225 374.552 249.038 374.017 248.662C373.482 248.287 373.079 247.777 372.809 247.132C372.539 246.482 372.404 245.755 372.404 244.95C372.404 244.135 372.539 243.405 372.809 242.76C373.079 242.115 373.474 241.607 373.994 241.237C374.519 240.862 375.167 240.675 375.937 240.675C376.702 240.675 377.364 240.862 377.924 241.237C378.489 241.607 378.927 242.115 379.237 242.76C379.547 243.4 379.702 244.13 379.702 244.95C379.702 245.76 379.549 246.487 379.244 247.132C378.939 247.777 378.509 248.287 377.954 248.662C377.399 249.038 376.749 249.225 376.004 249.225ZM372.097 252.6V240.9H373.694V246.585H373.919V252.6H372.097ZM375.727 247.605C376.197 247.605 376.584 247.487 376.889 247.252C377.194 247.017 377.419 246.7 377.564 246.3C377.714 245.895 377.789 245.445 377.789 244.95C377.789 244.46 377.714 244.015 377.564 243.615C377.414 243.21 377.182 242.89 376.867 242.655C376.552 242.415 376.152 242.295 375.667 242.295C375.207 242.295 374.832 242.407 374.542 242.632C374.252 242.852 374.037 243.162 373.897 243.562C373.762 243.957 373.694 244.42 373.694 244.95C373.694 245.475 373.762 245.937 373.897 246.337C374.037 246.737 374.254 247.05 374.549 247.275C374.849 247.495 375.242 247.605 375.727 247.605ZM381.505 249V237.975H383.312V249H381.505ZM387.824 249.225C387.239 249.225 386.744 249.115 386.339 248.895C385.934 248.67 385.626 248.372 385.416 248.002C385.211 247.632 385.109 247.225 385.109 246.78C385.109 246.39 385.174 246.04 385.304 245.73C385.434 245.415 385.634 245.145 385.904 244.92C386.174 244.69 386.524 244.502 386.954 244.357C387.279 244.252 387.659 244.157 388.094 244.072C388.534 243.987 389.009 243.91 389.519 243.84C390.034 243.765 390.571 243.685 391.131 243.6L390.486 243.967C390.491 243.407 390.366 242.995 390.111 242.73C389.856 242.465 389.426 242.332 388.821 242.332C388.456 242.332 388.104 242.417 387.764 242.587C387.424 242.757 387.186 243.05 387.051 243.465L385.401 242.947C385.601 242.262 385.981 241.712 386.541 241.297C387.106 240.882 387.866 240.675 388.821 240.675C389.541 240.675 390.174 240.792 390.719 241.027C391.269 241.262 391.676 241.647 391.941 242.182C392.086 242.467 392.174 242.76 392.204 243.06C392.234 243.355 392.249 243.677 392.249 244.027V249H390.666V247.245L390.929 247.53C390.564 248.115 390.136 248.545 389.646 248.82C389.161 249.09 388.554 249.225 387.824 249.225ZM388.184 247.785C388.594 247.785 388.944 247.712 389.234 247.567C389.524 247.422 389.754 247.245 389.924 247.035C390.099 246.825 390.216 246.627 390.276 246.442C390.371 246.212 390.424 245.95 390.434 245.655C390.449 245.355 390.456 245.112 390.456 244.927L391.011 245.092C390.466 245.177 389.999 245.252 389.609 245.317C389.219 245.382 388.884 245.445 388.604 245.505C388.324 245.56 388.076 245.622 387.861 245.692C387.651 245.767 387.474 245.855 387.329 245.955C387.184 246.055 387.071 246.17 386.991 246.3C386.916 246.43 386.879 246.582 386.879 246.757C386.879 246.957 386.929 247.135 387.029 247.29C387.129 247.44 387.274 247.56 387.464 247.65C387.659 247.74 387.899 247.785 388.184 247.785ZM399.804 249V245.1C399.804 244.845 399.786 244.562 399.751 244.252C399.716 243.942 399.634 243.645 399.504 243.36C399.379 243.07 399.189 242.832 398.934 242.647C398.684 242.462 398.344 242.37 397.914 242.37C397.684 242.37 397.456 242.407 397.231 242.482C397.006 242.557 396.801 242.687 396.616 242.872C396.436 243.052 396.291 243.302 396.181 243.622C396.071 243.937 396.016 244.342 396.016 244.837L394.944 244.38C394.944 243.69 395.076 243.065 395.341 242.505C395.611 241.945 396.006 241.5 396.526 241.17C397.046 240.835 397.686 240.667 398.446 240.667C399.046 240.667 399.541 240.767 399.931 240.967C400.321 241.167 400.631 241.422 400.861 241.732C401.091 242.042 401.261 242.372 401.371 242.722C401.481 243.072 401.551 243.405 401.581 243.72C401.616 244.03 401.634 244.282 401.634 244.477V249H399.804ZM394.186 249V240.9H395.799V243.412H396.016V249H394.186ZM407.142 249.225C406.322 249.225 405.602 249.048 404.982 248.692C404.362 248.337 403.877 247.845 403.527 247.215C403.182 246.585 403.009 245.86 403.009 245.04C403.009 244.155 403.179 243.387 403.519 242.737C403.859 242.082 404.332 241.575 404.937 241.215C405.542 240.855 406.242 240.675 407.037 240.675C407.877 240.675 408.589 240.872 409.174 241.267C409.764 241.657 410.202 242.21 410.487 242.925C410.772 243.64 410.879 244.482 410.809 245.452H409.017V244.792C409.012 243.912 408.857 243.27 408.552 242.865C408.247 242.46 407.767 242.257 407.112 242.257C406.372 242.257 405.822 242.487 405.462 242.947C405.102 243.402 404.922 244.07 404.922 244.95C404.922 245.77 405.102 246.405 405.462 246.855C405.822 247.305 406.347 247.53 407.037 247.53C407.482 247.53 407.864 247.432 408.184 247.237C408.509 247.037 408.759 246.75 408.934 246.375L410.719 246.915C410.409 247.645 409.929 248.212 409.279 248.617C408.634 249.022 407.922 249.225 407.142 249.225ZM404.352 245.452V244.087H409.924V245.452H404.352ZM417.23 249C416.695 249.1 416.17 249.143 415.655 249.128C415.145 249.118 414.688 249.025 414.283 248.85C413.878 248.67 413.57 248.387 413.36 248.002C413.175 247.652 413.078 247.295 413.068 246.93C413.058 246.565 413.053 246.152 413.053 245.692V238.65H414.853V245.587C414.853 245.912 414.855 246.197 414.86 246.442C414.87 246.687 414.923 246.887 415.018 247.042C415.198 247.342 415.485 247.51 415.88 247.545C416.275 247.58 416.725 247.56 417.23 247.485V249ZM411.583 242.317V240.9H417.23V242.317H411.583ZM425.552 249.225C424.742 249.225 424.035 249.043 423.43 248.677C422.825 248.312 422.355 247.81 422.02 247.17C421.69 246.525 421.525 245.785 421.525 244.95C421.525 244.1 421.695 243.355 422.035 242.715C422.375 242.075 422.847 241.575 423.452 241.215C424.057 240.855 424.757 240.675 425.552 240.675C426.367 240.675 427.077 240.857 427.682 241.222C428.287 241.587 428.757 242.092 429.092 242.737C429.427 243.377 429.595 244.115 429.595 244.95C429.595 245.79 429.425 246.532 429.085 247.177C428.75 247.817 428.28 248.32 427.675 248.685C427.07 249.045 426.362 249.225 425.552 249.225ZM425.552 247.53C426.272 247.53 426.807 247.29 427.157 246.81C427.507 246.33 427.682 245.71 427.682 244.95C427.682 244.165 427.505 243.54 427.15 243.075C426.795 242.605 426.262 242.37 425.552 242.37C425.067 242.37 424.667 242.48 424.352 242.7C424.042 242.915 423.812 243.217 423.662 243.607C423.512 243.992 423.437 244.44 423.437 244.95C423.437 245.735 423.615 246.362 423.97 246.832C424.33 247.297 424.857 247.53 425.552 247.53ZM431.247 249V240.9H432.845V242.872L432.65 242.617C432.75 242.347 432.882 242.102 433.047 241.882C433.217 241.657 433.42 241.472 433.655 241.327C433.855 241.192 434.075 241.087 434.315 241.012C434.56 240.932 434.81 240.885 435.065 240.87C435.32 240.85 435.567 240.86 435.807 240.9V242.587C435.567 242.517 435.29 242.495 434.975 242.52C434.665 242.545 434.385 242.632 434.135 242.782C433.885 242.917 433.68 243.09 433.52 243.3C433.365 243.51 433.25 243.75 433.175 244.02C433.1 244.285 433.062 244.572 433.062 244.882V249H431.247ZM437.388 239.67V238.012H439.196V239.67H437.388ZM437.388 249V240.9H439.196V249H437.388ZM445.125 249.225C444.305 249.225 443.585 249.048 442.965 248.692C442.345 248.337 441.86 247.845 441.51 247.215C441.165 246.585 440.993 245.86 440.993 245.04C440.993 244.155 441.163 243.387 441.503 242.737C441.843 242.082 442.315 241.575 442.92 241.215C443.525 240.855 444.225 240.675 445.02 240.675C445.86 240.675 446.573 240.872 447.158 241.267C447.748 241.657 448.185 242.21 448.47 242.925C448.755 243.64 448.863 244.482 448.793 245.452H447V244.792C446.995 243.912 446.84 243.27 446.535 242.865C446.23 242.46 445.75 242.257 445.095 242.257C444.355 242.257 443.805 242.487 443.445 242.947C443.085 243.402 442.905 244.07 442.905 244.95C442.905 245.77 443.085 246.405 443.445 246.855C443.805 247.305 444.33 247.53 445.02 247.53C445.465 247.53 445.848 247.432 446.168 247.237C446.493 247.037 446.743 246.75 446.918 246.375L448.703 246.915C448.393 247.645 447.913 248.212 447.263 248.617C446.618 249.022 445.905 249.225 445.125 249.225ZM442.335 245.452V244.087H447.908V245.452H442.335ZM455.849 249V245.1C455.849 244.845 455.831 244.562 455.796 244.252C455.761 243.942 455.679 243.645 455.549 243.36C455.424 243.07 455.234 242.832 454.979 242.647C454.729 242.462 454.389 242.37 453.959 242.37C453.729 242.37 453.501 242.407 453.276 242.482C453.051 242.557 452.846 242.687 452.661 242.872C452.481 243.052 452.336 243.302 452.226 243.622C452.116 243.937 452.061 244.342 452.061 244.837L450.989 244.38C450.989 243.69 451.121 243.065 451.386 242.505C451.656 241.945 452.051 241.5 452.571 241.17C453.091 240.835 453.731 240.667 454.491 240.667C455.091 240.667 455.586 240.767 455.976 240.967C456.366 241.167 456.676 241.422 456.906 241.732C457.136 242.042 457.306 242.372 457.416 242.722C457.526 243.072 457.596 243.405 457.626 243.72C457.661 244.03 457.679 244.282 457.679 244.477V249H455.849ZM450.231 249V240.9H451.844V243.412H452.061V249H450.231ZM464.383 249C463.848 249.1 463.323 249.143 462.808 249.128C462.298 249.118 461.841 249.025 461.436 248.85C461.031 248.67 460.723 248.387 460.513 248.002C460.328 247.652 460.231 247.295 460.221 246.93C460.211 246.565 460.206 246.152 460.206 245.692V238.65H462.006V245.587C462.006 245.912 462.008 246.197 462.013 246.442C462.023 246.687 462.076 246.887 462.171 247.042C462.351 247.342 462.638 247.51 463.033 247.545C463.428 247.58 463.878 247.56 464.383 247.485V249ZM458.736 242.317V240.9H464.383V242.317H458.736ZM469.398 249.225C468.578 249.225 467.858 249.048 467.238 248.692C466.618 248.337 466.133 247.845 465.783 247.215C465.438 246.585 465.265 245.86 465.265 245.04C465.265 244.155 465.435 243.387 465.775 242.737C466.115 242.082 466.588 241.575 467.193 241.215C467.798 240.855 468.498 240.675 469.293 240.675C470.133 240.675 470.845 240.872 471.43 241.267C472.02 241.657 472.458 242.21 472.743 242.925C473.028 243.64 473.135 244.482 473.065 245.452H471.273V244.792C471.268 243.912 471.113 243.27 470.808 242.865C470.503 242.46 470.023 242.257 469.368 242.257C468.628 242.257 468.078 242.487 467.718 242.947C467.358 243.402 467.178 244.07 467.178 244.95C467.178 245.77 467.358 246.405 467.718 246.855C468.078 247.305 468.603 247.53 469.293 247.53C469.738 247.53 470.12 247.432 470.44 247.237C470.765 247.037 471.015 246.75 471.19 246.375L472.975 246.915C472.665 247.645 472.185 248.212 471.535 248.617C470.89 249.022 470.178 249.225 469.398 249.225ZM466.608 245.452V244.087H472.18V245.452H466.608ZM477.986 249.225C477.241 249.225 476.591 249.038 476.036 248.662C475.481 248.287 475.051 247.777 474.746 247.132C474.441 246.487 474.288 245.76 474.288 244.95C474.288 244.13 474.441 243.4 474.746 242.76C475.056 242.115 475.493 241.607 476.058 241.237C476.623 240.862 477.288 240.675 478.053 240.675C478.823 240.675 479.468 240.862 479.988 241.237C480.513 241.607 480.911 242.115 481.181 242.76C481.451 243.405 481.586 244.135 481.586 244.95C481.586 245.755 481.451 246.482 481.181 247.132C480.911 247.777 480.508 248.287 479.973 248.662C479.438 249.038 478.776 249.225 477.986 249.225ZM478.263 247.605C478.748 247.605 479.138 247.495 479.433 247.275C479.733 247.05 479.951 246.737 480.086 246.337C480.226 245.937 480.296 245.475 480.296 244.95C480.296 244.42 480.226 243.957 480.086 243.562C479.951 243.162 479.738 242.852 479.448 242.632C479.158 242.407 478.783 242.295 478.323 242.295C477.838 242.295 477.438 242.415 477.123 242.655C476.808 242.89 476.576 243.21 476.426 243.615C476.276 244.015 476.201 244.46 476.201 244.95C476.201 245.445 476.273 245.895 476.418 246.3C476.568 246.7 476.796 247.017 477.101 247.252C477.406 247.487 477.793 247.605 478.263 247.605ZM480.296 249V243.315H480.071V238.2H481.893V249H480.296ZM490.892 249.225C490.102 249.225 489.439 249.038 488.904 248.662C488.369 248.287 487.967 247.777 487.697 247.132C487.427 246.482 487.292 245.755 487.292 244.95C487.292 244.135 487.427 243.405 487.697 242.76C487.967 242.115 488.362 241.607 488.882 241.237C489.407 240.862 490.054 240.675 490.824 240.675C491.589 240.675 492.252 240.862 492.812 241.237C493.377 241.607 493.814 242.115 494.124 242.76C494.434 243.4 494.589 244.13 494.589 244.95C494.589 245.76 494.437 246.487 494.132 247.132C493.827 247.777 493.397 248.287 492.842 248.662C492.287 249.038 491.637 249.225 490.892 249.225ZM486.984 252.6V240.9H488.582V246.585H488.807V252.6H486.984ZM490.614 247.605C491.084 247.605 491.472 247.487 491.777 247.252C492.082 247.017 492.307 246.7 492.452 246.3C492.602 245.895 492.677 245.445 492.677 244.95C492.677 244.46 492.602 244.015 492.452 243.615C492.302 243.21 492.069 242.89 491.754 242.655C491.439 242.415 491.039 242.295 490.554 242.295C490.094 242.295 489.719 242.407 489.429 242.632C489.139 242.852 488.924 243.162 488.784 243.562C488.649 243.957 488.582 244.42 488.582 244.95C488.582 245.475 488.649 245.937 488.784 246.337C488.924 246.737 489.142 247.05 489.437 247.275C489.737 247.495 490.129 247.605 490.614 247.605ZM499.925 249.225C499.105 249.225 498.385 249.048 497.765 248.692C497.145 248.337 496.66 247.845 496.31 247.215C495.965 246.585 495.792 245.86 495.792 245.04C495.792 244.155 495.962 243.387 496.302 242.737C496.642 242.082 497.115 241.575 497.72 241.215C498.325 240.855 499.025 240.675 499.82 240.675C500.66 240.675 501.372 240.872 501.957 241.267C502.547 241.657 502.985 242.21 503.27 242.925C503.555 243.64 503.662 244.482 503.592 245.452H501.8V244.792C501.795 243.912 501.64 243.27 501.335 242.865C501.03 242.46 500.55 242.257 499.895 242.257C499.155 242.257 498.605 242.487 498.245 242.947C497.885 243.402 497.705 244.07 497.705 244.95C497.705 245.77 497.885 246.405 498.245 246.855C498.605 247.305 499.13 247.53 499.82 247.53C500.265 247.53 500.647 247.432 500.967 247.237C501.292 247.037 501.542 246.75 501.717 246.375L503.502 246.915C503.192 247.645 502.712 248.212 502.062 248.617C501.417 249.022 500.705 249.225 499.925 249.225ZM497.135 245.452V244.087H502.707V245.452H497.135ZM505.266 249V240.9H506.863V242.872L506.668 242.617C506.768 242.347 506.901 242.102 507.066 241.882C507.236 241.657 507.438 241.472 507.673 241.327C507.873 241.192 508.093 241.087 508.333 241.012C508.578 240.932 508.828 240.885 509.083 240.87C509.338 240.85 509.586 240.86 509.826 240.9V242.587C509.586 242.517 509.308 242.495 508.993 242.52C508.683 242.545 508.403 242.632 508.153 242.782C507.903 242.917 507.698 243.09 507.538 243.3C507.383 243.51 507.268 243.75 507.193 244.02C507.118 244.285 507.081 244.572 507.081 244.882V249H505.266ZM514.092 249.225C513.092 249.225 512.279 249 511.654 248.55C511.029 248.1 510.649 247.467 510.514 246.652L512.359 246.367C512.454 246.767 512.664 247.082 512.989 247.312C513.314 247.542 513.724 247.657 514.219 247.657C514.654 247.657 514.989 247.572 515.224 247.402C515.464 247.227 515.584 246.99 515.584 246.69C515.584 246.505 515.539 246.357 515.449 246.247C515.364 246.132 515.174 246.022 514.879 245.917C514.584 245.812 514.132 245.68 513.522 245.52C512.842 245.34 512.302 245.147 511.902 244.942C511.502 244.732 511.214 244.485 511.039 244.2C510.864 243.915 510.777 243.57 510.777 243.165C510.777 242.66 510.909 242.22 511.174 241.845C511.439 241.47 511.809 241.182 512.284 240.982C512.759 240.777 513.319 240.675 513.964 240.675C514.594 240.675 515.152 240.772 515.637 240.967C516.127 241.162 516.522 241.44 516.822 241.8C517.122 242.16 517.307 242.582 517.377 243.067L515.532 243.397C515.487 243.052 515.329 242.78 515.059 242.58C514.794 242.38 514.439 242.267 513.994 242.242C513.569 242.217 513.227 242.282 512.967 242.437C512.707 242.587 512.577 242.8 512.577 243.075C512.577 243.23 512.629 243.362 512.734 243.472C512.839 243.582 513.049 243.692 513.364 243.802C513.684 243.912 514.159 244.047 514.789 244.207C515.434 244.372 515.949 244.562 516.334 244.777C516.724 244.987 517.004 245.24 517.174 245.535C517.349 245.83 517.437 246.187 517.437 246.607C517.437 247.422 517.139 248.062 516.544 248.527C515.954 248.993 515.137 249.225 514.092 249.225ZM522.657 249.225C521.847 249.225 521.139 249.043 520.534 248.677C519.929 248.312 519.459 247.81 519.124 247.17C518.794 246.525 518.629 245.785 518.629 244.95C518.629 244.1 518.799 243.355 519.139 242.715C519.479 242.075 519.952 241.575 520.557 241.215C521.162 240.855 521.862 240.675 522.657 240.675C523.472 240.675 524.182 240.857 524.787 241.222C525.392 241.587 525.862 242.092 526.197 242.737C526.532 243.377 526.699 244.115 526.699 244.95C526.699 245.79 526.529 246.532 526.189 247.177C525.854 247.817 525.384 248.32 524.779 248.685C524.174 249.045 523.467 249.225 522.657 249.225ZM522.657 247.53C523.377 247.53 523.912 247.29 524.262 246.81C524.612 246.33 524.787 245.71 524.787 244.95C524.787 244.165 524.609 243.54 524.254 243.075C523.899 242.605 523.367 242.37 522.657 242.37C522.172 242.37 521.772 242.48 521.457 242.7C521.147 242.915 520.917 243.217 520.767 243.607C520.617 243.992 520.542 244.44 520.542 244.95C520.542 245.735 520.719 246.362 521.074 246.832C521.434 247.297 521.962 247.53 522.657 247.53ZM533.954 249V245.1C533.954 244.845 533.937 244.562 533.902 244.252C533.867 243.942 533.784 243.645 533.654 243.36C533.529 243.07 533.339 242.832 533.084 242.647C532.834 242.462 532.494 242.37 532.064 242.37C531.834 242.37 531.607 242.407 531.382 242.482C531.157 242.557 530.952 242.687 530.767 242.872C530.587 243.052 530.442 243.302 530.332 243.622C530.222 243.937 530.167 244.342 530.167 244.837L529.094 244.38C529.094 243.69 529.227 243.065 529.492 242.505C529.762 241.945 530.157 241.5 530.677 241.17C531.197 240.835 531.837 240.667 532.597 240.667C533.197 240.667 533.692 240.767 534.082 240.967C534.472 241.167 534.782 241.422 535.012 241.732C535.242 242.042 535.412 242.372 535.522 242.722C535.632 243.072 535.702 243.405 535.732 243.72C535.767 244.03 535.784 244.282 535.784 244.477V249H533.954ZM528.337 249V240.9H529.949V243.412H530.167V249H528.337ZM540.869 249.225C539.869 249.225 539.056 249 538.431 248.55C537.806 248.1 537.426 247.467 537.291 246.652L539.136 246.367C539.231 246.767 539.441 247.082 539.766 247.312C540.091 247.542 540.501 247.657 540.996 247.657C541.431 247.657 541.766 247.572 542.001 247.402C542.241 247.227 542.361 246.99 542.361 246.69C542.361 246.505 542.316 246.357 542.226 246.247C542.141 246.132 541.951 246.022 541.656 245.917C541.361 245.812 540.909 245.68 540.299 245.52C539.619 245.34 539.079 245.147 538.679 244.942C538.279 244.732 537.991 244.485 537.816 244.2C537.641 243.915 537.554 243.57 537.554 243.165C537.554 242.66 537.686 242.22 537.951 241.845C538.216 241.47 538.586 241.182 539.061 240.982C539.536 240.777 540.096 240.675 540.741 240.675C541.371 240.675 541.929 240.772 542.414 240.967C542.904 241.162 543.299 241.44 543.599 241.8C543.899 242.16 544.084 242.582 544.154 243.067L542.309 243.397C542.264 243.052 542.106 242.78 541.836 242.58C541.571 242.38 541.216 242.267 540.771 242.242C540.346 242.217 540.004 242.282 539.744 242.437C539.484 242.587 539.354 242.8 539.354 243.075C539.354 243.23 539.406 243.362 539.511 243.472C539.616 243.582 539.826 243.692 540.141 243.802C540.461 243.912 540.936 244.047 541.566 244.207C542.211 244.372 542.726 244.562 543.111 244.777C543.501 244.987 543.781 245.24 543.951 245.535C544.126 245.83 544.214 246.187 544.214 246.607C544.214 247.422 543.916 248.062 543.321 248.527C542.731 248.993 541.914 249.225 540.869 249.225ZM551.125 249.225C550.54 249.225 550.045 249.115 549.64 248.895C549.235 248.67 548.927 248.372 548.717 248.002C548.512 247.632 548.41 247.225 548.41 246.78C548.41 246.39 548.475 246.04 548.605 245.73C548.735 245.415 548.935 245.145 549.205 244.92C549.475 244.69 549.825 244.502 550.255 244.357C550.58 244.252 550.96 244.157 551.395 244.072C551.835 243.987 552.31 243.91 552.82 243.84C553.335 243.765 553.872 243.685 554.432 243.6L553.787 243.967C553.792 243.407 553.667 242.995 553.412 242.73C553.157 242.465 552.727 242.332 552.122 242.332C551.757 242.332 551.405 242.417 551.065 242.587C550.725 242.757 550.487 243.05 550.352 243.465L548.702 242.947C548.902 242.262 549.282 241.712 549.842 241.297C550.407 240.882 551.167 240.675 552.122 240.675C552.842 240.675 553.475 240.792 554.02 241.027C554.57 241.262 554.977 241.647 555.242 242.182C555.387 242.467 555.475 242.76 555.505 243.06C555.535 243.355 555.55 243.677 555.55 244.027V249H553.967V247.245L554.23 247.53C553.865 248.115 553.437 248.545 552.947 248.82C552.462 249.09 551.855 249.225 551.125 249.225ZM551.485 247.785C551.895 247.785 552.245 247.712 552.535 247.567C552.825 247.422 553.055 247.245 553.225 247.035C553.4 246.825 553.517 246.627 553.577 246.442C553.672 246.212 553.725 245.95 553.735 245.655C553.75 245.355 553.757 245.112 553.757 244.927L554.312 245.092C553.767 245.177 553.3 245.252 552.91 245.317C552.52 245.382 552.185 245.445 551.905 245.505C551.625 245.56 551.377 245.622 551.162 245.692C550.952 245.767 550.775 245.855 550.63 245.955C550.485 246.055 550.372 246.17 550.292 246.3C550.217 246.43 550.18 246.582 550.18 246.757C550.18 246.957 550.23 247.135 550.33 247.29C550.43 247.44 550.575 247.56 550.765 247.65C550.96 247.74 551.2 247.785 551.485 247.785ZM563.105 249V245.1C563.105 244.845 563.087 244.562 563.052 244.252C563.017 243.942 562.935 243.645 562.805 243.36C562.68 243.07 562.49 242.832 562.235 242.647C561.985 242.462 561.645 242.37 561.215 242.37C560.985 242.37 560.757 242.407 560.532 242.482C560.307 242.557 560.102 242.687 559.917 242.872C559.737 243.052 559.592 243.302 559.482 243.622C559.372 243.937 559.317 244.342 559.317 244.837L558.245 244.38C558.245 243.69 558.377 243.065 558.642 242.505C558.912 241.945 559.307 241.5 559.827 241.17C560.347 240.835 560.987 240.667 561.747 240.667C562.347 240.667 562.842 240.767 563.232 240.967C563.622 241.167 563.932 241.422 564.162 241.732C564.392 242.042 564.562 242.372 564.672 242.722C564.782 243.072 564.852 243.405 564.882 243.72C564.917 244.03 564.935 244.282 564.935 244.477V249H563.105ZM557.487 249V240.9H559.1V243.412H559.317V249H557.487ZM570.007 249.225C569.262 249.225 568.612 249.038 568.057 248.662C567.502 248.287 567.072 247.777 566.767 247.132C566.462 246.487 566.31 245.76 566.31 244.95C566.31 244.13 566.462 243.4 566.767 242.76C567.077 242.115 567.515 241.607 568.08 241.237C568.645 240.862 569.31 240.675 570.075 240.675C570.845 240.675 571.49 240.862 572.01 241.237C572.535 241.607 572.932 242.115 573.202 242.76C573.472 243.405 573.607 244.135 573.607 244.95C573.607 245.755 573.472 246.482 573.202 247.132C572.932 247.777 572.53 248.287 571.995 248.662C571.46 249.038 570.797 249.225 570.007 249.225ZM570.285 247.605C570.77 247.605 571.16 247.495 571.455 247.275C571.755 247.05 571.972 246.737 572.107 246.337C572.247 245.937 572.317 245.475 572.317 244.95C572.317 244.42 572.247 243.957 572.107 243.562C571.972 243.162 571.76 242.852 571.47 242.632C571.18 242.407 570.805 242.295 570.345 242.295C569.86 242.295 569.46 242.415 569.145 242.655C568.83 242.89 568.597 243.21 568.447 243.615C568.297 244.015 568.222 244.46 568.222 244.95C568.222 245.445 568.295 245.895 568.44 246.3C568.59 246.7 568.817 247.017 569.122 247.252C569.427 247.487 569.815 247.605 570.285 247.605ZM572.317 249V243.315H572.092V238.2H573.915V249H572.317ZM583.768 249C583.233 249.1 582.708 249.143 582.193 249.128C581.683 249.118 581.226 249.025 580.821 248.85C580.416 248.67 580.108 248.387 579.898 248.002C579.713 247.652 579.616 247.295 579.606 246.93C579.596 246.565 579.591 246.152 579.591 245.692V238.65H581.391V245.587C581.391 245.912 581.393 246.197 581.398 246.442C581.408 246.687 581.461 246.887 581.556 247.042C581.736 247.342 582.023 247.51 582.418 247.545C582.813 247.58 583.263 247.56 583.768 247.485V249ZM578.121 242.317V240.9H583.768V242.317H578.121ZM588.677 249.225C587.867 249.225 587.16 249.043 586.555 248.677C585.95 248.312 585.48 247.81 585.145 247.17C584.815 246.525 584.65 245.785 584.65 244.95C584.65 244.1 584.82 243.355 585.16 242.715C585.5 242.075 585.972 241.575 586.577 241.215C587.182 240.855 587.882 240.675 588.677 240.675C589.492 240.675 590.202 240.857 590.807 241.222C591.412 241.587 591.882 242.092 592.217 242.737C592.552 243.377 592.72 244.115 592.72 244.95C592.72 245.79 592.55 246.532 592.21 247.177C591.875 247.817 591.405 248.32 590.8 248.685C590.195 249.045 589.487 249.225 588.677 249.225ZM588.677 247.53C589.397 247.53 589.932 247.29 590.282 246.81C590.632 246.33 590.807 245.71 590.807 244.95C590.807 244.165 590.63 243.54 590.275 243.075C589.92 242.605 589.387 242.37 588.677 242.37C588.192 242.37 587.792 242.48 587.477 242.7C587.167 242.915 586.937 243.217 586.787 243.607C586.637 243.992 586.562 244.44 586.562 244.95C586.562 245.735 586.74 246.362 587.095 246.832C587.455 247.297 587.982 247.53 588.677 247.53ZM600.893 249.225C600.058 249.225 599.345 249.04 598.755 248.67C598.165 248.295 597.713 247.785 597.398 247.14C597.088 246.495 596.93 245.765 596.925 244.95C596.93 244.12 597.093 243.385 597.413 242.745C597.738 242.1 598.198 241.595 598.793 241.23C599.388 240.86 600.095 240.675 600.915 240.675C601.835 240.675 602.613 240.907 603.248 241.372C603.888 241.832 604.305 242.462 604.5 243.262L602.7 243.75C602.56 243.315 602.328 242.977 602.003 242.737C601.678 242.492 601.308 242.37 600.893 242.37C600.423 242.37 600.035 242.482 599.73 242.707C599.425 242.927 599.2 243.232 599.055 243.622C598.91 244.012 598.838 244.455 598.838 244.95C598.838 245.72 599.01 246.342 599.355 246.817C599.7 247.292 600.213 247.53 600.893 247.53C601.373 247.53 601.75 247.42 602.025 247.2C602.305 246.98 602.515 246.662 602.655 246.247L604.5 246.66C604.25 247.485 603.813 248.12 603.188 248.565C602.563 249.005 601.798 249.225 600.893 249.225ZM609.361 249.225C608.551 249.225 607.843 249.043 607.238 248.677C606.633 248.312 606.163 247.81 605.828 247.17C605.498 246.525 605.333 245.785 605.333 244.95C605.333 244.1 605.503 243.355 605.843 242.715C606.183 242.075 606.656 241.575 607.261 241.215C607.866 240.855 608.566 240.675 609.361 240.675C610.176 240.675 610.886 240.857 611.491 241.222C612.096 241.587 612.566 242.092 612.901 242.737C613.236 243.377 613.403 244.115 613.403 244.95C613.403 245.79 613.233 246.532 612.893 247.177C612.558 247.817 612.088 248.32 611.483 248.685C610.878 249.045 610.171 249.225 609.361 249.225ZM609.361 247.53C610.081 247.53 610.616 247.29 610.966 246.81C611.316 246.33 611.491 245.71 611.491 244.95C611.491 244.165 611.313 243.54 610.958 243.075C610.603 242.605 610.071 242.37 609.361 242.37C608.876 242.37 608.476 242.48 608.161 242.7C607.851 242.915 607.621 243.217 607.471 243.607C607.321 243.992 607.246 244.44 607.246 244.95C607.246 245.735 607.423 246.362 607.778 246.832C608.138 247.297 608.666 247.53 609.361 247.53ZM620.658 249V245.1C620.658 244.845 620.641 244.562 620.606 244.252C620.571 243.942 620.488 243.645 620.358 243.36C620.233 243.07 620.043 242.832 619.788 242.647C619.538 242.462 619.198 242.37 618.768 242.37C618.538 242.37 618.311 242.407 618.086 242.482C617.861 242.557 617.656 242.687 617.471 242.872C617.291 243.052 617.146 243.302 617.036 243.622C616.926 243.937 616.871 244.342 616.871 244.837L615.798 244.38C615.798 243.69 615.931 243.065 616.196 242.505C616.466 241.945 616.861 241.5 617.381 241.17C617.901 240.835 618.541 240.667 619.301 240.667C619.901 240.667 620.396 240.767 620.786 240.967C621.176 241.167 621.486 241.422 621.716 241.732C621.946 242.042 622.116 242.372 622.226 242.722C622.336 243.072 622.406 243.405 622.436 243.72C622.471 244.03 622.488 244.282 622.488 244.477V249H620.658ZM615.041 249V240.9H616.653V243.412H616.871V249H615.041ZM626.636 249L623.696 240.9H625.503L627.543 246.772L629.576 240.9H631.391L628.451 249H626.636ZM636.126 249.225C635.306 249.225 634.586 249.048 633.966 248.692C633.346 248.337 632.861 247.845 632.511 247.215C632.166 246.585 631.994 245.86 631.994 245.04C631.994 244.155 632.164 243.387 632.504 242.737C632.844 242.082 633.316 241.575 633.921 241.215C634.526 240.855 635.226 240.675 636.021 240.675C636.861 240.675 637.574 240.872 638.159 241.267C638.749 241.657 639.186 242.21 639.471 242.925C639.756 243.64 639.864 244.482 639.794 245.452H638.001V244.792C637.996 243.912 637.841 243.27 637.536 242.865C637.231 242.46 636.751 242.257 636.096 242.257C635.356 242.257 634.806 242.487 634.446 242.947C634.086 243.402 633.906 244.07 633.906 244.95C633.906 245.77 634.086 246.405 634.446 246.855C634.806 247.305 635.331 247.53 636.021 247.53C636.466 247.53 636.849 247.432 637.169 247.237C637.494 247.037 637.744 246.75 637.919 246.375L639.704 246.915C639.394 247.645 638.914 248.212 638.264 248.617C637.619 249.022 636.906 249.225 636.126 249.225ZM633.336 245.452V244.087H638.909V245.452H633.336ZM641.467 249V240.9H643.064V242.872L642.869 242.617C642.969 242.347 643.102 242.102 643.267 241.882C643.437 241.657 643.639 241.472 643.874 241.327C644.074 241.192 644.294 241.087 644.534 241.012C644.779 240.932 645.029 240.885 645.284 240.87C645.539 240.85 645.787 240.86 646.027 240.9V242.587C645.787 242.517 645.509 242.495 645.194 242.52C644.884 242.545 644.604 242.632 644.354 242.782C644.104 242.917 643.899 243.09 643.739 243.3C643.584 243.51 643.469 243.75 643.394 244.02C643.319 244.285 643.282 244.572 643.282 244.882V249H641.467ZM652.206 249C651.671 249.1 651.146 249.143 650.631 249.128C650.121 249.118 649.663 249.025 649.258 248.85C648.853 248.67 648.546 248.387 648.336 248.002C648.151 247.652 648.053 247.295 648.043 246.93C648.033 246.565 648.028 246.152 648.028 245.692V238.65H649.828V245.587C649.828 245.912 649.831 246.197 649.836 246.442C649.846 246.687 649.898 246.887 649.993 247.042C650.173 247.342 650.461 247.51 650.856 247.545C651.251 247.58 651.701 247.56 652.206 247.485V249ZM646.558 242.317V240.9H652.206V242.317H646.558ZM660.843 249.225C660.053 249.225 659.39 249.038 658.855 248.662C658.32 248.287 657.918 247.777 657.648 247.132C657.378 246.482 657.243 245.755 657.243 244.95C657.243 244.135 657.378 243.405 657.648 242.76C657.918 242.115 658.313 241.607 658.833 241.237C659.358 240.862 660.005 240.675 660.775 240.675C661.54 240.675 662.203 240.862 662.763 241.237C663.328 241.607 663.765 242.115 664.075 242.76C664.385 243.4 664.54 244.13 664.54 244.95C664.54 245.76 664.388 246.487 664.083 247.132C663.778 247.777 663.348 248.287 662.793 248.662C662.238 249.038 661.588 249.225 660.843 249.225ZM656.935 252.6V240.9H658.533V246.585H658.758V252.6H656.935ZM660.565 247.605C661.035 247.605 661.423 247.487 661.728 247.252C662.033 247.017 662.258 246.7 662.403 246.3C662.553 245.895 662.628 245.445 662.628 244.95C662.628 244.46 662.553 244.015 662.403 243.615C662.253 243.21 662.02 242.89 661.705 242.655C661.39 242.415 660.99 242.295 660.505 242.295C660.045 242.295 659.67 242.407 659.38 242.632C659.09 242.852 658.875 243.162 658.735 243.562C658.6 243.957 658.533 244.42 658.533 244.95C658.533 245.475 658.6 245.937 658.735 246.337C658.875 246.737 659.093 247.05 659.388 247.275C659.688 247.495 660.08 247.605 660.565 247.605ZM669.876 249.225C669.056 249.225 668.336 249.048 667.716 248.692C667.096 248.337 666.611 247.845 666.261 247.215C665.916 246.585 665.744 245.86 665.744 245.04C665.744 244.155 665.914 243.387 666.254 242.737C666.594 242.082 667.066 241.575 667.671 241.215C668.276 240.855 668.976 240.675 669.771 240.675C670.611 240.675 671.324 240.872 671.909 241.267C672.499 241.657 672.936 242.21 673.221 242.925C673.506 243.64 673.614 244.482 673.544 245.452H671.751V244.792C671.746 243.912 671.591 243.27 671.286 242.865C670.981 242.46 670.501 242.257 669.846 242.257C669.106 242.257 668.556 242.487 668.196 242.947C667.836 243.402 667.656 244.07 667.656 244.95C667.656 245.77 667.836 246.405 668.196 246.855C668.556 247.305 669.081 247.53 669.771 247.53C670.216 247.53 670.599 247.432 670.919 247.237C671.244 247.037 671.494 246.75 671.669 246.375L673.454 246.915C673.144 247.645 672.664 248.212 672.014 248.617C671.369 249.022 670.656 249.225 669.876 249.225ZM667.086 245.452V244.087H672.659V245.452H667.086ZM675.217 249V240.9H676.814V242.872L676.619 242.617C676.719 242.347 676.852 242.102 677.017 241.882C677.187 241.657 677.389 241.472 677.624 241.327C677.824 241.192 678.044 241.087 678.284 241.012C678.529 240.932 678.779 240.885 679.034 240.87C679.289 240.85 679.537 240.86 679.777 240.9V242.587C679.537 242.517 679.259 242.495 678.944 242.52C678.634 242.545 678.354 242.632 678.104 242.782C677.854 242.917 677.649 243.09 677.489 243.3C677.334 243.51 677.219 243.75 677.144 244.02C677.069 244.285 677.032 244.572 677.032 244.882V249H675.217ZM684.043 249.225C683.043 249.225 682.23 249 681.605 248.55C680.98 248.1 680.6 247.467 680.465 246.652L682.31 246.367C682.405 246.767 682.615 247.082 682.94 247.312C683.265 247.542 683.675 247.657 684.17 247.657C684.605 247.657 684.94 247.572 685.175 247.402C685.415 247.227 685.535 246.99 685.535 246.69C685.535 246.505 685.49 246.357 685.4 246.247C685.315 246.132 685.125 246.022 684.83 245.917C684.535 245.812 684.083 245.68 683.473 245.52C682.793 245.34 682.253 245.147 681.853 244.942C681.453 244.732 681.165 244.485 680.99 244.2C680.815 243.915 680.728 243.57 680.728 243.165C680.728 242.66 680.86 242.22 681.125 241.845C681.39 241.47 681.76 241.182 682.235 240.982C682.71 240.777 683.27 240.675 683.915 240.675C684.545 240.675 685.103 240.772 685.588 240.967C686.078 241.162 686.473 241.44 686.773 241.8C687.073 242.16 687.258 242.582 687.328 243.067L685.483 243.397C685.438 243.052 685.28 242.78 685.01 242.58C684.745 242.38 684.39 242.267 683.945 242.242C683.52 242.217 683.178 242.282 682.918 242.437C682.658 242.587 682.528 242.8 682.528 243.075C682.528 243.23 682.58 243.362 682.685 243.472C682.79 243.582 683 243.692 683.315 243.802C683.635 243.912 684.11 244.047 684.74 244.207C685.385 244.372 685.9 244.562 686.285 244.777C686.675 244.987 686.955 245.24 687.125 245.535C687.3 245.83 687.388 246.187 687.388 246.607C687.388 247.422 687.09 248.062 686.495 248.527C685.905 248.993 685.088 249.225 684.043 249.225ZM692.608 249.225C691.798 249.225 691.09 249.043 690.485 248.677C689.88 248.312 689.41 247.81 689.075 247.17C688.745 246.525 688.58 245.785 688.58 244.95C688.58 244.1 688.75 243.355 689.09 242.715C689.43 242.075 689.903 241.575 690.508 241.215C691.113 240.855 691.813 240.675 692.608 240.675C693.423 240.675 694.133 240.857 694.738 241.222C695.343 241.587 695.813 242.092 696.148 242.737C696.483 243.377 696.65 244.115 696.65 244.95C696.65 245.79 696.48 246.532 696.14 247.177C695.805 247.817 695.335 248.32 694.73 248.685C694.125 249.045 693.418 249.225 692.608 249.225ZM692.608 247.53C693.328 247.53 693.863 247.29 694.213 246.81C694.563 246.33 694.738 245.71 694.738 244.95C694.738 244.165 694.56 243.54 694.205 243.075C693.85 242.605 693.318 242.37 692.608 242.37C692.123 242.37 691.723 242.48 691.408 242.7C691.098 242.915 690.868 243.217 690.718 243.607C690.568 243.992 690.493 244.44 690.493 244.95C690.493 245.735 690.67 246.362 691.025 246.832C691.385 247.297 691.913 247.53 692.608 247.53ZM703.905 249V245.1C703.905 244.845 703.888 244.562 703.853 244.252C703.818 243.942 703.735 243.645 703.605 243.36C703.48 243.07 703.29 242.832 703.035 242.647C702.785 242.462 702.445 242.37 702.015 242.37C701.785 242.37 701.558 242.407 701.333 242.482C701.108 242.557 700.903 242.687 700.718 242.872C700.538 243.052 700.393 243.302 700.283 243.622C700.173 243.937 700.118 244.342 700.118 244.837L699.045 244.38C699.045 243.69 699.178 243.065 699.443 242.505C699.713 241.945 700.108 241.5 700.628 241.17C701.148 240.835 701.788 240.667 702.548 240.667C703.148 240.667 703.643 240.767 704.033 240.967C704.423 241.167 704.733 241.422 704.963 241.732C705.193 242.042 705.363 242.372 705.473 242.722C705.583 243.072 705.653 243.405 705.683 243.72C705.718 244.03 705.735 244.282 705.735 244.477V249H703.905ZM698.288 249V240.9H699.9V243.412H700.118V249H698.288ZM159.2 259.67V258.012H161.008V259.67H159.2ZM159.2 269V260.9H161.008V269H159.2ZM168.857 269V265.1C168.857 264.845 168.839 264.562 168.804 264.252C168.769 263.942 168.687 263.645 168.557 263.36C168.432 263.07 168.242 262.832 167.987 262.647C167.737 262.462 167.397 262.37 166.967 262.37C166.737 262.37 166.509 262.407 166.284 262.482C166.059 262.557 165.854 262.687 165.669 262.872C165.489 263.052 165.344 263.302 165.234 263.622C165.124 263.937 165.069 264.342 165.069 264.837L163.997 264.38C163.997 263.69 164.129 263.065 164.394 262.505C164.664 261.945 165.059 261.5 165.579 261.17C166.099 260.835 166.739 260.667 167.499 260.667C168.099 260.667 168.594 260.767 168.984 260.967C169.374 261.167 169.684 261.422 169.914 261.732C170.144 262.042 170.314 262.372 170.424 262.722C170.534 263.072 170.604 263.405 170.634 263.72C170.669 264.03 170.687 264.282 170.687 264.477V269H168.857ZM163.239 269V260.9H164.852V263.412H165.069V269H163.239ZM177.391 269C176.856 269.1 176.331 269.143 175.816 269.128C175.306 269.118 174.849 269.025 174.444 268.85C174.039 268.67 173.731 268.387 173.521 268.002C173.336 267.652 173.239 267.295 173.229 266.93C173.219 266.565 173.214 266.152 173.214 265.692V258.65H175.014V265.587C175.014 265.912 175.016 266.197 175.021 266.442C175.031 266.687 175.084 266.887 175.179 267.042C175.359 267.342 175.646 267.51 176.041 267.545C176.436 267.58 176.886 267.56 177.391 267.485V269ZM171.744 262.317V260.9H177.391V262.317H171.744ZM182.3 269.225C181.49 269.225 180.783 269.043 180.178 268.677C179.573 268.312 179.103 267.81 178.768 267.17C178.438 266.525 178.273 265.785 178.273 264.95C178.273 264.1 178.443 263.355 178.783 262.715C179.123 262.075 179.595 261.575 180.2 261.215C180.805 260.855 181.505 260.675 182.3 260.675C183.115 260.675 183.825 260.857 184.43 261.222C185.035 261.587 185.505 262.092 185.84 262.737C186.175 263.377 186.343 264.115 186.343 264.95C186.343 265.79 186.173 266.532 185.833 267.177C185.498 267.817 185.028 268.32 184.423 268.685C183.818 269.045 183.11 269.225 182.3 269.225ZM182.3 267.53C183.02 267.53 183.555 267.29 183.905 266.81C184.255 266.33 184.43 265.71 184.43 264.95C184.43 264.165 184.253 263.54 183.898 263.075C183.543 262.605 183.01 262.37 182.3 262.37C181.815 262.37 181.415 262.48 181.1 262.7C180.79 262.915 180.56 263.217 180.41 263.607C180.26 263.992 180.185 264.44 180.185 264.95C180.185 265.735 180.363 266.362 180.718 266.832C181.078 267.297 181.605 267.53 182.3 267.53ZM194.891 269.225C194.101 269.225 193.438 269.038 192.903 268.662C192.368 268.287 191.966 267.777 191.696 267.132C191.426 266.482 191.291 265.755 191.291 264.95C191.291 264.135 191.426 263.405 191.696 262.76C191.966 262.115 192.361 261.607 192.881 261.237C193.406 260.862 194.053 260.675 194.823 260.675C195.588 260.675 196.251 260.862 196.811 261.237C197.376 261.607 197.813 262.115 198.123 262.76C198.433 263.4 198.588 264.13 198.588 264.95C198.588 265.76 198.436 266.487 198.131 267.132C197.826 267.777 197.396 268.287 196.841 268.662C196.286 269.038 195.636 269.225 194.891 269.225ZM190.983 272.6V260.9H192.581V266.585H192.806V272.6H190.983ZM194.613 267.605C195.083 267.605 195.471 267.487 195.776 267.252C196.081 267.017 196.306 266.7 196.451 266.3C196.601 265.895 196.676 265.445 196.676 264.95C196.676 264.46 196.601 264.015 196.451 263.615C196.301 263.21 196.068 262.89 195.753 262.655C195.438 262.415 195.038 262.295 194.553 262.295C194.093 262.295 193.718 262.407 193.428 262.632C193.138 262.852 192.923 263.162 192.783 263.562C192.648 263.957 192.581 264.42 192.581 264.95C192.581 265.475 192.648 265.937 192.783 266.337C192.923 266.737 193.141 267.05 193.436 267.275C193.736 267.495 194.128 267.605 194.613 267.605ZM200.241 269V260.9H201.839V262.872L201.644 262.617C201.744 262.347 201.876 262.102 202.041 261.882C202.211 261.657 202.414 261.472 202.649 261.327C202.849 261.192 203.069 261.087 203.309 261.012C203.554 260.932 203.804 260.885 204.059 260.87C204.314 260.85 204.561 260.86 204.801 260.9V262.587C204.561 262.517 204.284 262.495 203.969 262.52C203.659 262.545 203.379 262.632 203.129 262.782C202.879 262.917 202.674 263.09 202.514 263.3C202.359 263.51 202.244 263.75 202.169 264.02C202.094 264.285 202.056 264.572 202.056 264.882V269H200.241ZM209.664 269.225C208.854 269.225 208.146 269.043 207.541 268.677C206.936 268.312 206.466 267.81 206.131 267.17C205.801 266.525 205.636 265.785 205.636 264.95C205.636 264.1 205.806 263.355 206.146 262.715C206.486 262.075 206.959 261.575 207.564 261.215C208.169 260.855 208.869 260.675 209.664 260.675C210.479 260.675 211.189 260.857 211.794 261.222C212.399 261.587 212.869 262.092 213.204 262.737C213.539 263.377 213.706 264.115 213.706 264.95C213.706 265.79 213.536 266.532 213.196 267.177C212.861 267.817 212.391 268.32 211.786 268.685C211.181 269.045 210.474 269.225 209.664 269.225ZM209.664 267.53C210.384 267.53 210.919 267.29 211.269 266.81C211.619 266.33 211.794 265.71 211.794 264.95C211.794 264.165 211.616 263.54 211.261 263.075C210.906 262.605 210.374 262.37 209.664 262.37C209.179 262.37 208.779 262.48 208.464 262.7C208.154 262.915 207.924 263.217 207.774 263.607C207.624 263.992 207.549 264.44 207.549 264.95C207.549 265.735 207.726 266.362 208.081 266.832C208.441 267.297 208.969 267.53 209.664 267.53ZM222.254 269.225C221.464 269.225 220.802 269.038 220.267 268.662C219.732 268.287 219.329 267.777 219.059 267.132C218.789 266.482 218.654 265.755 218.654 264.95C218.654 264.135 218.789 263.405 219.059 262.76C219.329 262.115 219.724 261.607 220.244 261.237C220.769 260.862 221.417 260.675 222.187 260.675C222.952 260.675 223.614 260.862 224.174 261.237C224.739 261.607 225.177 262.115 225.487 262.76C225.797 263.4 225.952 264.13 225.952 264.95C225.952 265.76 225.799 266.487 225.494 267.132C225.189 267.777 224.759 268.287 224.204 268.662C223.649 269.038 222.999 269.225 222.254 269.225ZM218.347 272.6V260.9H219.944V266.585H220.169V272.6H218.347ZM221.977 267.605C222.447 267.605 222.834 267.487 223.139 267.252C223.444 267.017 223.669 266.7 223.814 266.3C223.964 265.895 224.039 265.445 224.039 264.95C224.039 264.46 223.964 264.015 223.814 263.615C223.664 263.21 223.432 262.89 223.117 262.655C222.802 262.415 222.402 262.295 221.917 262.295C221.457 262.295 221.082 262.407 220.792 262.632C220.502 262.852 220.287 263.162 220.147 263.562C220.012 263.957 219.944 264.42 219.944 264.95C219.944 265.475 220.012 265.937 220.147 266.337C220.287 266.737 220.504 267.05 220.799 267.275C221.099 267.495 221.492 267.605 221.977 267.605ZM227.755 269V257.975H229.562V269H227.755ZM234.074 269.225C233.489 269.225 232.994 269.115 232.589 268.895C232.184 268.67 231.876 268.372 231.666 268.002C231.461 267.632 231.359 267.225 231.359 266.78C231.359 266.39 231.424 266.04 231.554 265.73C231.684 265.415 231.884 265.145 232.154 264.92C232.424 264.69 232.774 264.502 233.204 264.357C233.529 264.252 233.909 264.157 234.344 264.072C234.784 263.987 235.259 263.91 235.769 263.84C236.284 263.765 236.821 263.685 237.381 263.6L236.736 263.967C236.741 263.407 236.616 262.995 236.361 262.73C236.106 262.465 235.676 262.332 235.071 262.332C234.706 262.332 234.354 262.417 234.014 262.587C233.674 262.757 233.436 263.05 233.301 263.465L231.651 262.947C231.851 262.262 232.231 261.712 232.791 261.297C233.356 260.882 234.116 260.675 235.071 260.675C235.791 260.675 236.424 260.792 236.969 261.027C237.519 261.262 237.926 261.647 238.191 262.182C238.336 262.467 238.424 262.76 238.454 263.06C238.484 263.355 238.499 263.677 238.499 264.027V269H236.916V267.245L237.179 267.53C236.814 268.115 236.386 268.545 235.896 268.82C235.411 269.09 234.804 269.225 234.074 269.225ZM234.434 267.785C234.844 267.785 235.194 267.712 235.484 267.567C235.774 267.422 236.004 267.245 236.174 267.035C236.349 266.825 236.466 266.627 236.526 266.442C236.621 266.212 236.674 265.95 236.684 265.655C236.699 265.355 236.706 265.112 236.706 264.927L237.261 265.092C236.716 265.177 236.249 265.252 235.859 265.317C235.469 265.382 235.134 265.445 234.854 265.505C234.574 265.56 234.326 265.622 234.111 265.692C233.901 265.767 233.724 265.855 233.579 265.955C233.434 266.055 233.321 266.17 233.241 266.3C233.166 266.43 233.129 266.582 233.129 266.757C233.129 266.957 233.179 267.135 233.279 267.29C233.379 267.44 233.524 267.56 233.714 267.65C233.909 267.74 234.149 267.785 234.434 267.785ZM246.054 269V265.1C246.054 264.845 246.036 264.562 246.001 264.252C245.966 263.942 245.884 263.645 245.754 263.36C245.629 263.07 245.439 262.832 245.184 262.647C244.934 262.462 244.594 262.37 244.164 262.37C243.934 262.37 243.706 262.407 243.481 262.482C243.256 262.557 243.051 262.687 242.866 262.872C242.686 263.052 242.541 263.302 242.431 263.622C242.321 263.937 242.266 264.342 242.266 264.837L241.194 264.38C241.194 263.69 241.326 263.065 241.591 262.505C241.861 261.945 242.256 261.5 242.776 261.17C243.296 260.835 243.936 260.667 244.696 260.667C245.296 260.667 245.791 260.767 246.181 260.967C246.571 261.167 246.881 261.422 247.111 261.732C247.341 262.042 247.511 262.372 247.621 262.722C247.731 263.072 247.801 263.405 247.831 263.72C247.866 264.03 247.884 264.282 247.884 264.477V269H246.054ZM240.436 269V260.9H242.049V263.412H242.266V269H240.436ZM253.392 269.225C252.572 269.225 251.852 269.048 251.232 268.692C250.612 268.337 250.127 267.845 249.777 267.215C249.432 266.585 249.259 265.86 249.259 265.04C249.259 264.155 249.429 263.387 249.769 262.737C250.109 262.082 250.582 261.575 251.187 261.215C251.792 260.855 252.492 260.675 253.287 260.675C254.127 260.675 254.839 260.872 255.424 261.267C256.014 261.657 256.452 262.21 256.737 262.925C257.022 263.64 257.129 264.482 257.059 265.452H255.267V264.792C255.262 263.912 255.107 263.27 254.802 262.865C254.497 262.46 254.017 262.257 253.362 262.257C252.622 262.257 252.072 262.487 251.712 262.947C251.352 263.402 251.172 264.07 251.172 264.95C251.172 265.77 251.352 266.405 251.712 266.855C252.072 267.305 252.597 267.53 253.287 267.53C253.732 267.53 254.114 267.432 254.434 267.237C254.759 267.037 255.009 266.75 255.184 266.375L256.969 266.915C256.659 267.645 256.179 268.212 255.529 268.617C254.884 269.022 254.172 269.225 253.392 269.225ZM250.602 265.452V264.087H256.174V265.452H250.602ZM263.48 269C262.945 269.1 262.42 269.143 261.905 269.128C261.395 269.118 260.938 269.025 260.533 268.85C260.128 268.67 259.82 268.387 259.61 268.002C259.425 267.652 259.328 267.295 259.318 266.93C259.308 266.565 259.303 266.152 259.303 265.692V258.65H261.103V265.587C261.103 265.912 261.105 266.197 261.11 266.442C261.12 266.687 261.173 266.887 261.268 267.042C261.448 267.342 261.735 267.51 262.13 267.545C262.525 267.58 262.975 267.56 263.48 267.485V269ZM257.833 262.317V260.9H263.48V262.317H257.833ZM272.117 269.225C271.327 269.225 270.665 269.038 270.13 268.662C269.595 268.287 269.192 267.777 268.922 267.132C268.652 266.482 268.517 265.755 268.517 264.95C268.517 264.135 268.652 263.405 268.922 262.76C269.192 262.115 269.587 261.607 270.107 261.237C270.632 260.862 271.28 260.675 272.05 260.675C272.815 260.675 273.477 260.862 274.037 261.237C274.602 261.607 275.04 262.115 275.35 262.76C275.66 263.4 275.815 264.13 275.815 264.95C275.815 265.76 275.662 266.487 275.357 267.132C275.052 267.777 274.622 268.287 274.067 268.662C273.512 269.038 272.862 269.225 272.117 269.225ZM268.21 272.6V260.9H269.807V266.585H270.032V272.6H268.21ZM271.84 267.605C272.31 267.605 272.697 267.487 273.002 267.252C273.307 267.017 273.532 266.7 273.677 266.3C273.827 265.895 273.902 265.445 273.902 264.95C273.902 264.46 273.827 264.015 273.677 263.615C273.527 263.21 273.295 262.89 272.98 262.655C272.665 262.415 272.265 262.295 271.78 262.295C271.32 262.295 270.945 262.407 270.655 262.632C270.365 262.852 270.15 263.162 270.01 263.562C269.875 263.957 269.807 264.42 269.807 264.95C269.807 265.475 269.875 265.937 270.01 266.337C270.15 266.737 270.367 267.05 270.662 267.275C270.962 267.495 271.355 267.605 271.84 267.605ZM281.15 269.225C280.33 269.225 279.61 269.048 278.99 268.692C278.37 268.337 277.885 267.845 277.535 267.215C277.19 266.585 277.018 265.86 277.018 265.04C277.018 264.155 277.188 263.387 277.528 262.737C277.868 262.082 278.34 261.575 278.945 261.215C279.55 260.855 280.25 260.675 281.045 260.675C281.885 260.675 282.598 260.872 283.183 261.267C283.773 261.657 284.21 262.21 284.495 262.925C284.78 263.64 284.888 264.482 284.818 265.452H283.025V264.792C283.02 263.912 282.865 263.27 282.56 262.865C282.255 262.46 281.775 262.257 281.12 262.257C280.38 262.257 279.83 262.487 279.47 262.947C279.11 263.402 278.93 264.07 278.93 264.95C278.93 265.77 279.11 266.405 279.47 266.855C279.83 267.305 280.355 267.53 281.045 267.53C281.49 267.53 281.873 267.432 282.193 267.237C282.518 267.037 282.768 266.75 282.943 266.375L284.728 266.915C284.418 267.645 283.938 268.212 283.288 268.617C282.643 269.022 281.93 269.225 281.15 269.225ZM278.36 265.452V264.087H283.933V265.452H278.36ZM286.491 269V260.9H288.089V262.872L287.894 262.617C287.994 262.347 288.126 262.102 288.291 261.882C288.461 261.657 288.664 261.472 288.899 261.327C289.099 261.192 289.319 261.087 289.559 261.012C289.804 260.932 290.054 260.885 290.309 260.87C290.564 260.85 290.811 260.86 291.051 260.9V262.587C290.811 262.517 290.534 262.495 290.219 262.52C289.909 262.545 289.629 262.632 289.379 262.782C289.129 262.917 288.924 263.09 288.764 263.3C288.609 263.51 288.494 263.75 288.419 264.02C288.344 264.285 288.306 264.572 288.306 264.882V269H286.491ZM295.317 269.225C294.317 269.225 293.505 269 292.88 268.55C292.255 268.1 291.875 267.467 291.74 266.652L293.585 266.367C293.68 266.767 293.89 267.082 294.215 267.312C294.54 267.542 294.95 267.657 295.445 267.657C295.88 267.657 296.215 267.572 296.45 267.402C296.69 267.227 296.81 266.99 296.81 266.69C296.81 266.505 296.765 266.357 296.675 266.247C296.59 266.132 296.4 266.022 296.105 265.917C295.81 265.812 295.357 265.68 294.747 265.52C294.067 265.34 293.527 265.147 293.127 264.942C292.727 264.732 292.44 264.485 292.265 264.2C292.09 263.915 292.002 263.57 292.002 263.165C292.002 262.66 292.135 262.22 292.4 261.845C292.665 261.47 293.035 261.182 293.51 260.982C293.985 260.777 294.545 260.675 295.19 260.675C295.82 260.675 296.377 260.772 296.862 260.967C297.352 261.162 297.747 261.44 298.047 261.8C298.347 262.16 298.532 262.582 298.602 263.067L296.757 263.397C296.712 263.052 296.555 262.78 296.285 262.58C296.02 262.38 295.665 262.267 295.22 262.242C294.795 262.217 294.452 262.282 294.192 262.437C293.932 262.587 293.802 262.8 293.802 263.075C293.802 263.23 293.855 263.362 293.96 263.472C294.065 263.582 294.275 263.692 294.59 263.802C294.91 263.912 295.385 264.047 296.015 264.207C296.66 264.372 297.175 264.562 297.56 264.777C297.95 264.987 298.23 265.24 298.4 265.535C298.575 265.83 298.662 266.187 298.662 266.607C298.662 267.422 298.365 268.062 297.77 268.527C297.18 268.993 296.362 269.225 295.317 269.225ZM303.882 269.225C303.072 269.225 302.365 269.043 301.76 268.677C301.155 268.312 300.685 267.81 300.35 267.17C300.02 266.525 299.855 265.785 299.855 264.95C299.855 264.1 300.025 263.355 300.365 262.715C300.705 262.075 301.177 261.575 301.782 261.215C302.387 260.855 303.087 260.675 303.882 260.675C304.697 260.675 305.407 260.857 306.012 261.222C306.617 261.587 307.087 262.092 307.422 262.737C307.757 263.377 307.925 264.115 307.925 264.95C307.925 265.79 307.755 266.532 307.415 267.177C307.08 267.817 306.61 268.32 306.005 268.685C305.4 269.045 304.692 269.225 303.882 269.225ZM303.882 267.53C304.602 267.53 305.137 267.29 305.487 266.81C305.837 266.33 306.012 265.71 306.012 264.95C306.012 264.165 305.835 263.54 305.48 263.075C305.125 262.605 304.592 262.37 303.882 262.37C303.397 262.37 302.997 262.48 302.682 262.7C302.372 262.915 302.142 263.217 301.992 263.607C301.842 263.992 301.767 264.44 301.767 264.95C301.767 265.735 301.945 266.362 302.3 266.832C302.66 267.297 303.187 267.53 303.882 267.53ZM315.18 269V265.1C315.18 264.845 315.162 264.562 315.127 264.252C315.092 263.942 315.01 263.645 314.88 263.36C314.755 263.07 314.565 262.832 314.31 262.647C314.06 262.462 313.72 262.37 313.29 262.37C313.06 262.37 312.832 262.407 312.607 262.482C312.382 262.557 312.177 262.687 311.992 262.872C311.812 263.052 311.667 263.302 311.557 263.622C311.447 263.937 311.392 264.342 311.392 264.837L310.32 264.38C310.32 263.69 310.452 263.065 310.717 262.505C310.987 261.945 311.382 261.5 311.902 261.17C312.422 260.835 313.062 260.667 313.822 260.667C314.422 260.667 314.917 260.767 315.307 260.967C315.697 261.167 316.007 261.422 316.237 261.732C316.467 262.042 316.637 262.372 316.747 262.722C316.857 263.072 316.927 263.405 316.957 263.72C316.992 264.03 317.01 264.282 317.01 264.477V269H315.18ZM309.562 269V260.9H311.175V263.412H311.392V269H309.562ZM322.094 269.225C321.094 269.225 320.282 269 319.657 268.55C319.032 268.1 318.652 267.467 318.517 266.652L320.362 266.367C320.457 266.767 320.667 267.082 320.992 267.312C321.317 267.542 321.727 267.657 322.222 267.657C322.657 267.657 322.992 267.572 323.227 267.402C323.467 267.227 323.587 266.99 323.587 266.69C323.587 266.505 323.542 266.357 323.452 266.247C323.367 266.132 323.177 266.022 322.882 265.917C322.587 265.812 322.134 265.68 321.524 265.52C320.844 265.34 320.304 265.147 319.904 264.942C319.504 264.732 319.217 264.485 319.042 264.2C318.867 263.915 318.779 263.57 318.779 263.165C318.779 262.66 318.912 262.22 319.177 261.845C319.442 261.47 319.812 261.182 320.287 260.982C320.762 260.777 321.322 260.675 321.967 260.675C322.597 260.675 323.154 260.772 323.639 260.967C324.129 261.162 324.524 261.44 324.824 261.8C325.124 262.16 325.309 262.582 325.379 263.067L323.534 263.397C323.489 263.052 323.332 262.78 323.062 262.58C322.797 262.38 322.442 262.267 321.997 262.242C321.572 262.217 321.229 262.282 320.969 262.437C320.709 262.587 320.579 262.8 320.579 263.075C320.579 263.23 320.632 263.362 320.737 263.472C320.842 263.582 321.052 263.692 321.367 263.802C321.687 263.912 322.162 264.047 322.792 264.207C323.437 264.372 323.952 264.562 324.337 264.777C324.727 264.987 325.007 265.24 325.177 265.535C325.352 265.83 325.439 266.187 325.439 266.607C325.439 267.422 325.142 268.062 324.547 268.527C323.957 268.993 323.139 269.225 322.094 269.225Z" fill="#1C1C1C"/>
<path d="M248.353 102.309C238.621 96.7425 227.831 92.5551 216.731 91.3387C201.434 89.6625 184.769 94.3664 171.333 101.942C163.531 106.341 156.06 116.533 158.455 126.401C159.786 131.885 163.22 136.104 166.964 140.036C177.679 151.29 191.225 158.753 205.509 163.907C227.827 171.961 254.39 176.147 277.667 170.192C282.131 169.05 286.011 167.83 289.4 164.495C294.407 159.569 295.483 151.541 294.826 144.722C294.2 138.216 291.523 130.114 288.66 124.435C282.983 113.171 274.641 102.368 263.697 96.3187C256.353 92.2588 250.835 91.222 242.681 91.8716C239.621 92.1153 236.583 92.8091 233.661 93.7828C223.046 97.3191 230.248 96.4958 221.082 100.986" stroke="#2DFF81" stroke-width="3" stroke-linecap="round"/>
</g>
<defs>
<filter id="filter0_f_11_21" x="-236" y="-151" width="613" height="566" filterUnits="userSpaceOnUse" color-interpolation-filters="sRGB">
<feFlood flood-opacity="0" result="BackgroundImageFix"/>
<feBlend mode="normal" in="SourceGraphic" in2="BackgroundImageFix" result="shape"/>
<feGaussianBlur stdDeviation="81" result="effect1_foregroundBlur_11_21"/>
</filter>
<filter id="filter1_f_11_21" x="411" y="18" width="613" height="566" filterUnits="userSpaceOnUse" color-interpolation-filters="sRGB">
<feFlood flood-opacity="0" result="BackgroundImageFix"/>
<feBlend mode="normal" in="SourceGraphic" in2="BackgroundImageFix" result="shape"/>
<feGaussianBlur stdDeviation="81" result="effect1_foregroundBlur_11_21"/>
</filter>
<clipPath id="clip0_11_21">
<rect width="862" height="380" fill="white"/>
</clipPath>
</defs>
</svg>
